{"glyphs":{"0":{"ha":903,"x_min":83,"x_max":819,"o":"m 723 69 q 675 24 723 69 q 451 -21 626 -21 q 180 69 276 -21 q 83 315 83 160 l 83 672 q 181 917 83 826 q 451 1007 278 1007 q 722 917 625 1007 q 819 672 819 826 l 819 315 q 723 69 819 160 m 308 188 q 333 165 308 188 q 451 142 358 142 q 595 188 544 142 q 646 315 646 233 l 646 672 q 595 799 646 754 q 451 844 544 844 q 308 799 358 844 q 257 672 257 754 l 257 315 q 308 188 257 233 z "},"1":{"ha":632,"x_min":29,"x_max":514,"o":"m 388 0 q 351 10 361 0 q 340 47 340 21 l 340 775 l 147 667 q 103 656 118 651 q 75 685 88 661 l 40 747 q 34 784 29 771 q 63 811 39 797 l 333 967 q 401 986 367 986 l 467 986 q 503 976 493 986 q 514 939 514 965 l 514 47 q 503 10 514 21 q 467 0 493 0 l 388 0 z "},"2":{"ha":851,"x_min":71,"x_max":782,"o":"m 121 0 q 83 10 94 0 q 72 47 72 21 l 72 151 q 89 251 72 206 q 128 325 106 296 q 192 381 151 354 q 265 424 233 408 q 346 458 296 439 q 526 544 483 511 q 600 689 599 601 q 555 799 600 754 q 439 844 510 844 q 320 814 365 844 q 246 721 275 783 q 222 688 235 694 q 185 690 210 682 l 110 718 q 78 741 85 728 q 81 778 71 754 q 444 1007 172 1007 q 690 917 599 1007 q 782 697 782 826 q 699 467 782 547 q 396 299 615 386 q 376 291 393 297 q 354 283 358 285 q 334 274 350 281 q 313 264 318 268 q 295 253 307 260 q 278 240 283 246 q 267 225 274 233 q 258 207 260 217 q 256 188 256 197 l 256 163 l 718 163 q 755 152 744 163 q 765 115 765 142 l 765 47 q 755 10 765 21 q 718 0 744 0 l 121 0 z "},"3":{"ha":872,"x_min":53,"x_max":801,"o":"m 444 -21 q 69 213 150 -21 q 99 274 53 257 l 174 300 q 235 271 218 317 q 304 172 260 203 q 444 142 349 142 q 619 283 619 142 q 475 422 619 422 l 331 422 q 294 433 304 422 q 283 469 283 443 l 283 532 q 294 569 283 558 q 331 579 304 579 l 450 579 q 556 615 517 579 q 596 710 596 650 q 440 844 596 844 q 309 815 350 844 q 243 717 268 786 q 221 686 233 692 q 182 688 208 681 l 107 714 q 78 775 61 731 q 205 949 118 892 q 443 1007 292 1007 q 685 932 599 1007 q 771 725 771 857 q 661 515 771 578 q 801 281 801 451 q 711 60 801 142 q 444 -21 621 -21 z "},"4":{"ha":897,"x_min":40,"x_max":851,"o":"m 594 0 q 558 10 568 0 q 547 47 547 21 l 547 229 l 89 229 q 51 240 61 229 q 40 276 40 250 l 40 326 q 57 383 40 361 l 519 956 q 586 989 546 989 l 661 989 q 699 978 689 989 q 710 942 710 968 l 710 383 l 804 383 q 841 373 831 383 q 851 336 851 363 l 851 276 q 841 240 851 250 q 804 229 831 229 l 710 229 l 710 47 q 699 10 710 21 q 661 0 688 0 l 594 0 m 244 383 l 547 383 l 547 756 l 244 383 z "},"5":{"ha":847,"x_min":46,"x_max":786,"o":"m 438 -21 q 61 206 146 -21 q 90 265 46 250 l 167 293 q 204 297 192 303 q 228 264 217 290 q 436 142 274 142 q 557 185 511 142 q 603 307 603 229 q 558 417 603 376 q 439 458 514 458 l 146 458 q 104 471 115 458 q 96 514 93 483 l 138 918 q 158 972 142 957 q 214 986 175 986 l 700 986 q 737 976 726 986 q 747 939 747 965 l 747 871 q 737 834 747 844 q 700 824 726 824 l 301 824 l 281 619 l 450 619 q 700 531 614 619 q 786 307 786 443 q 692 74 786 168 q 438 -21 599 -21 z "},"6":{"ha":900,"x_min":82,"x_max":829,"o":"m 456 -21 q 178 75 275 -21 q 82 342 82 171 l 82 644 q 178 912 82 817 q 456 1007 275 1007 q 815 788 731 1007 q 817 750 824 763 q 785 726 811 738 l 711 700 q 674 697 686 690 q 651 729 663 703 q 456 844 603 844 q 256 646 256 844 l 256 583 q 469 610 342 610 q 829 297 829 610 q 730 65 829 150 q 456 -21 631 -21 m 307 192 q 333 167 307 192 q 456 142 358 142 q 604 181 553 142 q 656 297 656 221 q 609 413 656 375 q 457 451 563 451 q 256 419 319 451 l 256 340 q 307 192 256 243 z "},"7":{"ha":769,"x_min":43,"x_max":736,"o":"m 204 0 q 181 47 158 0 l 536 824 l 90 824 q 53 834 64 824 q 43 871 43 844 l 43 939 q 53 976 43 965 q 90 986 64 986 l 689 986 q 726 976 715 986 q 736 939 736 965 l 736 890 q 722 824 736 854 l 368 42 q 341 8 357 15 q 281 0 325 0 l 204 0 z "},"8":{"ha":892,"x_min":69,"x_max":822,"o":"m 444 -21 q 69 247 69 -21 q 239 492 69 407 q 100 729 100 572 q 192 934 100 861 q 444 1007 283 1007 q 703 939 614 1007 q 792 743 792 871 q 650 517 792 597 q 776 423 731 481 q 822 269 822 365 q 731 57 822 135 q 444 -21 639 -21 m 499 568 q 622 726 622 621 q 446 856 622 856 q 275 726 275 856 q 316 634 275 664 q 442 582 357 604 l 499 568 m 446 131 q 596 165 551 131 q 640 267 640 200 q 634 307 640 289 q 620 338 628 325 q 594 363 613 351 q 565 382 576 375 q 525 398 553 389 q 484 410 497 407 q 435 422 471 414 q 386 433 399 431 q 246 265 246 382 q 292 165 246 199 q 446 131 339 131 z "},"9":{"ha":900,"x_min":71,"x_max":819,"o":"m 444 -21 q 86 199 168 -21 q 83 236 76 224 q 115 260 89 249 l 189 286 q 226 290 214 296 q 249 257 238 283 q 444 142 297 142 q 644 340 644 142 l 644 403 q 432 376 558 376 q 71 689 71 376 q 170 922 71 836 q 444 1007 269 1007 q 723 911 626 1007 q 819 644 819 815 l 819 342 q 723 74 819 169 q 444 -21 626 -21 m 443 535 q 644 567 581 535 l 644 646 q 444 844 644 844 q 296 805 347 844 q 244 689 244 765 q 291 573 244 611 q 443 535 338 535 z "}," ":{"ha":324,"x_min":0,"x_max":0,"o":""},"!":{"ha":354,"x_min":82,"x_max":271,"o":"m 156 283 q 123 292 132 283 q 113 325 114 301 l 94 985 q 103 1018 93 1008 q 138 1028 114 1028 l 218 1028 q 252 1018 242 1028 q 261 985 263 1008 l 242 325 q 232 292 240 300 q 199 283 224 283 l 156 283 m 172 -11 q 101 8 121 -11 q 82 79 82 28 l 82 92 q 101 161 82 142 q 172 181 121 181 l 182 181 q 252 161 233 181 q 271 92 271 142 l 271 79 q 252 8 271 28 q 182 -11 233 -11 l 172 -11 z "},"\"":{"ha":504,"x_min":88,"x_max":425,"o":"m 126 631 q 94 637 101 631 q 88 667 88 643 l 88 949 q 95 979 88 972 q 126 986 103 986 l 192 986 q 224 979 217 986 q 231 949 232 972 l 213 667 q 204 637 211 643 q 172 631 197 631 l 126 631 m 319 631 q 288 637 294 631 q 281 667 281 643 l 281 949 q 288 979 281 972 q 319 986 296 986 l 383 986 q 417 979 408 986 q 424 949 425 972 l 406 667 q 397 637 404 643 q 364 631 389 631 l 319 631 z "},"#":{"ha":1007,"x_min":46,"x_max":961,"o":"m 169 0 q 138 10 146 0 q 138 43 131 19 l 196 235 l 85 235 q 53 244 61 235 q 53 276 46 253 l 72 343 q 92 374 79 365 q 131 382 106 382 l 239 382 l 290 550 l 178 550 q 146 592 132 550 l 167 658 q 185 689 172 681 q 222 697 197 697 l 332 697 l 389 885 q 408 917 396 908 q 443 926 419 926 l 513 926 q 543 917 536 926 q 543 885 550 908 l 488 697 l 656 697 l 711 885 q 730 917 718 908 q 765 926 742 926 l 835 926 q 866 917 858 926 q 867 885 874 908 l 810 697 l 922 697 q 954 688 947 697 q 954 656 961 679 l 935 589 q 878 550 922 550 l 767 550 l 717 382 l 831 382 q 863 340 876 382 l 842 274 q 785 235 829 235 l 672 235 l 615 43 q 597 10 608 19 q 561 0 585 0 l 492 0 q 461 43 447 0 l 518 235 l 350 235 l 293 43 q 274 10 286 19 q 238 0 261 0 l 169 0 m 394 382 l 561 382 l 613 550 l 444 550 l 394 382 z "},"$":{"ha":843,"x_min":46,"x_max":782,"o":"m 383 -89 q 351 -79 360 -89 q 342 -46 342 -69 l 342 25 q 63 239 132 51 q 94 303 46 285 l 163 328 q 203 331 189 338 q 228 297 218 324 q 415 181 274 181 q 608 303 608 181 q 594 356 608 335 q 548 388 579 376 q 488 406 517 400 q 410 417 458 411 q 314 429 354 422 q 224 455 274 436 q 142 501 174 474 q 90 578 111 529 q 68 690 68 626 q 138 874 68 803 q 342 964 207 946 l 342 1032 q 351 1065 342 1056 q 383 1075 360 1075 l 460 1075 q 493 1065 483 1075 q 503 1032 503 1056 l 503 964 q 657 902 597 950 q 757 771 717 854 q 763 731 769 746 q 729 703 757 715 l 661 672 q 624 667 638 661 q 596 697 610 672 q 529 778 569 751 q 418 804 489 804 q 288 777 329 804 q 246 690 246 750 q 276 628 246 651 q 342 597 306 604 q 443 582 379 589 q 539 570 501 576 q 628 546 576 564 q 708 501 679 528 q 760 424 738 474 q 782 307 782 374 q 710 119 782 193 q 503 26 638 46 l 503 -46 q 493 -79 503 -69 q 460 -89 483 -89 l 383 -89 z "},"%":{"ha":1158,"x_min":54,"x_max":1104,"o":"m 456 553 q 426 526 456 553 q 285 499 396 499 q 114 553 174 499 q 54 703 54 607 l 54 800 q 114 952 54 897 q 285 1007 174 1007 q 456 952 396 1007 q 515 800 515 897 l 515 703 q 456 553 515 607 m 188 0 q 156 14 163 0 q 164 47 150 28 l 826 947 q 859 980 844 974 q 913 986 874 986 l 974 986 q 1003 972 997 986 q 996 940 1008 958 l 335 42 q 300 7 315 14 q 243 0 285 0 l 188 0 m 189 711 q 285 626 189 626 q 381 711 381 626 l 381 793 q 285 878 381 878 q 189 793 189 878 l 189 711 m 1044 33 q 1015 6 1044 33 q 874 -21 985 -21 q 703 33 763 -21 q 643 183 643 88 l 643 281 q 703 433 643 378 q 874 488 763 488 q 1044 433 985 488 q 1104 281 1104 378 l 1104 183 q 1044 33 1104 88 m 778 192 q 874 107 778 107 q 969 192 969 107 l 969 274 q 874 358 969 358 q 778 274 778 358 l 778 192 z "},"&":{"ha":961,"x_min":60,"x_max":964,"o":"m 361 -21 q 144 62 229 -21 q 60 274 60 144 q 246 547 60 447 q 154 753 154 646 q 226 933 154 858 q 424 1007 297 1007 q 608 938 533 1007 q 682 765 682 868 q 638 617 682 676 q 497 511 593 557 l 485 504 l 654 329 l 740 413 q 797 413 769 442 l 853 356 q 849 306 875 332 l 758 218 l 926 42 q 907 0 964 0 l 807 0 q 743 25 768 0 l 656 115 q 506 8 571 36 q 361 -21 442 -21 m 381 614 l 431 640 q 508 692 483 665 q 532 764 532 719 q 501 836 532 806 q 424 867 469 867 q 338 833 369 867 q 307 751 307 800 q 323 686 307 715 q 381 614 339 657 m 369 132 q 458 155 419 132 q 550 229 496 178 l 350 436 q 224 271 224 376 q 265 171 224 210 q 369 132 307 132 z "},"'":{"ha":311,"x_min":89,"x_max":233,"o":"m 128 631 q 96 637 103 631 q 89 667 89 643 l 89 949 q 97 979 89 972 q 128 986 104 986 l 193 986 q 226 979 218 986 q 232 949 233 972 l 215 667 q 206 637 214 643 q 174 631 199 631 l 128 631 z "},"(":{"ha":418,"x_min":86,"x_max":381,"o":"m 283 -356 q 135 -228 185 -308 q 86 -15 86 -149 l 86 694 q 135 908 86 828 q 283 1035 185 988 q 317 1037 306 1043 q 342 1007 329 1031 l 371 949 q 376 913 381 925 q 347 890 371 901 q 269 820 294 861 q 243 707 243 779 l 243 -28 q 269 -139 243 -99 q 347 -211 294 -179 q 376 -235 371 -225 q 371 -269 381 -246 l 342 -328 q 317 -358 329 -351 q 283 -356 306 -364 z "},")":{"ha":418,"x_min":28,"x_max":333,"o":"m 135 -354 q 101 -357 113 -362 q 78 -328 89 -351 l 47 -268 q 71 -210 28 -231 q 149 -140 124 -181 q 175 -26 175 -99 l 175 708 q 149 819 175 779 q 71 892 124 860 q 42 916 47 906 q 47 949 38 926 l 78 1008 q 101 1038 90 1032 q 135 1036 113 1044 q 284 908 235 989 q 333 694 333 828 l 333 -14 q 284 -227 333 -147 q 135 -354 235 -307 z "},"*":{"ha":524,"x_min":67,"x_max":460,"o":"m 169 576 l 132 606 q 129 642 107 622 l 214 729 l 94 751 q 75 782 67 756 l 90 826 q 124 840 100 853 l 233 788 l 217 908 q 239 935 211 935 l 286 935 q 308 908 317 935 l 293 788 l 404 840 q 438 826 428 853 l 453 782 q 433 751 460 753 l 313 729 l 396 642 q 393 606 418 622 l 356 578 q 319 586 331 561 l 263 690 l 206 586 q 169 576 194 563 z "},"+":{"ha":775,"x_min":60,"x_max":715,"o":"m 358 126 q 322 137 332 126 q 311 174 311 147 l 311 379 l 107 379 q 70 390 81 379 q 60 426 60 400 l 60 483 q 70 520 60 510 q 107 531 81 531 l 311 531 l 311 735 q 322 772 311 761 q 358 782 332 782 l 415 782 q 452 772 442 782 q 463 735 463 761 l 463 531 l 668 531 q 705 520 694 531 q 715 483 715 510 l 715 426 q 705 390 715 400 q 668 379 694 379 l 463 379 l 463 174 q 452 137 463 147 q 415 126 442 126 l 358 126 z "},",":{"ha":326,"x_min":47,"x_max":265,"o":"m 79 -169 q 53 -163 60 -169 q 50 -137 47 -157 l 85 121 q 101 160 89 150 q 143 171 114 171 l 204 171 q 249 121 265 171 l 164 -126 q 144 -160 156 -150 q 110 -169 133 -169 l 79 -169 z "},"-":{"ha":593,"x_min":89,"x_max":503,"o":"m 136 292 q 99 303 110 292 q 89 340 89 314 l 89 400 q 99 437 89 426 q 136 447 110 447 l 456 447 q 493 438 483 447 q 503 400 503 428 l 503 340 q 492 302 503 313 q 456 292 482 292 l 136 292 z "},".":{"ha":336,"x_min":74,"x_max":263,"o":"m 163 -11 q 92 8 111 -11 q 74 79 74 28 l 74 92 q 92 161 74 142 q 163 181 111 181 l 172 181 q 243 161 224 181 q 263 92 263 142 l 263 79 q 243 8 263 28 q 172 -11 224 -11 l 163 -11 z "},"/":{"ha":631,"x_min":35,"x_max":590,"o":"m 78 -83 q 49 -44 35 -83 l 418 949 q 440 979 428 971 q 475 988 451 988 l 554 988 q 584 978 578 988 q 582 949 590 968 l 213 -44 q 192 -75 204 -67 q 156 -83 181 -83 l 78 -83 z "},":":{"ha":367,"x_min":89,"x_max":278,"o":"m 178 499 q 108 517 126 499 q 89 588 89 536 l 89 600 q 108 670 89 651 q 178 689 126 689 l 189 689 q 258 670 239 689 q 278 600 278 651 l 278 588 q 258 517 278 536 q 189 499 239 499 l 178 499 m 178 -11 q 108 8 126 -11 q 89 79 89 28 l 89 92 q 108 161 89 142 q 178 181 126 181 l 189 181 q 258 161 239 181 q 278 92 278 142 l 278 79 q 258 8 278 28 q 189 -11 239 -11 l 178 -11 z "},";":{"ha":383,"x_min":54,"x_max":281,"o":"m 182 499 q 111 517 131 499 q 92 588 92 536 l 92 600 q 111 670 92 651 q 182 689 131 689 l 192 689 q 262 670 243 689 q 281 600 281 651 l 281 588 q 262 517 281 536 q 192 499 243 499 l 182 499 m 86 -169 q 60 -163 65 -169 q 57 -137 54 -157 l 92 121 q 108 160 96 150 q 149 171 121 171 l 211 171 q 256 121 272 171 l 169 -126 q 151 -160 163 -150 q 117 -169 140 -169 l 86 -169 z "},"<":{"ha":690,"x_min":50,"x_max":606,"o":"m 556 117 l 89 372 q 58 396 67 385 q 50 431 50 407 l 50 475 q 58 511 50 499 q 89 535 67 524 l 556 789 q 594 794 583 803 q 606 753 606 785 l 606 693 q 597 643 606 657 q 563 615 589 629 l 251 458 l 251 451 l 561 297 q 597 270 589 283 q 606 219 606 257 l 606 153 q 594 112 606 121 q 556 117 583 103 z "},"=":{"ha":838,"x_min":90,"x_max":746,"o":"m 138 513 q 101 523 111 513 q 90 560 90 533 l 90 621 q 101 658 90 647 q 138 668 111 668 l 699 668 q 735 658 725 668 q 746 621 746 647 l 746 560 q 735 523 746 533 q 699 513 725 513 l 138 513 m 138 239 q 101 249 111 239 q 90 286 90 260 l 90 347 q 101 384 90 374 q 138 394 111 394 l 699 394 q 735 385 725 394 q 746 347 746 375 l 746 286 q 735 249 746 258 q 699 239 725 239 l 138 239 z "},">":{"ha":690,"x_min":85,"x_max":640,"o":"m 135 118 q 85 154 85 92 l 85 214 q 93 263 85 250 q 128 290 101 276 l 439 447 l 439 456 l 129 610 q 93 637 101 624 q 85 688 85 650 l 85 754 q 135 789 85 818 l 603 535 q 633 511 625 522 q 640 476 640 500 l 640 432 q 633 397 640 408 q 603 372 625 385 l 135 118 z "},"?":{"ha":810,"x_min":43,"x_max":757,"o":"m 343 257 q 308 267 318 257 q 297 301 297 276 q 332 440 297 390 q 432 533 367 490 q 456 549 436 536 q 482 565 476 561 q 504 580 488 568 q 527 599 521 592 q 545 618 533 606 q 562 641 557 631 q 574 666 567 651 q 583 697 581 681 q 585 732 585 714 q 540 835 585 796 q 411 874 494 874 q 284 841 331 874 q 210 743 238 808 q 186 710 199 717 q 149 714 174 704 l 82 738 q 50 759 57 746 q 53 797 43 772 q 415 1026 142 1026 q 665 944 572 1026 q 757 739 757 863 q 750 660 757 696 q 726 594 743 624 q 697 545 710 565 q 656 504 683 525 q 615 474 629 483 q 569 446 601 464 q 529 422 538 428 q 464 368 486 394 q 442 301 442 342 q 432 266 442 275 q 397 257 422 257 l 343 257 m 365 -11 q 296 8 315 -11 q 276 79 276 28 l 276 92 q 296 161 276 142 q 365 181 315 181 l 376 181 q 447 161 428 181 q 465 92 465 142 l 465 79 q 447 8 465 28 q 376 -11 428 -11 l 365 -11 z "},"@":{"ha":1272,"x_min":71,"x_max":1197,"o":"m 633 -183 q 217 -42 363 -183 q 71 354 71 100 l 71 458 q 217 859 71 711 q 633 1007 364 1007 q 1051 859 906 1007 q 1197 458 1197 711 l 1197 354 q 1130 136 1197 215 q 961 57 1063 57 q 891 69 914 57 q 840 110 868 81 q 594 72 731 72 q 411 133 472 72 q 350 306 350 193 l 350 506 q 411 678 350 618 q 594 739 472 739 q 851 697 750 739 q 888 674 879 688 q 897 632 897 661 l 897 231 q 963 175 897 175 q 1041 217 1010 175 q 1072 351 1072 258 l 1072 461 q 960 780 1072 665 q 633 894 847 894 q 309 780 422 894 q 196 461 196 665 l 196 351 q 308 38 196 147 q 633 -71 421 -71 q 935 -36 756 -71 q 960 -51 960 -32 l 960 -112 q 933 -149 960 -140 q 633 -183 783 -183 m 614 196 q 763 217 696 196 l 763 582 q 750 600 763 594 q 614 615 694 615 q 515 588 546 615 q 485 501 485 560 l 485 308 q 515 223 485 250 q 614 196 546 196 z "},"A":{"ha":935,"x_min":6,"x_max":925,"o":"m 56 0 q 25 46 6 0 l 371 949 q 392 980 381 972 q 429 988 404 988 l 503 988 q 541 980 528 988 q 561 950 554 972 l 908 46 q 878 0 925 0 l 806 0 q 744 8 761 0 q 719 42 726 17 l 654 221 l 272 221 l 206 42 q 181 8 197 17 q 119 0 164 0 l 56 0 m 321 364 l 606 364 l 500 657 q 468 826 468 751 l 457 826 q 428 658 457 743 l 321 364 z "},"B":{"ha":924,"x_min":107,"x_max":861,"o":"m 154 0 q 117 10 128 0 q 107 47 107 21 l 107 939 q 117 976 107 965 q 154 986 128 986 l 540 986 q 749 919 675 986 q 824 726 824 851 q 719 517 824 579 l 719 511 q 861 271 861 460 q 774 72 861 143 q 549 0 688 0 l 154 0 m 281 579 l 518 579 q 646 701 646 579 q 518 824 646 824 l 281 824 l 281 579 m 281 163 l 543 163 q 676 290 676 163 q 543 421 676 421 l 281 421 l 281 163 z "},"C":{"ha":908,"x_min":78,"x_max":869,"o":"m 475 -21 q 182 76 286 -21 q 78 342 78 172 l 78 646 q 181 910 78 814 q 475 1007 285 1007 q 853 775 774 1007 q 824 714 869 731 l 749 688 q 710 685 722 679 q 688 717 697 692 q 475 844 642 844 q 310 794 368 844 q 253 647 253 743 l 253 340 q 310 193 253 244 q 475 142 368 142 q 689 271 640 142 q 711 303 699 297 q 749 300 724 310 l 824 274 q 854 213 869 257 q 475 -21 772 -21 z "},"D":{"ha":946,"x_min":107,"x_max":868,"o":"m 154 0 q 117 10 128 0 q 107 47 107 21 l 107 939 q 117 976 107 965 q 154 986 128 986 l 465 986 q 763 888 657 986 q 868 619 868 790 l 868 367 q 763 98 868 196 q 465 0 657 0 l 154 0 m 281 163 l 467 163 q 635 215 576 163 q 694 365 694 267 l 694 621 q 636 772 694 719 q 467 824 578 824 l 281 824 l 281 163 z "},"E":{"ha":825,"x_min":107,"x_max":769,"o":"m 154 0 q 117 10 128 0 q 107 47 107 21 l 107 939 q 117 976 107 965 q 154 986 128 986 l 707 986 q 744 976 733 986 q 754 939 754 965 l 754 871 q 744 834 754 844 q 707 824 733 824 l 281 824 l 281 581 l 640 581 q 677 570 667 581 q 688 533 688 560 l 688 465 q 677 428 688 439 q 640 418 667 418 l 281 418 l 281 163 l 722 163 q 759 152 749 163 q 769 115 769 142 l 769 47 q 759 10 769 21 q 722 0 749 0 l 154 0 z "},"F":{"ha":803,"x_min":107,"x_max":754,"o":"m 154 0 q 117 10 128 0 q 107 47 107 21 l 107 939 q 117 976 107 965 q 154 986 128 986 l 707 986 q 744 976 733 986 q 754 939 754 965 l 754 871 q 744 834 754 844 q 707 824 733 824 l 281 824 l 281 568 l 639 568 q 676 558 665 568 q 686 521 686 547 l 686 453 q 676 416 686 426 q 639 406 665 406 l 281 406 l 281 47 q 270 10 281 21 q 233 0 260 0 l 154 0 z "},"G":{"ha":940,"x_min":78,"x_max":872,"o":"m 475 -21 q 181 76 285 -21 q 78 342 78 172 l 78 646 q 181 910 78 814 q 475 1007 285 1007 q 853 775 774 1007 q 824 714 869 731 l 749 688 q 710 684 724 678 q 688 717 697 690 q 475 844 642 844 q 310 794 368 844 q 253 647 253 743 l 253 340 q 310 192 253 243 q 475 142 368 142 q 640 188 581 142 q 700 306 700 233 l 700 378 l 490 378 q 453 389 464 378 q 443 426 443 400 l 443 493 q 453 530 443 519 q 490 540 464 540 l 824 540 q 862 530 851 540 q 872 493 872 519 l 872 307 q 767 70 872 161 q 475 -21 663 -21 z "},"H":{"ha":974,"x_min":107,"x_max":867,"o":"m 154 0 q 117 10 128 0 q 107 47 107 21 l 107 939 q 117 976 107 965 q 154 986 128 986 l 233 986 q 270 976 260 986 q 281 939 281 965 l 281 581 l 693 581 l 693 939 q 703 976 693 965 q 740 986 714 986 l 819 986 q 856 976 846 986 q 867 939 867 965 l 867 47 q 856 10 867 21 q 819 0 846 0 l 740 0 q 703 10 714 0 q 693 47 693 21 l 693 418 l 281 418 l 281 47 q 270 10 281 21 q 233 0 260 0 l 154 0 z "},"I":{"ha":388,"x_min":107,"x_max":281,"o":"m 154 0 q 117 10 128 0 q 107 47 107 21 l 107 939 q 117 976 107 965 q 154 986 128 986 l 233 986 q 270 976 260 986 q 281 939 281 965 l 281 47 q 270 10 281 21 q 233 0 260 0 l 154 0 z "},"J":{"ha":822,"x_min":24,"x_max":722,"o":"m 368 -21 q 32 211 107 -21 q 30 249 24 236 q 61 272 36 263 l 138 299 q 174 302 163 308 q 197 269 186 296 q 259 173 219 204 q 368 142 299 142 q 549 324 549 142 l 549 940 q 558 976 549 965 q 594 986 568 986 l 676 986 q 713 976 703 986 q 722 940 722 965 l 722 325 q 631 71 722 163 q 368 -21 540 -21 z "},"K":{"ha":892,"x_min":107,"x_max":881,"o":"m 154 0 q 117 10 128 0 q 107 47 107 21 l 107 939 q 117 976 107 965 q 154 986 128 986 l 233 986 q 270 976 260 986 q 281 939 281 965 l 281 579 l 336 579 l 354 579 l 633 947 q 669 979 653 972 q 728 986 686 986 l 817 986 q 847 972 840 986 q 839 940 853 958 l 529 544 q 679 386 618 506 l 856 47 q 832 0 881 0 l 751 0 q 688 8 707 0 q 657 42 669 17 l 518 324 q 456 401 489 381 q 351 421 422 421 l 281 421 l 281 47 q 270 10 281 21 q 233 0 260 0 l 154 0 z "},"L":{"ha":754,"x_min":107,"x_max":726,"o":"m 154 0 q 117 10 128 0 q 107 47 107 21 l 107 939 q 117 976 107 965 q 154 986 128 986 l 233 986 q 270 976 260 986 q 281 939 281 965 l 281 163 l 679 163 q 716 152 706 163 q 726 115 726 142 l 726 47 q 716 10 726 21 q 679 0 706 0 l 154 0 z "},"M":{"ha":1146,"x_min":107,"x_max":1040,"o":"m 154 0 q 117 10 128 0 q 107 47 107 21 l 107 939 q 117 976 107 965 q 154 986 128 986 l 215 986 q 258 979 244 986 q 282 950 271 972 l 572 433 l 860 949 q 884 979 872 972 q 924 986 896 986 l 992 986 q 1029 976 1018 986 q 1040 939 1040 965 l 1040 47 q 1029 10 1040 21 q 992 0 1018 0 l 921 0 q 884 10 894 0 q 874 47 874 21 l 874 471 q 907 747 874 588 l 899 747 q 783 494 856 624 l 647 253 q 593 219 629 219 l 549 219 q 517 226 528 219 q 494 253 507 232 l 356 494 q 249 749 296 597 l 239 749 q 269 469 269 597 l 269 47 q 259 10 269 21 q 222 0 249 0 l 154 0 z "},"N":{"ha":986,"x_min":107,"x_max":881,"o":"m 154 0 q 117 10 128 0 q 107 47 107 21 l 107 939 q 117 976 107 965 q 154 986 128 986 l 233 986 q 279 964 264 986 l 617 464 q 676 361 649 417 q 717 267 703 306 q 733 228 732 229 l 742 228 q 735 272 742 231 q 720 380 728 314 q 713 508 713 446 l 713 939 q 723 976 713 965 q 760 986 733 986 l 833 986 q 870 976 860 986 q 881 939 881 965 l 881 47 q 870 10 881 21 q 833 0 860 0 l 754 0 q 707 24 721 0 l 367 526 q 311 626 338 569 q 269 720 285 682 q 253 760 254 758 l 244 760 q 252 716 244 758 q 267 608 260 674 q 275 483 275 542 l 275 47 q 265 10 275 21 q 228 0 254 0 l 154 0 z "},"O":{"ha":950,"x_min":78,"x_max":872,"o":"m 769 76 q 717 27 769 76 q 475 -21 665 -21 q 181 76 285 -21 q 78 342 78 172 l 78 644 q 181 910 78 814 q 475 1007 285 1007 q 769 910 665 1007 q 872 644 872 814 l 872 342 q 769 76 872 172 m 310 192 q 339 167 310 192 q 475 142 368 142 q 640 192 582 142 q 697 340 697 243 l 697 646 q 640 794 697 743 q 475 844 582 844 q 310 794 368 844 q 253 646 253 743 l 253 340 q 310 192 253 243 z "},"P":{"ha":899,"x_min":107,"x_max":850,"o":"m 154 0 q 117 10 128 0 q 107 47 107 21 l 107 939 q 117 976 107 965 q 154 986 128 986 l 522 986 q 762 900 674 986 q 850 664 850 814 q 762 428 850 514 q 522 343 674 343 l 281 343 l 281 47 q 270 10 281 21 q 233 0 260 0 l 154 0 m 281 506 l 506 506 q 625 547 582 506 q 668 664 668 589 q 625 781 668 739 q 506 824 582 824 l 281 824 l 281 506 z "},"Q":{"ha":969,"x_min":78,"x_max":918,"o":"m 763 -92 l 671 17 q 475 -21 592 -21 q 181 76 285 -21 q 78 342 78 172 l 78 644 q 181 910 78 814 q 475 1007 285 1007 q 769 910 665 1007 q 872 644 872 814 l 872 342 q 801 113 872 204 l 886 13 q 881 -56 918 -24 l 829 -97 q 763 -92 793 -129 m 310 192 q 339 167 310 192 q 475 142 368 142 q 640 192 582 142 q 697 340 697 243 l 697 646 q 640 794 697 743 q 475 844 582 844 q 310 794 368 844 q 253 646 253 743 l 253 340 q 310 192 253 243 z "},"R":{"ha":925,"x_min":107,"x_max":876,"o":"m 154 0 q 117 10 128 0 q 107 47 107 21 l 107 939 q 117 976 107 965 q 154 986 128 986 l 539 986 q 767 905 683 986 q 850 681 850 824 q 802 501 850 574 q 668 400 754 429 q 711 340 693 378 l 864 47 q 871 14 876 28 q 840 0 865 0 l 760 0 q 697 8 715 0 q 665 42 678 17 l 550 278 q 488 356 522 336 q 383 375 454 375 l 281 375 l 281 47 q 270 10 281 21 q 233 0 260 0 l 154 0 m 281 538 l 522 538 q 630 574 592 538 q 668 681 668 611 q 630 786 668 749 q 522 824 592 824 l 281 824 l 281 538 z "},"S":{"ha":900,"x_min":56,"x_max":842,"o":"m 446 -21 q 199 37 289 -21 q 64 211 108 94 q 62 251 56 238 q 94 272 68 264 l 169 300 q 206 302 194 308 q 229 271 218 296 q 446 142 286 142 q 667 286 667 142 q 634 360 667 332 q 559 398 601 388 q 447 415 517 408 q 372 424 400 421 q 300 438 344 428 q 228 460 256 447 q 167 494 200 472 q 115 543 133 515 q 83 612 96 571 q 71 703 71 653 q 169 924 71 840 q 451 1007 268 1007 q 679 956 594 1007 q 815 797 764 904 q 790 733 838 756 l 713 700 q 677 695 689 690 q 653 724 665 700 q 577 811 624 782 q 451 840 531 840 q 249 713 249 840 q 267 652 249 676 q 323 614 285 628 q 396 594 361 600 q 489 581 431 588 q 590 565 547 574 q 683 537 632 557 q 765 488 733 517 q 819 408 797 458 q 842 290 842 357 q 738 64 842 149 q 446 -21 633 -21 z "},"T":{"ha":810,"x_min":29,"x_max":781,"o":"m 365 0 q 328 10 339 0 q 318 47 318 21 l 318 824 l 76 824 q 40 834 50 824 q 29 871 29 844 l 29 939 q 40 976 29 965 q 76 986 50 986 l 733 986 q 770 976 760 986 q 781 939 781 965 l 781 871 q 770 834 781 844 q 733 824 760 824 l 492 824 l 492 47 q 481 10 492 21 q 444 0 471 0 l 365 0 z "},"U":{"ha":975,"x_min":100,"x_max":876,"o":"m 776 76 q 725 27 776 76 q 488 -21 675 -21 q 200 76 300 -21 q 100 339 100 172 l 100 939 q 110 976 100 965 q 147 986 121 986 l 226 986 q 263 976 253 986 q 274 939 274 965 l 274 338 q 328 192 274 243 q 488 142 382 142 q 647 192 593 142 q 701 338 701 243 l 701 939 q 712 976 701 965 q 749 986 722 986 l 829 986 q 866 976 856 986 q 876 939 876 965 l 876 339 q 776 76 876 172 z "},"V":{"ha":908,"x_min":10,"x_max":900,"o":"m 418 0 q 381 8 393 0 q 360 38 368 15 l 26 940 q 58 986 10 986 l 128 986 q 189 978 172 986 q 214 944 206 969 l 418 353 q 436 288 428 324 q 450 229 444 253 l 454 206 l 463 206 q 465 216 463 207 q 469 240 467 225 q 476 273 472 256 q 487 312 481 290 q 499 351 493 333 l 699 944 q 724 978 707 969 q 785 986 742 986 l 853 986 q 883 940 900 986 l 550 39 q 529 8 542 15 q 492 0 517 0 l 418 0 z "},"W":{"ha":1272,"x_min":33,"x_max":1239,"o":"m 328 0 q 288 8 301 0 q 269 38 275 15 l 40 940 q 40 975 33 964 q 71 986 46 986 l 168 986 q 212 978 199 986 q 231 944 225 969 l 344 426 q 367 240 361 346 l 375 240 q 403 426 379 336 l 543 940 q 564 974 550 965 q 607 982 578 982 l 681 982 q 724 974 710 982 q 744 940 739 965 l 881 426 q 911 240 899 364 l 919 240 q 943 425 926 340 l 1054 944 q 1073 978 1060 969 q 1117 986 1086 986 l 1201 986 q 1233 975 1226 986 q 1232 940 1239 964 l 1003 39 q 984 8 997 15 q 944 0 971 0 l 868 0 q 810 38 818 0 l 665 589 q 642 746 646 667 l 633 746 q 608 590 629 669 l 461 39 q 442 8 456 15 q 403 0 429 0 l 328 0 z "},"X":{"ha":907,"x_min":22,"x_max":888,"o":"m 60 0 q 28 15 35 0 q 36 49 22 29 l 343 503 l 47 942 q 41 972 35 958 q 71 986 47 986 l 164 986 q 222 979 206 986 q 257 947 238 972 l 456 640 l 654 947 q 688 979 674 972 q 740 986 703 986 l 836 986 q 866 972 860 986 q 858 942 872 958 l 563 504 l 872 49 q 881 15 888 31 q 849 0 874 0 l 751 0 q 692 7 708 0 q 658 42 676 14 l 446 368 l 242 42 q 208 7 224 14 q 150 0 192 0 l 60 0 z "},"Y":{"ha":914,"x_min":18,"x_max":894,"o":"m 417 0 q 380 10 390 0 q 369 47 369 21 l 369 392 l 31 939 q 24 972 18 958 q 54 986 29 986 l 151 986 q 212 980 196 986 q 243 944 228 974 l 458 569 l 676 944 q 708 980 692 974 q 768 986 724 986 l 858 986 q 889 972 883 986 q 882 939 894 958 l 543 389 l 543 47 q 533 10 543 21 q 496 0 522 0 l 417 0 z "},"Z":{"ha":838,"x_min":58,"x_max":781,"o":"m 106 0 q 69 10 79 0 q 58 47 58 21 l 58 115 q 74 164 58 143 l 553 824 l 113 824 q 75 834 86 824 q 64 871 64 844 l 64 939 q 75 976 64 965 q 113 986 86 986 l 724 986 q 760 976 750 986 q 771 939 771 965 l 771 872 q 756 822 771 843 l 275 163 l 733 163 q 770 152 760 163 q 781 115 781 142 l 781 47 q 770 10 781 21 q 733 0 760 0 l 106 0 z "},"[":{"ha":440,"x_min":96,"x_max":400,"o":"m 139 -356 q 104 -348 113 -356 q 96 -314 96 -340 l 96 993 q 104 1028 96 1019 q 139 1036 113 1036 l 358 1036 q 392 1028 385 1036 q 400 994 400 1021 l 400 933 q 392 899 400 907 q 358 892 385 892 l 250 892 l 250 -211 l 358 -211 q 393 -218 386 -211 q 400 -253 400 -225 l 400 -314 q 393 -349 400 -342 q 358 -356 386 -356 l 139 -356 z "},"\\":{"ha":631,"x_min":35,"x_max":590,"o":"m 475 -83 q 440 -75 451 -83 q 418 -44 428 -67 l 49 947 q 78 986 35 986 l 156 986 q 192 978 181 986 q 213 947 204 969 l 582 -44 q 584 -74 590 -64 q 554 -83 578 -83 l 475 -83 z "},"]":{"ha":440,"x_min":40,"x_max":344,"o":"m 82 -356 q 48 -349 56 -356 q 40 -314 40 -342 l 40 -253 q 48 -218 40 -225 q 82 -211 56 -211 l 190 -211 l 190 892 l 82 892 q 48 899 56 892 q 40 933 40 907 l 40 994 q 48 1028 40 1021 q 82 1036 56 1036 l 301 1036 q 336 1028 328 1036 q 344 993 344 1019 l 344 -314 q 336 -348 344 -340 q 301 -356 328 -356 l 82 -356 z "},"^":{"ha":836,"x_min":39,"x_max":800,"o":"m 101 722 q 78 772 39 722 l 336 1088 q 364 1117 353 1108 q 396 1125 375 1125 l 440 1125 q 452 1124 447 1125 q 462 1122 457 1124 q 469 1118 467 1119 q 477 1113 472 1117 q 483 1106 482 1108 q 490 1097 485 1104 q 499 1088 496 1090 l 758 772 q 735 722 800 722 l 664 722 q 613 728 626 722 q 579 760 600 735 l 419 964 l 411 964 l 251 760 q 217 728 231 735 q 165 722 203 722 l 101 722 z "},"_":{"ha":710,"x_min":40,"x_max":668,"o":"m 88 -156 q 51 -145 61 -156 q 40 -108 40 -135 l 40 -47 q 51 -10 40 -21 q 88 0 61 0 l 621 0 q 658 -10 647 0 q 668 -47 668 -21 l 668 -108 q 658 -145 668 -135 q 621 -156 647 -156 l 88 -156 z "},"`":{"ha":378,"x_min":22,"x_max":372,"o":"m 286 818 l 44 919 q 23 939 24 928 q 38 968 22 950 l 74 1011 q 151 1014 100 1044 l 357 892 q 372 873 372 882 q 358 846 372 864 l 339 821 q 286 818 326 803 z "},"a":{"ha":742,"x_min":54,"x_max":663,"o":"m 363 -21 q 121 34 188 -21 q 54 204 54 89 q 126 376 54 328 q 368 425 199 425 q 501 418 442 425 l 501 460 q 470 564 501 529 q 363 599 439 599 q 217 532 263 599 q 192 506 201 510 q 158 511 182 503 l 101 533 q 78 596 56 554 q 367 740 156 740 q 595 665 528 740 q 663 454 663 589 l 663 94 q 652 43 663 58 q 613 15 642 28 q 363 -21 529 -21 m 347 113 q 486 124 439 113 q 501 143 501 129 l 501 292 q 350 299 363 299 q 246 276 275 299 q 217 206 217 253 q 244 136 217 160 q 347 113 271 113 z "},"b":{"ha":772,"x_min":89,"x_max":704,"o":"m 390 -21 q 139 24 243 -21 q 97 53 106 39 q 89 100 89 67 l 89 985 q 98 1018 89 1008 q 131 1028 107 1028 l 207 1028 q 240 1018 231 1028 q 250 985 250 1008 l 250 717 q 415 740 347 740 q 704 461 704 740 l 704 274 q 390 -21 704 -21 m 379 126 q 503 163 464 126 q 543 278 543 200 l 543 457 q 504 558 543 522 q 393 593 465 593 q 250 568 325 593 l 250 158 q 260 143 250 147 q 379 126 310 126 z "},"c":{"ha":739,"x_min":67,"x_max":703,"o":"m 375 -21 q 143 53 219 -21 q 67 264 67 128 l 67 456 q 147 666 67 592 q 386 740 226 740 q 579 691 504 740 q 682 558 654 642 q 653 496 699 511 l 592 476 q 553 474 565 468 q 531 506 540 481 q 381 599 494 599 q 228 463 228 599 l 228 257 q 267 156 228 192 q 381 121 306 121 q 531 217 494 121 q 553 247 540 242 q 593 244 567 253 l 654 226 q 685 164 703 207 q 375 -21 613 -21 z "},"d":{"ha":772,"x_min":68,"x_max":685,"o":"m 369 -21 q 143 51 218 -21 q 68 260 68 124 l 68 450 q 142 666 68 592 q 358 740 215 740 q 524 722 426 740 l 524 985 q 533 1018 524 1008 q 567 1028 543 1028 l 642 1028 q 675 1018 665 1028 q 685 985 685 1008 l 685 100 q 674 51 685 65 q 631 24 664 38 q 369 -21 513 -21 m 385 126 q 513 142 458 126 q 524 157 524 146 l 524 575 q 390 593 440 593 q 229 446 229 593 l 229 265 q 269 162 229 197 q 385 126 310 126 z "},"e":{"ha":767,"x_min":65,"x_max":715,"o":"m 385 -21 q 144 60 222 -21 q 65 276 65 140 l 65 440 q 148 663 65 586 q 388 740 231 740 q 628 660 546 740 q 710 453 710 579 l 710 368 q 647 308 710 308 l 226 308 l 226 257 q 267 153 226 189 q 386 118 308 118 q 550 192 501 118 q 580 219 565 215 q 619 208 594 222 l 668 182 q 685 113 715 160 q 385 -21 603 -21 m 226 432 l 549 432 l 549 463 q 508 567 549 531 q 388 604 467 604 q 268 567 310 604 q 226 463 226 531 l 226 432 z "},"f":{"ha":535,"x_min":26,"x_max":515,"o":"m 196 0 q 162 10 171 0 q 153 43 153 19 l 153 571 l 69 571 q 36 581 46 571 q 26 614 26 590 l 26 678 q 36 710 26 701 q 69 719 46 719 l 153 719 l 153 733 q 227 951 153 878 q 457 1028 301 1025 l 471 1028 q 505 1018 496 1028 q 514 983 514 1008 l 514 922 q 505 888 514 897 q 471 878 496 878 q 349 845 383 878 q 314 733 314 813 l 314 719 l 472 719 q 506 710 496 719 q 515 678 515 701 l 515 614 q 506 581 515 590 q 472 571 496 571 l 314 571 l 314 43 q 304 10 314 19 q 269 0 294 0 l 196 0 z "},"g":{"ha":772,"x_min":60,"x_max":683,"o":"m 378 -326 q 90 -193 169 -326 q 107 -124 60 -149 l 160 -94 q 199 -85 185 -82 q 229 -111 214 -89 q 375 -182 274 -182 q 522 -32 522 -182 l 522 38 q 356 13 428 13 q 140 85 211 13 q 68 292 68 157 l 68 449 q 381 740 68 740 q 632 697 538 740 q 674 668 665 682 q 683 621 683 654 l 683 -24 q 609 -247 683 -167 q 378 -326 535 -326 m 379 160 q 522 179 442 160 l 522 561 q 511 578 522 574 q 393 593 453 593 q 269 557 308 593 q 229 443 229 521 l 229 296 q 379 160 229 160 z "},"h":{"ha":792,"x_min":92,"x_max":707,"o":"m 133 0 q 101 10 110 0 q 92 43 92 19 l 92 985 q 101 1018 92 1008 q 133 1028 110 1028 l 210 1028 q 243 1018 233 1028 q 253 985 253 1008 l 253 721 q 313 733 264 726 q 418 740 363 740 q 707 461 707 740 l 707 43 q 698 10 707 19 q 664 0 689 0 l 589 0 q 556 10 565 0 q 546 43 546 19 l 546 457 q 394 593 546 593 q 253 572 290 593 l 253 43 q 243 10 253 19 q 210 0 233 0 l 133 0 z "},"i":{"ha":342,"x_min":83,"x_max":258,"o":"m 165 843 q 100 860 117 843 q 83 924 83 876 l 83 936 q 100 999 83 983 q 165 1015 117 1015 l 176 1015 q 242 999 225 1015 q 258 936 258 983 l 258 924 q 242 860 258 876 q 176 843 225 843 l 165 843 m 133 0 q 100 10 110 0 q 90 43 90 19 l 90 678 q 100 710 90 701 q 133 719 110 719 l 208 719 q 242 710 232 719 q 251 678 251 701 l 251 43 q 242 10 251 19 q 208 0 232 0 l 133 0 z "},"j":{"ha":343,"x_min":-108,"x_max":258,"o":"m 167 843 q 101 860 118 843 q 85 924 85 876 l 85 936 q 101 999 85 983 q 167 1015 118 1015 l 176 1015 q 242 999 225 1015 q 258 936 258 983 l 258 924 q 242 860 258 876 q 176 843 225 843 l 167 843 m -65 -319 q -99 -310 -90 -319 q -108 -275 -108 -300 l -108 -214 q -99 -179 -108 -189 q -65 -169 -90 -169 q 56 -128 19 -169 q 92 -6 92 -86 l 92 678 q 101 710 92 701 q 135 719 110 719 l 208 719 q 243 710 233 719 q 253 678 253 701 l 253 -10 q -65 -319 253 -319 z "},"k":{"ha":746,"x_min":92,"x_max":731,"o":"m 136 0 q 101 10 110 0 q 92 44 92 19 l 92 983 q 101 1018 92 1008 q 136 1028 110 1028 l 207 1028 q 243 1018 233 1028 q 253 983 253 1008 l 253 442 l 314 442 l 325 442 l 513 688 q 542 715 528 710 q 596 719 557 719 l 664 719 q 692 669 731 719 l 482 410 q 582 294 539 382 l 704 51 q 713 12 718 24 q 676 0 707 0 l 607 0 q 558 7 571 0 q 532 39 544 14 l 446 224 q 404 276 429 261 q 336 292 379 292 l 253 292 l 253 44 q 243 10 253 19 q 207 0 233 0 l 136 0 z "},"l":{"ha":350,"x_min":94,"x_max":256,"o":"m 138 0 q 104 10 114 0 q 94 43 94 19 l 94 985 q 104 1018 94 1008 q 138 1028 114 1028 l 213 1028 q 246 1018 236 1028 q 256 985 256 1008 l 256 43 q 246 10 256 19 q 213 0 236 0 l 138 0 z "},"m":{"ha":1174,"x_min":89,"x_max":1089,"o":"m 131 0 q 98 10 107 0 q 89 43 89 19 l 89 614 q 99 663 89 647 q 142 693 110 679 q 396 740 260 740 q 569 694 506 740 q 815 740 683 740 q 1089 464 1089 740 l 1089 43 q 1079 10 1089 19 q 1046 0 1069 0 l 971 0 q 938 10 947 0 q 928 43 928 19 l 928 458 q 792 593 928 593 q 656 568 728 593 q 671 464 671 528 l 671 43 q 661 10 671 19 q 628 0 651 0 l 553 0 q 519 10 529 0 q 510 43 510 19 l 510 458 q 372 593 510 593 q 260 576 311 593 q 250 560 250 572 l 250 43 q 240 10 250 19 q 207 0 231 0 l 131 0 z "},"n":{"ha":789,"x_min":89,"x_max":704,"o":"m 131 0 q 98 10 107 0 q 89 43 89 19 l 89 614 q 99 663 89 647 q 142 693 110 679 q 415 740 263 740 q 704 461 704 740 l 704 43 q 694 10 704 19 q 661 0 685 0 l 586 0 q 553 10 563 0 q 543 43 543 19 l 543 457 q 392 593 543 593 q 258 575 325 593 q 250 561 250 571 l 250 43 q 240 10 250 19 q 207 0 231 0 l 131 0 z "},"o":{"ha":775,"x_min":68,"x_max":707,"o":"m 386 -21 q 151 53 233 -21 q 68 257 68 126 l 68 463 q 151 667 68 593 q 386 740 233 740 q 624 667 542 740 q 707 463 707 593 l 707 257 q 624 53 707 126 q 386 -21 542 -21 m 386 125 q 505 160 464 125 q 546 257 546 194 l 546 463 q 505 560 546 526 q 386 594 464 594 q 269 560 310 594 q 229 463 229 526 l 229 257 q 270 160 229 194 q 386 125 311 125 z "},"p":{"ha":772,"x_min":89,"x_max":704,"o":"m 131 -306 q 98 -296 107 -306 q 89 -262 89 -286 l 89 621 q 99 670 89 654 q 143 700 110 686 q 411 740 250 740 q 704 460 704 740 l 704 269 q 394 -21 704 -21 q 250 4 343 -21 l 250 -262 q 240 -296 250 -286 q 207 -306 231 -306 l 131 -306 m 383 126 q 543 275 543 126 l 543 456 q 389 593 543 593 q 263 578 317 593 q 250 560 250 574 l 250 147 q 383 126 331 126 z "},"q":{"ha":772,"x_min":68,"x_max":685,"o":"m 567 -306 q 533 -296 543 -306 q 524 -262 524 -286 l 524 6 q 357 -21 425 -21 q 140 51 213 -21 q 68 258 68 124 l 68 449 q 382 740 68 740 q 633 697 539 740 q 676 668 667 682 q 685 621 685 654 l 685 -262 q 675 -296 685 -286 q 642 -306 665 -306 l 567 -306 m 381 126 q 524 147 436 126 l 524 560 q 510 578 524 572 q 394 593 456 593 q 269 556 310 593 q 229 443 229 519 l 229 263 q 268 162 229 197 q 381 126 307 126 z "},"r":{"ha":508,"x_min":89,"x_max":488,"o":"m 131 0 q 98 10 107 0 q 89 43 89 19 l 89 600 q 99 649 89 633 q 142 678 110 665 q 400 719 251 719 l 446 719 q 478 710 469 719 q 488 678 488 701 l 488 615 q 478 583 488 592 q 446 574 469 574 l 396 574 q 263 557 325 574 q 250 539 250 553 l 250 43 q 240 10 250 19 q 207 0 231 0 l 131 0 z "},"s":{"ha":719,"x_min":42,"x_max":669,"o":"m 367 -21 q 58 147 125 -21 q 86 206 42 190 l 149 225 q 206 199 189 239 q 363 122 238 122 q 511 204 511 122 q 474 267 511 250 q 344 293 436 283 q 262 305 296 299 q 187 326 228 311 q 121 364 146 342 q 79 425 96 386 q 63 517 63 464 q 136 680 63 619 q 350 740 210 740 q 647 592 572 740 q 624 529 669 550 l 563 504 q 528 498 539 494 q 503 524 517 501 q 353 597 461 597 q 222 521 222 597 q 258 459 222 475 q 385 435 294 443 q 501 416 454 428 q 588 381 547 404 q 649 315 629 357 q 668 211 668 272 q 590 42 668 106 q 367 -21 511 -21 z "},"t":{"ha":560,"x_min":22,"x_max":522,"o":"m 479 0 q 230 65 300 0 q 160 307 160 129 l 160 571 l 65 571 q 32 581 42 571 q 22 614 22 590 l 22 678 q 32 710 22 701 q 65 719 42 719 l 160 719 l 160 844 q 169 877 160 868 q 203 886 179 886 l 279 886 q 312 877 303 886 q 321 844 321 868 l 321 719 l 481 719 q 513 710 504 719 q 522 678 522 701 l 522 614 q 513 581 522 590 q 481 571 504 571 l 321 571 l 321 313 q 354 183 321 214 q 479 153 388 153 q 513 143 503 153 q 522 110 522 133 l 522 44 q 513 10 522 21 q 479 0 503 0 z "},"u":{"ha":789,"x_min":85,"x_max":700,"o":"m 374 -21 q 156 51 228 -21 q 85 258 85 124 l 85 678 q 94 710 85 701 q 126 719 103 719 l 203 719 q 236 710 226 719 q 246 678 246 701 l 246 264 q 397 126 246 126 q 524 143 469 126 q 539 167 539 149 l 539 678 q 549 710 539 701 q 582 719 558 719 l 657 719 q 690 710 681 719 q 700 678 700 701 l 700 106 q 690 57 700 72 q 647 28 679 42 q 374 -21 522 -21 z "},"v":{"ha":736,"x_min":19,"x_max":717,"o":"m 346 -1 q 286 38 301 -1 l 31 669 q 27 710 19 700 q 67 719 35 719 l 119 719 q 173 711 158 719 q 197 676 188 703 l 325 343 q 338 303 332 325 q 349 264 344 282 q 357 231 354 246 q 361 206 360 215 l 364 194 l 372 194 l 375 206 q 379 230 376 215 q 386 263 382 244 q 397 302 390 281 q 410 342 403 324 l 538 676 q 562 711 547 703 q 614 719 576 719 l 669 719 q 709 710 701 719 q 706 671 717 700 l 449 38 q 390 -1 435 -1 l 346 -1 z "},"w":{"ha":1040,"x_min":32,"x_max":1010,"o":"m 283 -1 q 225 38 236 -1 l 40 669 q 39 710 32 700 q 76 719 46 719 l 129 719 q 185 711 169 719 q 207 676 201 703 l 285 365 q 296 297 290 339 q 304 226 301 256 q 308 196 307 197 l 315 196 q 320 226 317 197 q 330 296 324 254 q 344 367 336 338 l 436 671 q 457 708 444 700 q 508 715 469 715 l 539 715 q 590 708 576 715 q 610 672 603 700 l 703 367 q 719 294 713 336 q 729 225 726 253 q 733 196 732 197 l 740 196 l 742 222 q 750 291 744 250 q 764 367 756 332 l 842 676 q 863 711 847 703 q 918 719 878 719 l 964 719 q 1002 710 994 719 q 1000 669 1010 700 l 814 38 q 795 7 808 15 q 756 -1 782 -1 l 708 -1 q 649 38 661 -1 l 547 393 q 533 456 539 422 q 525 514 528 490 l 522 536 l 515 536 l 513 514 q 503 456 510 490 q 489 393 497 422 l 388 38 q 369 7 382 15 q 329 -1 356 -1 l 283 -1 z "},"x":{"ha":725,"x_min":18,"x_max":722,"o":"m 74 0 q 29 13 36 0 q 42 50 22 25 l 264 369 l 51 669 q 85 719 18 719 l 149 719 q 198 713 183 719 q 228 683 213 707 l 364 488 l 499 683 q 528 713 515 707 q 574 719 540 719 l 642 719 q 671 669 706 719 l 463 371 l 686 50 q 654 0 722 0 l 588 0 q 539 6 553 0 q 510 36 525 13 l 361 254 l 217 36 q 188 6 201 13 q 139 0 174 0 l 74 0 z "},"y":{"ha":792,"x_min":76,"x_max":700,"o":"m 394 -328 q 107 -193 188 -328 q 124 -124 76 -149 l 176 -94 q 216 -85 201 -82 q 246 -111 231 -89 q 392 -183 292 -183 q 539 -32 539 -183 l 539 33 q 374 14 456 14 q 156 86 228 14 q 85 293 85 158 l 85 678 q 94 710 85 701 q 126 719 103 719 l 203 719 q 236 710 226 719 q 246 678 246 701 l 246 299 q 397 161 246 161 q 539 181 464 161 l 539 678 q 549 710 539 701 q 582 719 558 719 l 657 719 q 691 710 682 719 q 700 678 700 701 l 700 -24 q 626 -247 700 -167 q 394 -328 551 -328 z "},"z":{"ha":675,"x_min":51,"x_max":624,"o":"m 94 0 q 61 10 71 0 q 51 43 51 19 l 51 103 q 67 146 51 129 l 407 574 l 101 574 q 68 583 78 574 q 58 617 58 593 l 58 678 q 68 710 58 701 q 101 719 78 719 l 574 719 q 607 710 597 719 q 617 678 617 701 l 617 617 q 600 571 617 592 l 257 146 l 581 146 q 614 136 604 146 q 624 103 624 126 l 624 43 q 614 10 624 19 q 581 0 604 0 l 94 0 z "},"{":{"ha":504,"x_min":24,"x_max":467,"o":"m 356 -357 q 203 -314 247 -357 q 160 -172 160 -271 l 160 138 q 69 253 160 253 l 60 253 q 24 296 24 253 l 24 375 q 58 418 24 418 l 69 418 q 160 535 160 418 l 160 850 q 203 992 160 947 q 353 1036 247 1036 l 424 1036 q 457 1026 447 1036 q 467 993 467 1017 l 467 932 q 457 899 467 908 q 424 890 447 890 l 358 890 q 313 842 313 890 l 313 511 q 214 336 313 394 q 313 160 313 296 l 313 -164 q 358 -211 313 -211 l 424 -211 q 457 -221 447 -211 q 467 -254 467 -231 l 467 -315 q 457 -348 467 -339 q 424 -357 447 -357 l 356 -357 z "},"|":{"ha":347,"x_min":96,"x_max":250,"o":"m 139 -204 q 106 -194 115 -204 q 96 -161 96 -185 l 96 1146 q 106 1179 96 1169 q 139 1189 115 1189 l 207 1189 q 241 1179 232 1189 q 250 1146 250 1169 l 250 -161 q 241 -194 250 -185 q 207 -204 232 -204 l 139 -204 z "},"}":{"ha":504,"x_min":38,"x_max":481,"o":"m 81 -357 q 47 -348 57 -357 q 38 -315 38 -339 l 38 -254 q 47 -221 38 -231 q 81 -211 57 -211 l 146 -211 q 192 -164 192 -211 l 192 160 q 290 336 192 296 q 192 511 192 394 l 192 842 q 146 890 192 890 l 81 890 q 47 899 57 890 q 38 932 38 908 l 38 993 q 47 1026 38 1017 q 81 1036 57 1036 l 151 1036 q 301 992 257 1036 q 344 850 344 947 l 344 535 q 435 418 344 418 l 446 418 q 481 375 481 418 l 481 296 q 444 253 481 253 l 435 253 q 344 138 344 253 l 344 -172 q 301 -314 344 -271 q 149 -357 257 -357 l 81 -357 z "},"~":{"ha":792,"x_min":67,"x_max":725,"o":"m 518 356 q 394 380 461 356 q 294 404 328 404 q 208 372 247 404 q 177 355 189 354 q 147 374 165 356 l 103 415 q 103 482 67 450 q 274 549 176 549 q 399 525 332 549 q 499 501 465 501 q 585 533 546 501 q 616 549 604 550 q 646 531 628 549 l 690 490 q 690 424 725 454 q 518 356 613 356 z "}," ":{"ha":324,"x_min":0,"x_max":0,"o":""},"¡":{"ha":343,"x_min":78,"x_max":267,"o":"m 167 729 l 176 729 q 247 710 228 729 q 267 640 267 692 l 267 628 q 247 558 267 576 q 176 539 228 539 l 167 539 q 97 558 115 539 q 78 628 78 576 l 78 640 q 97 710 78 692 q 167 729 115 729 m 150 436 l 194 436 q 227 426 218 436 q 238 393 236 417 l 256 -267 q 247 -299 257 -290 q 214 -308 238 -308 l 132 -308 q 99 -299 108 -308 q 90 -267 89 -290 l 108 393 q 117 426 108 417 q 150 436 126 436 z "},"¢":{"ha":765,"x_min":78,"x_max":713,"o":"m 354 -117 q 321 -107 331 -117 q 311 -74 311 -97 l 311 -15 q 136 74 194 1 q 78 264 78 146 l 78 456 q 136 643 78 571 q 311 733 194 715 l 311 804 q 321 838 311 828 q 354 847 331 847 l 431 847 q 464 838 454 847 q 474 804 474 828 l 474 733 q 693 558 644 706 q 664 496 710 514 l 603 476 q 565 474 578 467 q 540 506 551 481 q 390 599 504 599 q 239 463 239 599 l 239 257 q 278 156 239 192 q 390 121 317 121 q 542 217 506 121 q 564 247 551 242 q 603 244 576 253 l 665 226 q 694 164 713 208 q 474 -12 639 18 l 474 -74 q 464 -107 474 -97 q 431 -117 454 -117 l 354 -117 z "},"£":{"ha":917,"x_min":67,"x_max":856,"o":"m 113 0 q 76 10 86 0 q 67 47 67 21 l 67 117 q 94 156 67 156 l 103 156 q 182 296 182 178 l 182 394 l 119 394 q 82 404 92 394 q 72 442 72 414 l 72 497 q 83 534 72 524 q 119 544 93 544 l 182 544 l 182 715 q 267 922 182 838 q 504 1007 353 1007 q 846 796 765 1007 q 849 758 856 771 q 817 735 842 744 l 742 708 q 706 706 717 700 q 681 738 694 711 q 614 819 653 794 q 510 844 575 844 q 403 806 442 844 q 364 708 364 767 l 364 544 l 667 544 q 703 534 693 544 q 714 497 714 524 l 714 442 q 703 405 714 415 q 667 394 693 394 l 364 394 l 364 297 q 294 151 364 200 l 294 144 q 508 163 399 163 l 792 163 q 828 152 818 163 q 839 115 839 142 l 839 47 q 828 10 839 21 q 792 0 818 0 l 113 0 z "},"¤":{"ha":872,"x_min":67,"x_max":806,"o":"m 150 128 l 97 182 q 97 242 67 211 l 167 311 q 122 468 122 381 q 165 624 122 554 l 96 693 q 79 723 79 710 q 96 754 79 736 l 150 807 q 180 824 167 824 q 210 807 193 824 l 278 739 q 438 783 353 783 q 593 739 524 783 l 661 807 q 691 824 678 824 q 721 807 704 824 l 775 754 q 792 724 792 738 q 775 693 792 711 l 707 626 q 753 468 753 554 q 708 310 753 383 l 775 243 q 775 182 806 213 l 722 129 q 661 129 692 99 l 593 197 q 438 153 525 153 q 279 196 350 153 l 211 128 q 180 111 193 111 q 150 128 167 111 m 438 297 q 558 347 508 297 q 607 468 607 396 q 558 589 607 540 q 438 638 508 638 q 316 588 367 638 q 265 468 265 539 q 315 345 265 393 q 438 297 365 297 z "},"¥":{"ha":931,"x_min":40,"x_max":890,"o":"m 426 0 q 390 10 400 0 q 379 47 379 21 l 379 185 l 208 185 q 176 194 185 185 q 167 226 167 203 l 167 268 q 176 301 167 292 q 208 310 185 310 l 379 310 l 379 390 l 208 390 q 176 399 185 390 q 167 432 167 408 l 167 474 q 176 506 167 497 q 208 515 185 515 l 318 515 l 53 939 q 47 972 40 958 q 78 986 53 986 l 163 986 q 224 980 207 986 q 256 944 240 974 l 469 574 l 683 944 q 715 980 699 974 q 775 986 731 986 l 854 986 q 885 972 879 986 q 878 939 890 958 l 615 515 l 722 515 q 755 506 746 515 q 764 474 764 497 l 764 432 q 755 399 764 408 q 722 390 746 390 l 551 390 l 551 310 l 722 310 q 755 301 746 310 q 764 268 764 292 l 764 226 q 755 194 764 203 q 722 185 746 185 l 553 185 l 553 47 q 542 10 553 21 q 506 0 532 0 l 426 0 z "},"¦":{"ha":358,"x_min":103,"x_max":256,"o":"m 144 599 q 112 608 121 599 q 103 642 103 618 l 103 1146 q 112 1179 103 1169 q 144 1189 121 1189 l 214 1189 q 247 1179 238 1189 q 256 1146 256 1169 l 256 642 q 247 608 256 618 q 214 599 238 599 l 144 599 m 144 -203 q 112 -193 121 -203 q 103 -160 103 -183 l 103 344 q 112 378 103 368 q 144 388 121 388 l 214 388 q 247 378 238 388 q 256 344 256 368 l 256 -160 q 247 -193 256 -183 q 214 -203 238 -203 l 144 -203 z "},"§":{"ha":863,"x_min":58,"x_max":788,"o":"m 429 -304 q 205 -249 296 -304 q 76 -89 114 -193 q 108 -25 58 -42 l 176 0 q 217 3 203 10 q 242 -31 232 -4 q 429 -142 282 -142 q 614 -26 614 -142 q 586 33 614 11 q 526 63 558 56 q 433 76 494 69 q 214 117 275 93 q 75 329 75 172 q 190 525 75 451 q 90 728 90 589 q 178 931 90 854 q 436 1008 267 1008 q 768 807 681 1008 q 774 767 781 782 q 742 739 768 751 l 672 708 q 635 703 649 697 q 607 733 621 708 q 436 843 558 843 q 268 728 268 843 q 296 667 268 690 q 356 637 324 644 q 449 621 388 629 q 657 571 599 597 q 781 363 781 511 q 688 181 781 251 q 788 -25 788 122 q 695 -228 788 -151 q 429 -304 603 -304 m 535 229 q 606 346 606 274 q 591 395 606 375 q 545 427 576 415 q 487 444 514 439 q 411 457 460 450 q 377 463 406 458 q 333 469 349 467 q 253 353 253 428 q 267 297 253 319 q 315 263 282 275 q 376 247 349 251 q 456 238 404 242 l 535 229 z "},"¨":{"ha":631,"x_min":94,"x_max":528,"o":"m 167 828 q 110 844 126 828 q 94 900 94 860 l 94 913 q 110 969 94 953 q 167 985 126 985 l 176 985 q 234 969 218 985 q 250 913 250 953 l 250 900 q 234 844 250 860 q 176 828 218 828 l 167 828 m 446 828 q 388 844 404 828 q 372 900 372 860 l 372 913 q 388 969 372 953 q 446 985 404 985 l 456 985 q 512 969 496 985 q 528 913 528 953 l 528 900 q 512 844 528 860 q 456 828 496 828 l 446 828 z "},"©":{"ha":1131,"x_min":67,"x_max":1064,"o":"m 567 -11 q 199 121 331 -11 q 67 488 67 253 q 199 854 67 722 q 567 986 331 986 q 933 854 801 986 q 1064 488 1064 722 q 933 121 1064 253 q 567 -11 801 -11 m 567 83 q 862 190 756 83 q 968 488 968 297 q 863 784 968 678 q 567 890 757 890 q 269 784 376 890 q 163 488 163 678 q 269 190 163 297 q 567 83 376 83 m 564 218 q 409 269 464 218 q 354 411 354 321 l 354 558 q 409 700 354 649 q 564 751 464 751 q 765 626 721 751 q 767 598 771 607 q 743 582 763 589 l 706 568 q 678 566 688 561 q 663 590 668 571 q 629 635 651 622 q 564 647 607 647 q 463 560 463 647 l 463 411 q 489 344 463 368 q 564 321 515 321 q 663 381 642 321 q 708 403 678 415 l 744 389 q 765 344 778 376 q 564 218 717 218 z "},"ª":{"ha":519,"x_min":75,"x_max":438,"o":"m 257 493 q 115 526 156 493 q 75 622 75 558 q 116 720 75 688 q 260 753 157 753 q 315 750 288 753 l 315 769 q 302 814 315 800 q 257 828 289 828 q 188 793 222 828 q 144 786 168 778 l 111 804 q 83 826 88 815 q 90 856 78 838 q 260 931 144 931 q 397 885 356 931 q 438 758 438 840 l 438 581 q 428 538 438 551 q 394 514 419 525 q 257 493 346 493 m 250 588 q 307 592 290 588 q 315 606 315 597 l 315 663 q 253 665 279 665 q 196 626 196 665 q 208 596 196 604 q 250 588 221 588 z "},"«":{"ha":839,"x_min":38,"x_max":779,"o":"m 319 79 l 61 338 q 61 392 38 364 l 326 657 q 379 657 354 685 l 426 608 q 442 582 442 593 q 426 556 442 571 l 240 368 l 425 185 q 425 131 451 158 l 374 79 q 319 79 346 54 m 649 79 l 390 338 q 375 365 375 353 q 390 392 375 376 l 654 657 q 708 657 681 683 l 756 608 q 769 582 769 593 q 756 556 769 571 l 568 368 l 753 185 q 753 131 779 158 l 703 79 q 675 65 686 65 q 649 79 664 65 z "},"¬":{"ha":836,"x_min":82,"x_max":743,"o":"m 625 193 q 592 203 601 193 q 582 236 582 213 l 582 421 l 125 421 q 92 430 101 421 q 82 463 82 439 l 82 528 q 92 561 82 551 q 125 571 101 571 l 700 571 q 733 561 724 571 q 743 528 743 551 l 743 236 q 733 203 743 213 q 700 193 724 193 l 625 193 z "},"®":{"ha":669,"x_min":65,"x_max":604,"o":"m 336 447 q 137 518 208 447 q 65 717 65 589 q 137 915 65 844 q 336 986 208 986 q 533 915 463 986 q 604 717 604 843 q 533 519 604 590 q 336 447 463 447 m 338 507 q 490 563 435 507 q 544 717 544 618 q 490 870 544 815 q 338 925 436 925 q 183 870 239 925 q 128 717 128 815 q 183 563 128 618 q 338 507 239 507 m 247 582 q 231 597 231 582 l 231 835 q 234 849 231 846 q 249 851 238 851 l 363 851 q 432 827 406 851 q 458 760 458 803 q 403 678 458 696 l 447 606 q 435 582 464 582 l 404 582 q 376 596 386 582 l 333 671 l 293 671 l 293 597 q 290 585 293 588 q 278 582 288 582 l 247 582 m 293 728 l 358 728 q 393 760 393 728 q 358 792 393 792 l 293 792 l 293 728 z "},"¯":{"ha":510,"x_min":56,"x_max":457,"o":"m 96 851 q 64 860 72 851 q 56 892 56 868 l 56 928 q 65 960 56 951 q 96 968 74 968 l 417 968 q 449 960 440 968 q 457 928 457 951 l 457 892 q 449 860 457 868 q 417 851 440 851 l 96 851 z "},"°":{"ha":572,"x_min":58,"x_max":513,"o":"m 286 543 q 125 610 192 543 q 58 771 58 676 q 124 932 58 867 q 286 997 190 997 q 447 932 381 997 q 513 771 513 867 q 446 611 513 679 q 286 543 379 543 m 286 671 q 357 700 328 671 q 386 769 386 729 q 357 841 386 811 q 286 871 328 871 q 216 840 246 871 q 186 769 186 810 q 216 700 186 729 q 286 671 246 671 z "},"±":{"ha":847,"x_min":96,"x_max":751,"o":"m 397 325 q 360 335 371 325 q 350 372 350 346 l 350 481 l 143 481 q 106 491 117 481 q 96 528 96 501 l 96 571 q 106 608 96 597 q 143 618 117 618 l 350 618 l 350 732 q 360 769 350 758 q 397 779 371 779 l 449 779 q 485 769 475 779 q 496 732 496 758 l 496 618 l 704 618 q 741 608 731 618 q 751 571 751 597 l 751 528 q 741 491 751 501 q 704 481 731 481 l 496 481 l 496 372 q 485 335 496 346 q 449 325 475 325 l 397 325 m 143 119 q 106 131 117 119 q 96 168 96 142 l 96 211 q 106 248 96 238 q 143 258 117 258 l 704 258 q 741 248 731 258 q 751 211 751 238 l 751 168 q 741 131 751 142 q 704 119 731 119 l 143 119 z "},"´":{"ha":378,"x_min":24,"x_max":375,"o":"m 111 818 q 57 821 71 803 l 38 846 q 24 873 24 864 q 40 892 25 882 l 244 1014 q 324 1011 297 1043 l 358 968 q 372 947 369 956 q 371 932 375 939 q 353 919 367 925 l 111 818 z "},"µ":{"ha":797,"x_min":92,"x_max":708,"o":"m 135 -306 q 101 -296 111 -306 q 92 -262 92 -286 l 92 678 q 101 710 92 701 q 135 719 111 719 l 210 719 q 243 710 233 719 q 253 678 253 701 l 253 263 q 404 126 253 126 q 532 144 475 126 q 547 165 547 147 l 547 678 q 556 710 547 701 q 589 719 565 719 l 665 719 q 699 710 689 719 q 708 678 708 701 l 708 106 q 697 57 708 72 q 654 28 686 42 q 418 -21 535 -21 q 253 29 307 -21 l 253 -262 q 243 -296 253 -286 q 210 -306 233 -306 l 135 -306 z "},"¶":{"ha":815,"x_min":54,"x_max":713,"o":"m 376 -124 q 343 -114 353 -124 q 333 -81 333 -104 l 333 408 q 131 490 208 411 q 54 696 54 569 q 134 906 54 825 q 343 986 214 986 l 671 986 q 703 976 694 986 q 713 943 713 967 l 713 -81 q 703 -114 713 -104 q 671 -124 694 -124 l 606 -124 q 573 -114 582 -124 q 564 -81 564 -104 l 564 825 l 483 825 l 483 -81 q 474 -114 483 -104 q 440 -124 464 -124 l 376 -124 z "},"·":{"ha":369,"x_min":90,"x_max":279,"o":"m 179 299 q 110 318 129 299 q 90 389 90 338 l 90 401 q 110 472 90 453 q 179 490 129 490 l 190 490 q 260 472 242 490 q 279 401 279 453 l 279 389 q 260 318 279 338 q 190 299 242 299 l 179 299 z "},"¸":{"ha":369,"x_min":35,"x_max":351,"o":"m 160 -340 q 58 -322 94 -340 q 36 -283 36 -312 l 35 -242 q 56 -225 35 -214 q 139 -247 97 -247 q 207 -197 207 -247 q 147 -157 207 -158 q 114 -158 125 -157 q 92 -151 96 -160 q 94 -125 88 -143 l 147 0 l 243 0 l 213 -81 q 231 -79 219 -79 q 318 -115 285 -79 q 346 -204 351 -151 q 160 -340 333 -340 z "},"º":{"ha":526,"x_min":74,"x_max":453,"o":"m 263 494 q 123 539 172 494 q 74 663 74 583 l 74 761 q 123 885 74 840 q 263 931 172 931 q 403 885 354 931 q 453 761 453 840 l 453 663 q 404 539 453 583 q 263 494 356 494 m 263 607 q 324 658 324 607 l 324 767 q 263 818 324 818 q 203 767 203 818 l 203 658 q 263 607 203 607 z "},"»":{"ha":839,"x_min":60,"x_max":792,"o":"m 465 79 l 415 131 q 415 185 388 158 l 599 368 l 413 556 q 397 582 397 571 q 413 608 397 593 l 460 657 q 514 657 486 686 l 778 392 q 792 365 792 376 q 778 338 792 353 l 519 79 q 465 79 493 54 m 136 79 l 86 131 q 86 185 60 158 l 271 368 l 83 556 q 69 583 69 571 q 83 608 69 594 l 131 657 q 185 657 158 683 l 449 392 q 464 365 464 376 q 449 338 464 353 l 190 79 q 136 79 164 53 z "},"¼":{"ha":1136,"x_min":35,"x_max":1079,"o":"m 181 0 q 149 14 156 0 q 157 47 143 28 l 818 947 q 852 979 838 972 q 904 986 867 986 l 965 986 q 995 972 989 986 q 989 940 1001 958 l 328 42 q 292 7 307 14 q 235 0 276 0 l 181 0 m 268 436 q 231 446 242 436 q 221 483 221 456 l 221 815 l 143 771 q 75 788 100 747 l 56 821 q 78 885 35 863 l 228 971 q 282 985 250 985 l 308 985 q 345 974 335 985 q 356 938 356 964 l 356 483 q 346 446 356 456 q 308 436 336 436 l 268 436 m 922 0 q 893 8 900 0 q 886 39 886 15 l 886 115 l 650 115 q 618 124 626 115 q 610 157 610 132 l 610 190 q 622 233 610 217 l 858 525 q 881 544 871 540 q 914 549 892 549 l 972 549 q 1006 542 999 549 q 1013 507 1013 535 l 1013 228 l 1039 228 q 1072 221 1065 228 q 1079 192 1079 214 l 1079 153 q 1072 122 1079 128 q 1039 115 1065 115 l 1013 115 l 1013 39 q 1005 8 1013 15 q 975 0 997 0 l 922 0 m 761 228 l 886 228 l 886 381 l 761 228 z "},"½":{"ha":1182,"x_min":35,"x_max":1118,"o":"m 268 444 q 231 455 242 444 q 221 492 221 465 l 221 824 l 142 781 q 75 797 100 758 l 56 829 q 78 894 35 869 l 228 981 q 282 994 249 994 l 308 994 q 345 984 335 994 q 356 947 356 974 l 356 492 q 345 455 356 465 q 308 444 335 444 l 268 444 m 168 0 q 137 14 143 0 q 144 47 131 28 l 806 947 q 840 979 825 972 q 893 986 854 986 l 954 986 q 983 972 978 986 q 976 940 989 958 l 315 42 q 279 7 294 14 q 222 0 264 0 l 168 0 m 751 0 q 708 42 708 0 l 708 83 q 733 199 708 158 q 825 267 758 240 l 901 297 q 945 315 932 308 q 969 337 958 322 q 979 375 979 351 q 963 416 979 400 q 918 432 946 432 q 842 379 867 432 q 819 347 829 353 q 782 350 808 342 l 743 364 q 714 425 696 381 q 919 560 765 560 q 1065 509 1013 560 q 1118 381 1118 458 q 1084 263 1118 304 q 965 196 1050 222 l 889 174 q 839 136 839 160 l 839 124 l 1068 124 q 1101 114 1092 124 q 1110 82 1110 104 l 1110 40 q 1101 10 1110 19 q 1068 0 1092 0 l 751 0 z "},"¾":{"ha":1179,"x_min":47,"x_max":1126,"o":"m 276 435 q 61 568 108 435 q 58 608 53 596 q 83 628 63 621 l 122 642 q 159 644 146 650 q 183 613 172 638 q 276 557 203 557 q 350 608 350 557 q 294 663 350 663 l 242 663 q 208 670 215 663 q 200 704 200 678 l 200 739 q 208 776 200 769 q 246 783 215 783 l 286 783 q 340 833 340 783 q 279 886 340 886 q 188 831 208 886 q 163 794 176 801 q 117 799 149 788 l 92 808 q 63 868 47 824 q 276 1006 110 1006 q 417 963 367 1006 q 467 849 467 921 q 454 779 467 806 q 408 733 442 753 q 483 593 483 696 q 431 476 483 518 q 276 435 379 435 m 226 0 q 195 14 201 0 q 203 47 189 28 l 865 947 q 899 979 885 972 q 951 986 914 986 l 1013 986 q 1042 972 1036 986 q 1035 940 1047 958 l 375 42 q 339 7 354 14 q 282 0 324 0 l 226 0 m 969 0 q 940 8 947 0 q 933 39 933 15 l 933 115 l 697 115 q 665 124 674 115 q 657 157 657 132 l 657 190 q 669 233 657 217 l 906 525 q 928 544 918 540 q 961 549 939 549 l 1019 549 q 1053 542 1046 549 q 1060 507 1060 535 l 1060 228 l 1086 228 q 1119 221 1113 228 q 1126 192 1126 214 l 1126 153 q 1119 122 1126 128 q 1086 115 1113 115 l 1060 115 l 1060 39 q 1052 8 1060 15 q 1022 0 1044 0 l 969 0 m 808 228 l 933 228 l 933 381 l 808 228 z "},"¿":{"ha":803,"x_min":47,"x_max":761,"o":"m 439 729 q 508 710 489 729 q 528 639 528 690 l 528 626 q 508 557 528 576 q 439 538 489 538 l 428 538 q 358 557 376 538 q 339 626 339 576 l 339 639 q 358 710 339 690 q 428 729 376 729 l 439 729 m 461 461 q 497 451 486 461 q 507 417 507 442 q 472 278 507 328 q 372 185 438 228 q 348 169 368 182 q 322 153 328 157 q 300 138 317 150 q 277 119 283 126 q 259 100 271 113 q 242 77 247 88 q 231 52 238 67 q 222 21 224 38 q 219 -14 219 4 q 265 -117 219 -78 q 393 -156 310 -156 q 520 -123 474 -156 q 594 -25 567 -90 q 618 8 606 1 q 656 4 631 14 l 722 -19 q 754 -41 747 -28 q 751 -79 761 -54 q 389 -308 663 -308 q 140 -226 232 -308 q 47 -21 47 -144 q 54 58 47 22 q 78 124 61 94 q 108 173 94 153 q 148 214 121 193 q 189 244 175 235 q 235 272 203 254 q 275 296 267 290 q 340 350 318 324 q 363 417 363 376 q 372 452 363 443 q 407 461 382 461 l 461 461 z "},"À":{"ha":935,"x_min":6,"x_max":925,"o":"m 560 1061 l 317 1161 q 299 1173 303 1167 q 297 1188 294 1179 q 311 1208 300 1196 l 347 1253 q 425 1256 374 1283 l 631 1133 q 633 1089 658 1119 l 614 1063 q 560 1061 600 1046 m 56 0 q 25 46 6 0 l 371 949 q 392 980 381 972 q 429 988 404 988 l 503 988 q 541 980 528 988 q 561 950 554 972 l 908 46 q 878 0 925 0 l 806 0 q 744 8 761 0 q 719 42 726 17 l 654 221 l 272 221 l 206 42 q 181 8 197 17 q 119 0 164 0 l 56 0 m 321 364 l 606 364 l 500 657 q 468 826 468 751 l 457 826 q 428 658 457 743 l 321 364 z "},"Á":{"ha":935,"x_min":6,"x_max":925,"o":"m 381 1060 q 326 1061 340 1044 l 307 1088 q 310 1132 282 1118 l 514 1256 q 593 1253 565 1283 l 628 1208 q 642 1188 639 1196 q 640 1173 644 1179 q 622 1161 636 1167 l 381 1060 m 56 0 q 25 46 6 0 l 371 949 q 392 980 381 972 q 429 988 404 988 l 503 988 q 541 980 528 988 q 561 950 554 972 l 908 46 q 878 0 925 0 l 806 0 q 744 8 761 0 q 719 42 726 17 l 654 221 l 272 221 l 206 42 q 181 8 197 17 q 119 0 164 0 l 56 0 m 321 364 l 606 364 l 500 657 q 468 826 468 751 l 457 826 q 428 658 457 743 l 321 364 z "},"Â":{"ha":935,"x_min":6,"x_max":925,"o":"m 260 1054 q 230 1065 235 1054 q 239 1089 225 1075 l 381 1225 q 419 1256 406 1250 q 463 1263 432 1263 l 479 1263 q 517 1257 504 1263 q 556 1225 531 1251 l 697 1089 q 706 1065 711 1075 q 676 1054 701 1054 l 614 1054 q 546 1079 568 1054 l 467 1158 l 382 1079 q 356 1058 367 1063 q 317 1054 344 1054 l 260 1054 m 56 0 q 25 46 6 0 l 371 949 q 392 980 381 972 q 429 988 404 988 l 503 988 q 541 980 528 988 q 561 950 554 972 l 908 46 q 878 0 925 0 l 806 0 q 744 8 761 0 q 719 42 726 17 l 654 221 l 272 221 l 206 42 q 181 8 197 17 q 119 0 164 0 l 56 0 m 321 364 l 606 364 l 500 657 q 468 826 468 751 l 457 826 q 428 658 457 743 l 321 364 z "},"Ã":{"ha":935,"x_min":6,"x_max":925,"o":"m 272 1063 q 246 1089 246 1063 q 274 1208 246 1172 q 361 1243 303 1243 q 467 1203 414 1243 q 544 1164 519 1164 q 576 1217 576 1164 q 601 1243 576 1243 l 646 1243 q 672 1217 672 1243 q 644 1098 672 1133 q 556 1063 617 1063 q 454 1102 507 1063 q 376 1142 401 1142 q 343 1089 343 1142 q 318 1063 343 1063 l 272 1063 m 56 0 q 25 46 6 0 l 371 949 q 392 980 381 972 q 429 988 404 988 l 503 988 q 541 980 528 988 q 561 950 554 972 l 908 46 q 878 0 925 0 l 806 0 q 744 8 761 0 q 719 42 726 17 l 654 221 l 272 221 l 206 42 q 181 8 197 17 q 119 0 164 0 l 56 0 m 321 364 l 606 364 l 500 657 q 468 826 468 751 l 457 826 q 428 658 457 743 l 321 364 z "},"Ä":{"ha":935,"x_min":6,"x_max":925,"o":"m 322 1075 q 266 1091 282 1075 q 250 1147 250 1107 l 250 1161 q 266 1217 250 1201 q 322 1232 282 1232 l 332 1232 q 390 1217 374 1232 q 406 1161 406 1201 l 406 1147 q 390 1091 406 1107 q 332 1075 374 1075 l 322 1075 m 601 1075 q 544 1091 560 1075 q 528 1147 528 1107 l 528 1161 q 544 1217 528 1201 q 601 1232 560 1232 l 611 1232 q 667 1217 651 1232 q 683 1161 683 1201 l 683 1147 q 667 1091 683 1107 q 611 1075 651 1075 l 601 1075 m 56 0 q 25 46 6 0 l 371 949 q 392 980 381 972 q 429 988 404 988 l 503 988 q 541 980 528 988 q 561 950 554 972 l 908 46 q 878 0 925 0 l 806 0 q 744 8 761 0 q 719 42 726 17 l 654 221 l 272 221 l 206 42 q 181 8 197 17 q 119 0 164 0 l 56 0 m 321 364 l 606 364 l 500 657 q 468 826 468 751 l 457 826 q 428 658 457 743 l 321 364 z "},"Å":{"ha":935,"x_min":6,"x_max":925,"o":"m 56 0 q 25 46 6 0 l 365 932 q 297 1063 297 974 q 346 1185 297 1138 q 471 1232 394 1232 q 592 1185 544 1232 q 639 1063 639 1138 q 569 929 639 972 l 908 46 q 878 0 925 0 l 806 0 q 744 8 761 0 q 719 42 726 17 l 654 221 l 272 221 l 206 42 q 181 8 197 17 q 119 0 164 0 l 56 0 m 471 990 q 523 1010 503 990 q 543 1063 543 1031 q 523 1116 543 1096 q 471 1136 503 1136 q 413 1116 435 1136 q 392 1063 392 1096 q 414 1010 392 1031 q 471 990 436 990 m 321 364 l 606 364 l 500 657 q 468 826 468 751 l 457 826 q 428 658 457 743 l 321 364 z "},"Æ":{"ha":1211,"x_min":-8,"x_max":1157,"o":"m 40 0 q 10 46 -8 0 l 575 947 q 601 978 590 971 q 635 986 611 986 l 1094 986 q 1131 976 1121 986 q 1142 939 1142 965 l 1142 871 q 1131 834 1142 844 q 1094 824 1121 824 l 761 824 l 761 581 l 1028 581 q 1065 570 1054 581 q 1075 533 1075 560 l 1075 465 q 1065 428 1075 439 q 1028 418 1054 418 l 761 418 l 761 163 l 1110 163 q 1147 152 1136 163 q 1157 115 1157 142 l 1157 47 q 1147 10 1157 21 q 1110 0 1136 0 l 640 0 q 603 10 614 0 q 593 47 593 21 l 593 207 l 301 207 l 203 42 q 172 9 188 18 q 115 0 156 0 l 40 0 m 388 350 l 593 350 l 593 693 l 388 350 z "},"Ç":{"ha":908,"x_min":78,"x_max":869,"o":"m 440 -340 q 339 -322 374 -340 q 315 -283 315 -311 l 314 -242 q 336 -225 314 -214 q 419 -247 378 -247 q 488 -197 488 -247 q 428 -157 488 -158 q 394 -158 404 -157 q 372 -151 376 -160 q 375 -125 368 -143 l 419 -18 q 167 90 256 -4 q 78 342 78 185 l 78 646 q 181 910 78 814 q 475 1007 285 1007 q 853 775 774 1007 q 824 714 869 731 l 749 688 q 710 685 722 679 q 688 717 697 692 q 475 844 642 844 q 310 794 368 844 q 253 647 253 743 l 253 340 q 310 193 253 244 q 475 142 368 142 q 689 271 640 142 q 711 303 699 297 q 749 300 724 310 l 824 274 q 854 213 869 257 q 515 -19 779 -4 l 492 -81 q 510 -79 497 -79 q 599 -115 565 -79 q 626 -204 632 -151 q 440 -340 614 -340 z "},"È":{"ha":825,"x_min":107,"x_max":769,"o":"m 524 1061 l 281 1161 q 263 1173 267 1167 q 261 1188 258 1179 q 275 1208 264 1196 l 311 1253 q 389 1256 338 1283 l 594 1133 q 597 1089 622 1119 l 578 1063 q 524 1061 564 1046 m 154 0 q 117 10 128 0 q 107 47 107 21 l 107 939 q 117 976 107 965 q 154 986 128 986 l 707 986 q 744 976 733 986 q 754 939 754 965 l 754 871 q 744 834 754 844 q 707 824 733 824 l 281 824 l 281 581 l 640 581 q 677 570 667 581 q 688 533 688 560 l 688 465 q 677 428 688 439 q 640 418 667 418 l 281 418 l 281 163 l 722 163 q 759 152 749 163 q 769 115 769 142 l 769 47 q 759 10 769 21 q 722 0 749 0 l 154 0 z "},"É":{"ha":825,"x_min":107,"x_max":769,"o":"m 344 1060 q 290 1061 304 1044 l 271 1088 q 274 1132 246 1118 l 478 1256 q 557 1253 529 1283 l 592 1208 q 606 1188 603 1196 q 604 1173 608 1179 q 586 1161 600 1167 l 344 1060 m 154 0 q 117 10 128 0 q 107 47 107 21 l 107 939 q 117 976 107 965 q 154 986 128 986 l 707 986 q 744 976 733 986 q 754 939 754 965 l 754 871 q 744 834 754 844 q 707 824 733 824 l 281 824 l 281 581 l 640 581 q 677 570 667 581 q 688 533 688 560 l 688 465 q 677 428 688 439 q 640 418 667 418 l 281 418 l 281 163 l 722 163 q 759 152 749 163 q 769 115 769 142 l 769 47 q 759 10 769 21 q 722 0 749 0 l 154 0 z "},"Ê":{"ha":825,"x_min":107,"x_max":769,"o":"m 225 1054 q 195 1065 200 1054 q 204 1089 190 1075 l 346 1225 q 384 1256 371 1250 q 428 1263 397 1263 l 444 1263 q 483 1257 469 1263 q 521 1225 496 1251 l 663 1089 q 672 1065 676 1075 q 642 1054 667 1054 l 579 1054 q 511 1079 533 1054 l 432 1158 l 347 1079 q 321 1058 332 1063 q 282 1054 310 1054 l 225 1054 m 154 0 q 117 10 128 0 q 107 47 107 21 l 107 939 q 117 976 107 965 q 154 986 128 986 l 707 986 q 744 976 733 986 q 754 939 754 965 l 754 871 q 744 834 754 844 q 707 824 733 824 l 281 824 l 281 581 l 640 581 q 677 570 667 581 q 688 533 688 560 l 688 465 q 677 428 688 439 q 640 418 667 418 l 281 418 l 281 163 l 722 163 q 759 152 749 163 q 769 115 769 142 l 769 47 q 759 10 769 21 q 722 0 749 0 l 154 0 z "},"Ë":{"ha":825,"x_min":107,"x_max":769,"o":"m 286 1075 q 230 1091 246 1075 q 214 1147 214 1107 l 214 1161 q 230 1217 214 1201 q 286 1232 246 1232 l 296 1232 q 353 1217 338 1232 q 369 1161 369 1201 l 369 1147 q 353 1091 369 1107 q 296 1075 338 1075 l 286 1075 m 565 1075 q 508 1091 524 1075 q 492 1147 492 1107 l 492 1161 q 508 1217 492 1201 q 565 1232 524 1232 l 575 1232 q 631 1217 615 1232 q 647 1161 647 1201 l 647 1147 q 631 1091 647 1107 q 575 1075 615 1075 l 565 1075 m 154 0 q 117 10 128 0 q 107 47 107 21 l 107 939 q 117 976 107 965 q 154 986 128 986 l 707 986 q 744 976 733 986 q 754 939 754 965 l 754 871 q 744 834 754 844 q 707 824 733 824 l 281 824 l 281 581 l 640 581 q 677 570 667 581 q 688 533 688 560 l 688 465 q 677 428 688 439 q 640 418 667 418 l 281 418 l 281 163 l 722 163 q 759 152 749 163 q 769 115 769 142 l 769 47 q 759 10 769 21 q 722 0 749 0 l 154 0 z "},"Ì":{"ha":388,"x_min":21,"x_max":385,"o":"m 286 1061 l 43 1161 q 25 1173 29 1167 q 24 1188 21 1179 q 38 1208 26 1196 l 74 1253 q 151 1256 100 1283 l 357 1133 q 360 1089 385 1119 l 340 1063 q 286 1061 326 1046 m 154 0 q 117 10 128 0 q 107 47 107 21 l 107 939 q 117 976 107 965 q 154 986 128 986 l 233 986 q 270 976 260 986 q 281 939 281 965 l 281 47 q 270 10 281 21 q 233 0 260 0 l 154 0 z "},"Í":{"ha":388,"x_min":8,"x_max":371,"o":"m 107 1060 q 53 1061 67 1044 l 33 1088 q 36 1132 8 1118 l 240 1256 q 319 1253 292 1283 l 354 1208 q 368 1188 365 1196 q 367 1173 371 1179 q 349 1161 363 1167 l 107 1060 m 154 0 q 117 10 128 0 q 107 47 107 21 l 107 939 q 117 976 107 965 q 154 986 128 986 l 233 986 q 270 976 260 986 q 281 939 281 965 l 281 47 q 270 10 281 21 q 233 0 260 0 l 154 0 z "},"Î":{"ha":388,"x_min":-47,"x_max":439,"o":"m -12 1054 q -42 1065 -37 1054 q -33 1089 -47 1075 l 108 1225 q 147 1256 133 1250 q 190 1263 160 1263 l 207 1263 q 245 1257 232 1263 q 283 1225 258 1251 l 425 1089 q 434 1065 439 1075 q 404 1054 429 1054 l 342 1054 q 274 1079 296 1054 l 194 1158 l 110 1079 q 83 1058 94 1063 q 44 1054 72 1054 l -12 1054 m 154 0 q 117 10 128 0 q 107 47 107 21 l 107 939 q 117 976 107 965 q 154 986 128 986 l 233 986 q 270 976 260 986 q 281 939 281 965 l 281 47 q 270 10 281 21 q 233 0 260 0 l 154 0 z "},"Ï":{"ha":388,"x_min":-22,"x_max":411,"o":"m 50 1075 q -6 1091 10 1075 q -22 1147 -22 1107 l -22 1161 q -6 1217 -22 1201 q 50 1232 10 1232 l 60 1232 q 117 1217 101 1232 q 133 1161 133 1201 l 133 1147 q 117 1091 133 1107 q 60 1075 101 1075 l 50 1075 m 329 1075 q 272 1091 288 1075 q 256 1147 256 1107 l 256 1161 q 272 1217 256 1201 q 329 1232 288 1232 l 339 1232 q 395 1217 379 1232 q 411 1161 411 1201 l 411 1147 q 395 1091 411 1107 q 339 1075 379 1075 l 329 1075 m 154 0 q 117 10 128 0 q 107 47 107 21 l 107 939 q 117 976 107 965 q 154 986 128 986 l 233 986 q 270 976 260 986 q 281 939 281 965 l 281 47 q 270 10 281 21 q 233 0 260 0 l 154 0 z "},"Ð":{"ha":967,"x_min":18,"x_max":890,"o":"m 175 0 q 138 10 149 0 q 128 47 128 21 l 128 453 l 46 453 q 24 459 29 453 q 18 483 18 465 l 18 535 q 46 565 18 565 l 128 565 l 128 939 q 138 976 128 965 q 175 986 149 986 l 488 986 q 785 888 679 986 q 890 619 890 790 l 890 367 q 785 98 890 196 q 488 0 679 0 l 175 0 m 301 163 l 489 163 q 657 215 599 163 q 715 365 715 267 l 715 621 q 657 772 715 719 q 489 824 599 824 l 301 824 l 301 565 l 488 565 q 509 559 503 565 q 515 535 515 553 l 515 483 q 510 459 515 465 q 488 453 504 453 l 301 453 l 301 163 z "},"Ñ":{"ha":986,"x_min":107,"x_max":881,"o":"m 301 1063 q 275 1089 275 1063 q 303 1208 275 1172 q 390 1243 332 1243 q 496 1203 443 1243 q 574 1164 549 1164 q 606 1217 606 1164 q 631 1243 606 1243 l 675 1243 q 701 1217 701 1243 q 674 1098 701 1133 q 585 1063 646 1063 q 483 1102 536 1063 q 406 1142 431 1142 q 372 1089 372 1142 q 347 1063 372 1063 l 301 1063 m 154 0 q 117 10 128 0 q 107 47 107 21 l 107 939 q 117 976 107 965 q 154 986 128 986 l 233 986 q 279 964 264 986 l 617 464 q 676 361 649 417 q 717 267 703 306 q 733 228 732 229 l 742 228 q 735 272 742 231 q 720 380 728 314 q 713 508 713 446 l 713 939 q 723 976 713 965 q 760 986 733 986 l 833 986 q 870 976 860 986 q 881 939 881 965 l 881 47 q 870 10 881 21 q 833 0 860 0 l 754 0 q 707 24 721 0 l 367 526 q 311 626 338 569 q 269 720 285 682 q 253 760 254 758 l 244 760 q 252 716 244 758 q 267 608 260 674 q 275 483 275 542 l 275 47 q 265 10 275 21 q 228 0 254 0 l 154 0 z "},"Ò":{"ha":950,"x_min":78,"x_max":872,"o":"m 568 1075 l 325 1175 q 307 1187 311 1181 q 306 1201 303 1193 q 319 1222 308 1210 l 356 1267 q 433 1269 382 1297 l 639 1147 q 642 1103 667 1133 l 622 1076 q 568 1075 608 1060 m 769 76 q 717 27 769 76 q 475 -21 665 -21 q 181 76 285 -21 q 78 342 78 172 l 78 644 q 181 910 78 814 q 475 1007 285 1007 q 769 910 665 1007 q 872 644 872 814 l 872 342 q 769 76 872 172 m 310 192 q 339 167 310 192 q 475 142 368 142 q 640 192 582 142 q 697 340 697 243 l 697 646 q 640 794 697 743 q 475 844 582 844 q 310 794 368 844 q 253 646 253 743 l 253 340 q 310 192 253 243 z "},"Ó":{"ha":950,"x_min":78,"x_max":872,"o":"m 389 1074 q 335 1075 349 1058 l 315 1101 q 318 1146 290 1132 l 522 1269 q 601 1267 574 1297 l 636 1222 q 650 1201 647 1210 q 649 1187 653 1193 q 631 1175 644 1181 l 389 1074 m 769 76 q 717 27 769 76 q 475 -21 665 -21 q 181 76 285 -21 q 78 342 78 172 l 78 644 q 181 910 78 814 q 475 1007 285 1007 q 769 910 665 1007 q 872 644 872 814 l 872 342 q 769 76 872 172 m 310 192 q 339 167 310 192 q 475 142 368 142 q 640 192 582 142 q 697 340 697 243 l 697 646 q 640 794 697 743 q 475 844 582 844 q 310 794 368 844 q 253 646 253 743 l 253 340 q 310 192 253 243 z "},"Ô":{"ha":950,"x_min":78,"x_max":872,"o":"m 268 1068 q 238 1078 243 1068 q 247 1103 233 1089 l 389 1239 q 427 1270 414 1264 q 471 1276 440 1276 l 488 1276 q 526 1271 513 1276 q 564 1239 539 1265 l 706 1103 q 715 1078 719 1089 q 685 1068 710 1068 l 622 1068 q 554 1093 576 1068 l 475 1172 l 390 1093 q 364 1072 375 1076 q 325 1068 353 1068 l 268 1068 m 769 76 q 717 27 769 76 q 475 -21 665 -21 q 181 76 285 -21 q 78 342 78 172 l 78 644 q 181 910 78 814 q 475 1007 285 1007 q 769 910 665 1007 q 872 644 872 814 l 872 342 q 769 76 872 172 m 310 192 q 339 167 310 192 q 475 142 368 142 q 640 192 582 142 q 697 340 697 243 l 697 646 q 640 794 697 743 q 475 844 582 844 q 310 794 368 844 q 253 646 253 743 l 253 340 q 310 192 253 243 z "},"Õ":{"ha":950,"x_min":78,"x_max":872,"o":"m 282 1076 q 256 1103 256 1076 q 284 1222 256 1186 q 371 1257 313 1257 q 476 1217 424 1257 q 554 1178 529 1178 q 586 1231 586 1178 q 611 1257 586 1257 l 656 1257 q 682 1231 682 1257 q 654 1112 682 1147 q 565 1076 626 1076 q 464 1116 517 1076 q 386 1156 411 1156 q 353 1103 353 1156 q 328 1076 353 1076 l 282 1076 m 769 76 q 717 27 769 76 q 475 -21 665 -21 q 181 76 285 -21 q 78 342 78 172 l 78 644 q 181 910 78 814 q 475 1007 285 1007 q 769 910 665 1007 q 872 644 872 814 l 872 342 q 769 76 872 172 m 310 192 q 339 167 310 192 q 475 142 368 142 q 640 192 582 142 q 697 340 697 243 l 697 646 q 640 794 697 743 q 475 844 582 844 q 310 794 368 844 q 253 646 253 743 l 253 340 q 310 192 253 243 z "},"Ö":{"ha":950,"x_min":78,"x_max":872,"o":"m 331 1089 q 274 1105 290 1089 q 258 1161 258 1121 l 258 1175 q 274 1231 258 1215 q 331 1246 290 1246 l 340 1246 q 398 1231 382 1246 q 414 1175 414 1215 l 414 1161 q 398 1105 414 1121 q 340 1089 382 1089 l 331 1089 m 610 1089 q 552 1105 568 1089 q 536 1161 536 1121 l 536 1175 q 552 1231 536 1215 q 610 1246 568 1246 l 619 1246 q 676 1231 660 1246 q 692 1175 692 1215 l 692 1161 q 676 1105 692 1121 q 619 1089 660 1089 l 610 1089 m 769 76 q 717 27 769 76 q 475 -21 665 -21 q 181 76 285 -21 q 78 342 78 172 l 78 644 q 181 910 78 814 q 475 1007 285 1007 q 769 910 665 1007 q 872 644 872 814 l 872 342 q 769 76 872 172 m 310 192 q 339 167 310 192 q 475 142 368 142 q 640 192 582 142 q 697 340 697 243 l 697 646 q 640 794 697 743 q 475 844 582 844 q 310 794 368 844 q 253 646 253 743 l 253 340 q 310 192 253 243 z "},"×":{"ha":732,"x_min":78,"x_max":668,"o":"m 533 181 l 365 349 l 199 182 q 135 182 167 150 l 97 221 q 78 252 78 238 q 97 285 78 267 l 264 451 l 97 618 q 78 651 78 636 q 97 682 78 665 l 135 721 q 199 721 167 753 l 365 553 l 533 721 q 566 739 553 739 q 597 721 579 739 l 636 683 q 636 619 668 651 l 468 451 l 636 283 q 636 219 668 251 l 597 181 q 565 163 579 163 q 533 181 551 163 z "},"Ø":{"ha":950,"x_min":63,"x_max":894,"o":"m 82 -54 q 75 -39 63 -54 l 160 96 q 78 342 78 189 l 78 644 q 181 910 78 814 q 475 1007 285 1007 q 707 953 611 1007 l 758 1032 q 786 1046 768 1046 l 881 1046 q 888 1031 894 1046 l 793 885 q 872 644 872 790 l 872 342 q 769 78 872 174 q 475 -21 665 -18 q 247 28 342 -22 l 204 -40 q 174 -54 194 -54 l 82 -54 m 269 267 l 617 810 q 475 844 558 844 q 310 794 368 844 q 253 646 253 743 l 253 340 q 269 267 253 297 m 475 142 q 640 192 582 142 q 697 340 697 243 l 697 646 q 683 711 697 685 l 340 172 q 475 142 392 142 z "},"Ù":{"ha":975,"x_min":100,"x_max":876,"o":"m 581 1061 l 338 1161 q 319 1173 324 1167 q 318 1188 315 1179 q 332 1208 321 1196 l 368 1253 q 446 1256 394 1283 l 651 1133 q 654 1089 679 1119 l 635 1063 q 581 1061 621 1046 m 776 76 q 725 27 776 76 q 488 -21 675 -21 q 200 76 300 -21 q 100 339 100 172 l 100 939 q 110 976 100 965 q 147 986 121 986 l 226 986 q 263 976 253 986 q 274 939 274 965 l 274 338 q 328 192 274 243 q 488 142 382 142 q 647 192 593 142 q 701 338 701 243 l 701 939 q 712 976 701 965 q 749 986 722 986 l 829 986 q 866 976 856 986 q 876 939 876 965 l 876 339 q 776 76 876 172 z "},"Ú":{"ha":975,"x_min":100,"x_max":876,"o":"m 401 1060 q 347 1061 361 1044 l 328 1088 q 331 1132 303 1118 l 535 1256 q 614 1253 586 1283 l 649 1208 q 663 1188 660 1196 q 661 1173 665 1179 q 643 1161 657 1167 l 401 1060 m 776 76 q 725 27 776 76 q 488 -21 675 -21 q 200 76 300 -21 q 100 339 100 172 l 100 939 q 110 976 100 965 q 147 986 121 986 l 226 986 q 263 976 253 986 q 274 939 274 965 l 274 338 q 328 192 274 243 q 488 142 382 142 q 647 192 593 142 q 701 338 701 243 l 701 939 q 712 976 701 965 q 749 986 722 986 l 829 986 q 866 976 856 986 q 876 939 876 965 l 876 339 q 776 76 876 172 z "},"Û":{"ha":975,"x_min":100,"x_max":876,"o":"m 281 1054 q 251 1065 256 1054 q 260 1089 246 1075 l 401 1225 q 440 1256 426 1250 q 483 1263 453 1263 l 500 1263 q 538 1257 525 1263 q 576 1225 551 1251 l 718 1089 q 727 1065 732 1075 q 697 1054 722 1054 l 635 1054 q 567 1079 589 1054 l 488 1158 l 403 1079 q 376 1058 388 1063 q 338 1054 365 1054 l 281 1054 m 776 76 q 725 27 776 76 q 488 -21 675 -21 q 200 76 300 -21 q 100 339 100 172 l 100 939 q 110 976 100 965 q 147 986 121 986 l 226 986 q 263 976 253 986 q 274 939 274 965 l 274 338 q 328 192 274 243 q 488 142 382 142 q 647 192 593 142 q 701 338 701 243 l 701 939 q 712 976 701 965 q 749 986 722 986 l 829 986 q 866 976 856 986 q 876 939 876 965 l 876 339 q 776 76 876 172 z "},"Ü":{"ha":975,"x_min":100,"x_max":876,"o":"m 343 1075 q 287 1091 303 1075 q 271 1147 271 1107 l 271 1161 q 287 1217 271 1201 q 343 1232 303 1232 l 353 1232 q 410 1217 394 1232 q 426 1161 426 1201 l 426 1147 q 410 1091 426 1107 q 353 1075 394 1075 l 343 1075 m 622 1075 q 565 1091 581 1075 q 549 1147 549 1107 l 549 1161 q 565 1217 549 1201 q 622 1232 581 1232 l 632 1232 q 688 1217 672 1232 q 704 1161 704 1201 l 704 1147 q 688 1091 704 1107 q 632 1075 672 1075 l 622 1075 m 776 76 q 725 27 776 76 q 488 -21 675 -21 q 200 76 300 -21 q 100 339 100 172 l 100 939 q 110 976 100 965 q 147 986 121 986 l 226 986 q 263 976 253 986 q 274 939 274 965 l 274 338 q 328 192 274 243 q 488 142 382 142 q 647 192 593 142 q 701 338 701 243 l 701 939 q 712 976 701 965 q 749 986 722 986 l 829 986 q 866 976 856 986 q 876 939 876 965 l 876 339 q 776 76 876 172 z "},"Ý":{"ha":914,"x_min":18,"x_max":894,"o":"m 374 1060 q 319 1061 333 1044 l 300 1088 q 303 1132 275 1118 l 507 1256 q 586 1253 558 1283 l 621 1208 q 635 1188 632 1196 q 633 1173 638 1179 q 615 1161 629 1167 l 374 1060 m 417 0 q 380 10 390 0 q 369 47 369 21 l 369 392 l 31 939 q 24 972 18 958 q 54 986 29 986 l 151 986 q 212 980 196 986 q 243 944 228 974 l 458 569 l 676 944 q 708 980 692 974 q 768 986 724 986 l 858 986 q 889 972 883 986 q 882 939 894 958 l 543 389 l 543 47 q 533 10 543 21 q 496 0 522 0 l 417 0 z "},"Þ":{"ha":896,"x_min":107,"x_max":850,"o":"m 154 0 q 117 10 128 0 q 107 47 107 21 l 107 939 q 117 976 107 965 q 154 986 128 986 l 233 986 q 270 976 260 986 q 281 939 281 965 l 281 835 l 508 835 q 758 744 665 835 q 850 499 850 654 q 758 253 850 343 q 508 164 665 164 l 281 164 l 281 47 q 270 10 281 21 q 233 0 260 0 l 154 0 m 281 326 l 492 326 q 620 374 572 326 q 668 499 668 422 q 620 624 668 575 q 492 672 572 672 l 281 672 l 281 326 z "},"ß":{"ha":788,"x_min":92,"x_max":729,"o":"m 139 0 q 102 10 113 0 q 92 47 92 21 l 92 733 q 170 956 92 871 q 388 1042 249 1042 q 615 966 536 1042 q 693 757 693 890 q 589 544 693 607 l 589 540 q 729 286 729 485 q 651 75 729 150 q 432 0 572 0 l 360 0 q 323 10 333 0 q 313 47 313 21 l 313 115 q 323 152 313 142 q 360 163 333 163 l 414 163 q 551 307 551 163 q 516 412 551 374 q 417 450 481 450 l 360 450 q 323 460 333 450 q 313 497 313 471 l 313 560 q 323 597 313 586 q 360 607 333 607 l 401 607 q 490 644 458 607 q 522 740 522 681 q 487 844 522 808 q 386 879 451 879 q 288 840 324 879 q 253 735 253 801 l 253 47 q 242 10 253 21 q 206 0 232 0 l 139 0 z "},"à":{"ha":742,"x_min":54,"x_max":663,"o":"m 458 822 l 217 924 q 195 943 196 932 q 210 972 194 954 l 246 1015 q 324 1018 274 1050 l 529 896 q 531 850 556 882 l 511 825 q 458 822 499 807 m 363 -21 q 121 34 188 -21 q 54 204 54 89 q 126 376 54 328 q 368 425 199 425 q 501 418 442 425 l 501 460 q 470 564 501 529 q 363 599 439 599 q 217 532 263 599 q 192 506 201 510 q 158 511 182 503 l 101 533 q 78 596 56 554 q 367 740 156 740 q 595 665 528 740 q 663 454 663 589 l 663 94 q 652 43 663 58 q 613 15 642 28 q 363 -21 529 -21 m 347 113 q 486 124 439 113 q 501 143 501 129 l 501 292 q 350 299 363 299 q 246 276 275 299 q 217 206 217 253 q 244 136 217 160 q 347 113 271 113 z "},"á":{"ha":742,"x_min":54,"x_max":663,"o":"m 279 822 q 225 825 239 807 l 206 850 q 192 878 192 868 q 208 896 193 888 l 413 1018 q 492 1015 464 1049 l 526 972 q 540 951 538 960 q 539 936 543 943 q 521 924 535 929 l 279 822 m 363 -21 q 121 34 188 -21 q 54 204 54 89 q 126 376 54 328 q 368 425 199 425 q 501 418 442 425 l 501 460 q 470 564 501 529 q 363 599 439 599 q 217 532 263 599 q 192 506 201 510 q 158 511 182 503 l 101 533 q 78 596 56 554 q 367 740 156 740 q 595 665 528 740 q 663 454 663 589 l 663 94 q 652 43 663 58 q 613 15 642 28 q 363 -21 529 -21 m 347 113 q 486 124 439 113 q 501 143 501 129 l 501 292 q 350 299 363 299 q 246 276 275 299 q 217 206 217 253 q 244 136 217 160 q 347 113 271 113 z "},"â":{"ha":742,"x_min":54,"x_max":663,"o":"m 158 817 q 128 827 133 817 q 138 851 124 838 l 279 988 q 316 1018 303 1013 q 361 1024 329 1024 l 378 1024 q 417 1018 404 1024 q 454 988 429 1013 l 596 851 q 605 827 610 838 q 575 817 600 817 l 513 817 q 444 840 467 817 l 365 919 l 281 840 q 254 820 265 824 q 215 817 243 817 l 158 817 m 363 -21 q 121 34 188 -21 q 54 204 54 89 q 126 376 54 328 q 368 425 199 425 q 501 418 442 425 l 501 460 q 470 564 501 529 q 363 599 439 599 q 217 532 263 599 q 192 506 201 510 q 158 511 182 503 l 101 533 q 78 596 56 554 q 367 740 156 740 q 595 665 528 740 q 663 454 663 589 l 663 94 q 652 43 663 58 q 613 15 642 28 q 363 -21 529 -21 m 347 113 q 486 124 439 113 q 501 143 501 129 l 501 292 q 350 299 363 299 q 246 276 275 299 q 217 206 217 253 q 244 136 217 160 q 347 113 271 113 z "},"ã":{"ha":742,"x_min":54,"x_max":663,"o":"m 172 831 q 146 857 146 831 q 174 976 146 940 q 261 1013 203 1013 q 367 972 314 1013 q 444 932 419 932 q 476 985 476 932 q 501 1013 476 1013 l 546 1013 q 572 985 572 1013 q 544 866 572 901 q 456 831 517 831 q 354 870 407 831 q 276 910 301 910 q 243 857 243 910 q 218 831 243 831 l 172 831 m 363 -21 q 121 34 188 -21 q 54 204 54 89 q 126 376 54 328 q 368 425 199 425 q 501 418 442 425 l 501 460 q 470 564 501 529 q 363 599 439 599 q 217 532 263 599 q 192 506 201 510 q 158 511 182 503 l 101 533 q 78 596 56 554 q 367 740 156 740 q 595 665 528 740 q 663 454 663 589 l 663 94 q 652 43 663 58 q 613 15 642 28 q 363 -21 529 -21 m 347 113 q 486 124 439 113 q 501 143 501 129 l 501 292 q 350 299 363 299 q 246 276 275 299 q 217 206 217 253 q 244 136 217 160 q 347 113 271 113 z "},"ä":{"ha":742,"x_min":54,"x_max":663,"o":"m 222 833 q 165 849 181 833 q 149 906 149 864 l 149 918 q 164 976 149 960 q 222 992 179 992 l 231 992 q 288 976 272 992 q 304 918 304 960 l 304 906 q 288 849 304 865 q 231 833 272 833 l 222 833 m 500 833 q 442 849 458 833 q 426 906 426 865 l 426 918 q 442 976 426 960 q 500 992 458 992 l 508 992 q 567 976 551 992 q 582 918 582 960 l 582 906 q 566 849 582 864 q 508 833 550 833 l 500 833 m 363 -21 q 121 34 188 -21 q 54 204 54 89 q 126 376 54 328 q 368 425 199 425 q 501 418 442 425 l 501 460 q 470 564 501 529 q 363 599 439 599 q 217 532 263 599 q 192 506 201 510 q 158 511 182 503 l 101 533 q 78 596 56 554 q 367 740 156 740 q 595 665 528 740 q 663 454 663 589 l 663 94 q 652 43 663 58 q 613 15 642 28 q 363 -21 529 -21 m 347 113 q 486 124 439 113 q 501 143 501 129 l 501 292 q 350 299 363 299 q 246 276 275 299 q 217 206 217 253 q 244 136 217 160 q 347 113 271 113 z "},"å":{"ha":742,"x_min":54,"x_max":663,"o":"m 367 785 q 256 825 299 785 q 214 931 214 865 q 256 1037 214 996 q 367 1078 299 1078 q 474 1037 432 1078 q 515 931 515 996 q 474 826 515 867 q 367 785 432 785 m 367 863 q 416 881 397 863 q 435 931 435 900 q 416 980 435 961 q 367 999 397 999 q 315 980 335 999 q 294 931 294 961 q 315 881 294 900 q 367 863 335 863 m 363 -21 q 121 34 188 -21 q 54 204 54 89 q 126 376 54 328 q 368 425 199 425 q 501 418 442 425 l 501 460 q 470 564 501 529 q 363 599 439 599 q 217 532 263 599 q 192 506 201 510 q 158 511 182 503 l 101 533 q 78 596 56 554 q 367 740 156 740 q 595 665 528 740 q 663 454 663 589 l 663 94 q 652 43 663 58 q 613 15 642 28 q 363 -21 529 -21 m 347 113 q 486 124 439 113 q 501 143 501 129 l 501 292 q 350 299 363 299 q 246 276 275 299 q 217 206 217 253 q 244 136 217 160 q 347 113 271 113 z "},"æ":{"ha":1131,"x_min":54,"x_max":1078,"o":"m 346 -21 q 117 33 179 -21 q 54 203 54 88 q 122 378 54 328 q 351 428 190 428 q 394 426 371 428 q 438 423 417 425 q 467 421 460 421 l 467 478 q 440 567 467 536 q 346 597 414 597 q 218 531 261 597 q 192 505 201 508 q 158 511 182 501 l 103 535 q 79 596 57 553 q 349 740 154 740 q 554 664 489 740 q 771 740 631 740 q 998 661 922 740 q 1074 454 1074 582 l 1074 368 q 1011 308 1074 308 l 629 308 l 629 257 q 769 118 629 118 q 914 192 865 118 q 944 217 929 214 q 983 208 958 221 l 1032 182 q 1049 113 1078 158 q 768 -21 967 -21 q 581 32 651 -21 q 346 -21 483 -21 m 629 432 l 913 432 l 913 463 q 771 604 913 604 q 629 463 629 604 l 629 432 m 331 113 q 410 119 376 113 q 456 133 444 126 q 469 143 468 139 q 467 211 467 188 l 467 289 q 333 296 335 296 q 242 274 265 296 q 218 204 218 251 q 240 135 218 157 q 331 113 263 113 z "},"ç":{"ha":738,"x_min":67,"x_max":703,"o":"m 358 -340 q 257 -322 292 -340 q 233 -283 233 -311 l 232 -242 q 254 -225 232 -214 q 338 -247 296 -247 q 406 -197 406 -247 q 346 -157 406 -158 q 311 -158 322 -157 q 290 -151 293 -160 q 293 -125 286 -143 l 338 -19 q 134 63 201 -10 q 67 264 67 136 l 67 456 q 147 666 67 592 q 386 740 226 740 q 580 690 504 740 q 683 558 656 640 q 685 519 692 532 q 654 496 678 506 l 592 476 q 553 474 567 467 q 531 506 540 481 q 381 599 494 599 q 228 463 228 599 l 228 257 q 267 156 228 192 q 381 121 306 121 q 531 217 494 121 q 553 247 540 242 q 593 244 567 253 l 654 226 q 685 164 703 207 q 433 -17 622 3 l 410 -81 q 428 -79 415 -79 q 517 -115 483 -79 q 544 -204 550 -151 q 358 -340 531 -340 z "},"è":{"ha":767,"x_min":65,"x_max":715,"o":"m 481 822 l 239 924 q 217 943 218 932 q 232 972 217 954 l 268 1015 q 346 1018 296 1050 l 551 896 q 553 850 578 882 l 533 825 q 481 822 521 807 m 385 -21 q 144 60 222 -21 q 65 276 65 140 l 65 440 q 148 663 65 586 q 388 740 231 740 q 628 660 546 740 q 710 453 710 579 l 710 368 q 647 308 710 308 l 226 308 l 226 257 q 267 153 226 189 q 386 118 308 118 q 550 192 501 118 q 580 219 565 215 q 619 208 594 222 l 668 182 q 685 113 715 160 q 385 -21 603 -21 m 226 432 l 549 432 l 549 463 q 508 567 549 531 q 388 604 467 604 q 268 567 310 604 q 226 463 226 531 l 226 432 z "},"é":{"ha":767,"x_min":65,"x_max":715,"o":"m 301 822 q 247 825 261 807 l 228 850 q 215 878 214 868 q 231 896 215 888 l 435 1018 q 514 1015 486 1049 l 549 972 q 563 951 560 960 q 561 936 565 943 q 543 924 557 929 l 301 822 m 385 -21 q 144 60 222 -21 q 65 276 65 140 l 65 440 q 148 663 65 586 q 388 740 231 740 q 628 660 546 740 q 710 453 710 579 l 710 368 q 647 308 710 308 l 226 308 l 226 257 q 267 153 226 189 q 386 118 308 118 q 550 192 501 118 q 580 219 565 215 q 619 208 594 222 l 668 182 q 685 113 715 160 q 385 -21 603 -21 m 226 432 l 549 432 l 549 463 q 508 567 549 531 q 388 604 467 604 q 268 567 310 604 q 226 463 226 531 l 226 432 z "},"ê":{"ha":767,"x_min":65,"x_max":715,"o":"m 181 817 q 151 827 156 817 q 160 851 146 838 l 301 988 q 338 1018 325 1013 q 383 1024 351 1024 l 400 1024 q 439 1018 426 1024 q 476 988 451 1013 l 618 851 q 627 827 632 838 q 597 817 622 817 l 535 817 q 467 840 489 817 l 388 919 l 303 840 q 276 820 288 824 q 238 817 265 817 l 181 817 m 385 -21 q 144 60 222 -21 q 65 276 65 140 l 65 440 q 148 663 65 586 q 388 740 231 740 q 628 660 546 740 q 710 453 710 579 l 710 368 q 647 308 710 308 l 226 308 l 226 257 q 267 153 226 189 q 386 118 308 118 q 550 192 501 118 q 580 219 565 215 q 619 208 594 222 l 668 182 q 685 113 715 160 q 385 -21 603 -21 m 226 432 l 549 432 l 549 463 q 508 567 549 531 q 388 604 467 604 q 268 567 310 604 q 226 463 226 531 l 226 432 z "},"ë":{"ha":767,"x_min":65,"x_max":715,"o":"m 244 833 q 187 849 203 833 q 171 906 171 864 l 171 918 q 186 976 171 960 q 244 992 201 992 l 253 992 q 310 976 294 992 q 326 918 326 960 l 326 906 q 310 849 326 865 q 253 833 294 833 l 244 833 m 522 833 q 465 849 481 833 q 449 906 449 865 l 449 918 q 465 976 449 960 q 522 992 481 992 l 531 992 q 589 976 574 992 q 604 918 604 960 l 604 906 q 588 849 604 864 q 531 833 572 833 l 522 833 m 385 -21 q 144 60 222 -21 q 65 276 65 140 l 65 440 q 148 663 65 586 q 388 740 231 740 q 628 660 546 740 q 710 453 710 579 l 710 368 q 647 308 710 308 l 226 308 l 226 257 q 267 153 226 189 q 386 118 308 118 q 550 192 501 118 q 580 219 565 215 q 619 208 594 222 l 668 182 q 685 113 715 160 q 385 -21 603 -21 m 226 432 l 549 432 l 549 463 q 508 567 549 531 q 388 604 467 604 q 268 567 310 604 q 226 463 226 531 l 226 432 z "},"ì":{"ha":342,"x_min":0,"x_max":361,"o":"m 264 822 l 22 924 q 1 943 1 932 q 15 972 0 954 l 51 1015 q 129 1018 79 1050 l 335 896 q 336 850 361 882 l 317 825 q 264 822 304 807 m 133 0 q 100 10 110 0 q 90 43 90 19 l 90 678 q 100 710 90 701 q 133 719 110 719 l 208 719 q 242 710 232 719 q 251 678 251 701 l 251 43 q 242 10 251 19 q 208 0 232 0 l 133 0 z "},"í":{"ha":342,"x_min":-14,"x_max":349,"o":"m 85 821 q 31 824 44 806 l 11 849 q 14 894 -14 879 l 218 1017 q 296 1014 271 1046 l 332 969 q 346 949 343 957 q 344 934 349 940 q 326 922 340 928 l 85 821 m 133 0 q 100 10 110 0 q 90 43 90 19 l 90 678 q 100 710 90 701 q 133 719 110 719 l 208 719 q 242 710 232 719 q 251 678 251 701 l 251 43 q 242 10 251 19 q 208 0 232 0 l 133 0 z "},"î":{"ha":342,"x_min":-40,"x_max":382,"o":"m -7 810 q -36 820 -32 810 q -28 844 -40 831 l 85 975 q 119 1006 106 1000 q 165 1011 133 1011 l 181 1011 q 222 1006 208 1011 q 257 975 236 1000 l 368 844 q 378 820 382 831 q 349 810 374 810 l 292 810 q 248 813 261 810 q 225 833 235 817 l 169 910 l 110 833 q 87 813 99 817 q 46 810 75 810 l -7 810 m 133 0 q 100 10 110 0 q 90 43 90 19 l 90 678 q 100 710 90 701 q 133 719 110 719 l 208 719 q 242 710 232 719 q 251 678 251 701 l 251 43 q 242 10 251 19 q 208 0 232 0 l 133 0 z "},"ï":{"ha":342,"x_min":-26,"x_max":368,"o":"m 44 828 q -11 844 4 828 q -26 900 -26 860 l -26 913 q -11 969 -26 953 q 44 985 4 985 l 54 985 q 112 969 96 985 q 128 913 128 953 l 128 900 q 112 844 128 860 q 54 828 96 828 l 44 828 m 286 828 q 229 844 244 828 q 214 900 214 860 l 214 913 q 229 969 214 953 q 286 985 244 985 l 296 985 q 353 969 338 985 q 368 913 368 953 l 368 900 q 353 844 368 860 q 296 828 338 828 l 286 828 m 133 0 q 100 10 110 0 q 90 43 90 19 l 90 678 q 100 710 90 701 q 133 719 110 719 l 208 719 q 242 710 232 719 q 251 678 251 701 l 251 43 q 242 10 251 19 q 208 0 232 0 l 133 0 z "},"ð":{"ha":789,"x_min":67,"x_max":707,"o":"m 388 -21 q 149 53 231 -21 q 67 261 67 128 l 67 419 q 144 625 67 549 q 353 701 222 701 q 554 625 500 701 q 483 807 546 749 l 425 743 q 410 733 415 733 q 393 740 404 733 l 354 769 q 351 801 335 783 l 400 856 q 218 885 332 885 q 183 894 193 885 q 172 926 174 903 l 171 989 q 180 1022 171 1013 q 214 1032 189 1032 q 504 981 397 1032 l 556 1039 q 569 1049 564 1049 q 586 1040 575 1049 l 631 1007 q 633 976 649 993 l 588 926 q 707 551 707 813 l 707 261 q 624 53 707 128 q 388 -21 542 -21 m 388 125 q 504 160 464 125 q 544 261 544 196 l 544 419 q 504 520 544 485 q 388 556 464 556 q 228 419 228 556 l 228 261 q 269 160 228 196 q 388 125 310 125 z "},"ñ":{"ha":789,"x_min":89,"x_max":704,"o":"m 203 831 q 176 857 176 831 q 205 976 176 940 q 292 1013 233 1013 q 397 972 344 1013 q 475 932 450 932 q 507 985 507 932 q 532 1013 507 1013 l 576 1013 q 603 985 603 1013 q 575 866 603 901 q 486 831 547 831 q 385 870 438 831 q 307 910 332 910 q 274 857 274 910 q 249 831 274 831 l 203 831 m 131 0 q 98 10 107 0 q 89 43 89 19 l 89 614 q 99 663 89 647 q 142 693 110 679 q 415 740 263 740 q 704 461 704 740 l 704 43 q 694 10 704 19 q 661 0 685 0 l 586 0 q 553 10 563 0 q 543 43 543 19 l 543 457 q 392 593 543 593 q 258 575 325 593 q 250 561 250 571 l 250 43 q 240 10 250 19 q 207 0 231 0 l 131 0 z "},"ò":{"ha":775,"x_min":68,"x_max":707,"o":"m 479 822 l 238 924 q 216 943 217 932 q 231 972 215 954 l 267 1015 q 344 1018 294 1050 l 550 896 q 551 850 576 882 l 532 825 q 479 822 519 807 m 386 -21 q 151 53 233 -21 q 68 257 68 126 l 68 463 q 151 667 68 593 q 386 740 233 740 q 624 667 542 740 q 707 463 707 593 l 707 257 q 624 53 707 126 q 386 -21 542 -21 m 386 125 q 505 160 464 125 q 546 257 546 194 l 546 463 q 505 560 546 526 q 386 594 464 594 q 269 560 310 594 q 229 463 229 526 l 229 257 q 270 160 229 194 q 386 125 311 125 z "},"ó":{"ha":775,"x_min":68,"x_max":707,"o":"m 300 822 q 246 825 260 807 l 226 850 q 213 878 213 868 q 229 896 214 888 l 433 1018 q 513 1015 485 1049 l 547 972 q 561 951 558 960 q 560 936 564 943 q 542 924 556 929 l 300 822 m 386 -21 q 151 53 233 -21 q 68 257 68 126 l 68 463 q 151 667 68 593 q 386 740 233 740 q 624 667 542 740 q 707 463 707 593 l 707 257 q 624 53 707 126 q 386 -21 542 -21 m 386 125 q 505 160 464 125 q 546 257 546 194 l 546 463 q 505 560 546 526 q 386 594 464 594 q 269 560 310 594 q 229 463 229 526 l 229 257 q 270 160 229 194 q 386 125 311 125 z "},"ô":{"ha":775,"x_min":68,"x_max":707,"o":"m 181 817 q 151 827 156 817 q 160 851 146 838 l 301 988 q 338 1018 325 1013 q 383 1024 351 1024 l 400 1024 q 439 1018 426 1024 q 476 988 451 1013 l 618 851 q 627 827 632 838 q 597 817 622 817 l 535 817 q 467 840 489 817 l 388 919 l 303 840 q 276 820 288 824 q 238 817 265 817 l 181 817 m 386 -21 q 151 53 233 -21 q 68 257 68 126 l 68 463 q 151 667 68 593 q 386 740 233 740 q 624 667 542 740 q 707 463 707 593 l 707 257 q 624 53 707 126 q 386 -21 542 -21 m 386 125 q 505 160 464 125 q 546 257 546 194 l 546 463 q 505 560 546 526 q 386 594 464 594 q 269 560 310 594 q 229 463 229 526 l 229 257 q 270 160 229 194 q 386 125 311 125 z "},"õ":{"ha":775,"x_min":68,"x_max":707,"o":"m 193 831 q 167 857 167 831 q 195 976 167 940 q 282 1013 224 1013 q 388 972 335 1013 q 465 932 440 932 q 497 985 497 932 q 522 1013 497 1013 l 567 1013 q 593 985 593 1013 q 565 866 593 901 q 476 831 538 831 q 375 870 428 831 q 297 910 322 910 q 264 857 264 910 q 239 831 264 831 l 193 831 m 386 -21 q 151 53 233 -21 q 68 257 68 126 l 68 463 q 151 667 68 593 q 386 740 233 740 q 624 667 542 740 q 707 463 707 593 l 707 257 q 624 53 707 126 q 386 -21 542 -21 m 386 125 q 505 160 464 125 q 546 257 546 194 l 546 463 q 505 560 546 526 q 386 594 464 594 q 269 560 310 594 q 229 463 229 526 l 229 257 q 270 160 229 194 q 386 125 311 125 z "},"ö":{"ha":775,"x_min":68,"x_max":707,"o":"m 243 833 q 185 849 200 833 q 169 906 169 864 l 169 918 q 185 976 169 960 q 243 992 200 992 l 251 992 q 309 976 293 992 q 325 918 325 960 l 325 906 q 309 849 325 865 q 251 833 293 833 l 243 833 m 521 833 q 463 849 479 833 q 447 906 447 865 l 447 918 q 463 976 447 960 q 521 992 479 992 l 529 992 q 588 976 572 992 q 603 918 603 960 l 603 906 q 588 849 603 864 q 529 833 572 833 l 521 833 m 386 -21 q 151 53 233 -21 q 68 257 68 126 l 68 463 q 151 667 68 593 q 386 740 233 740 q 624 667 542 740 q 707 463 707 593 l 707 257 q 624 53 707 126 q 386 -21 542 -21 m 386 125 q 505 160 464 125 q 546 257 546 194 l 546 463 q 505 560 546 526 q 386 594 464 594 q 269 560 310 594 q 229 463 229 526 l 229 257 q 270 160 229 194 q 386 125 311 125 z "},"÷":{"ha":788,"x_min":67,"x_max":721,"o":"m 389 614 q 319 633 338 614 q 300 703 300 651 l 300 715 q 319 785 300 765 q 389 804 338 804 l 399 804 q 469 785 450 804 q 488 715 488 765 l 488 703 q 469 633 488 651 q 399 614 450 614 l 389 614 m 114 374 q 77 384 88 374 q 67 421 67 394 l 67 482 q 76 519 67 508 q 114 529 86 529 l 674 529 q 710 519 700 529 q 721 482 721 508 l 721 421 q 710 384 721 394 q 674 374 700 374 l 114 374 m 389 100 q 319 119 338 100 q 300 189 300 139 l 300 201 q 319 272 300 253 q 389 290 338 290 l 399 290 q 469 272 450 290 q 488 201 488 253 l 488 189 q 469 119 488 139 q 399 100 450 100 l 389 100 z "},"ø":{"ha":775,"x_min":68,"x_max":707,"o":"m 96 -49 q 89 -33 76 -49 l 146 58 q 68 257 68 129 l 68 463 q 151 667 68 593 q 386 740 233 740 q 558 708 486 740 l 588 753 q 615 767 597 767 l 679 767 q 686 751 693 767 l 629 663 q 707 463 707 592 l 707 257 q 624 53 707 126 q 386 -21 542 -21 q 217 13 288 -21 l 188 -35 q 157 -49 178 -49 l 96 -49 m 243 211 l 475 578 q 386 594 440 594 q 269 560 310 594 q 229 463 229 526 l 229 257 q 243 211 229 232 m 386 125 q 505 160 464 125 q 546 257 546 194 l 546 463 q 532 511 546 488 l 299 143 q 386 125 338 125 z "},"ù":{"ha":789,"x_min":85,"x_max":700,"o":"m 485 822 l 243 924 q 222 943 222 932 q 236 972 221 954 l 272 1015 q 350 1018 300 1050 l 556 896 q 557 850 582 882 l 538 825 q 485 822 525 807 m 374 -21 q 156 51 228 -21 q 85 258 85 124 l 85 678 q 94 710 85 701 q 126 719 103 719 l 203 719 q 236 710 226 719 q 246 678 246 701 l 246 264 q 397 126 246 126 q 524 143 469 126 q 539 167 539 149 l 539 678 q 549 710 539 701 q 582 719 558 719 l 657 719 q 690 710 681 719 q 700 678 700 701 l 700 106 q 690 57 700 72 q 647 28 679 42 q 374 -21 522 -21 z "},"ú":{"ha":789,"x_min":85,"x_max":700,"o":"m 306 822 q 251 825 265 807 l 232 850 q 219 878 218 868 q 235 896 219 888 l 439 1018 q 518 1015 490 1049 l 553 972 q 567 951 564 960 q 565 936 569 943 q 547 924 561 929 l 306 822 m 374 -21 q 156 51 228 -21 q 85 258 85 124 l 85 678 q 94 710 85 701 q 126 719 103 719 l 203 719 q 236 710 226 719 q 246 678 246 701 l 246 264 q 397 126 246 126 q 524 143 469 126 q 539 167 539 149 l 539 678 q 549 710 539 701 q 582 719 558 719 l 657 719 q 690 710 681 719 q 700 678 700 701 l 700 106 q 690 57 700 72 q 647 28 679 42 q 374 -21 522 -21 z "},"û":{"ha":789,"x_min":85,"x_max":700,"o":"m 186 817 q 156 827 161 817 q 165 851 151 838 l 307 988 q 344 1018 331 1013 q 389 1024 357 1024 l 406 1024 q 444 1018 432 1024 q 482 988 457 1013 l 624 851 q 633 827 638 838 q 603 817 628 817 l 540 817 q 472 840 494 817 l 393 919 l 308 840 q 282 820 293 824 q 243 817 271 817 l 186 817 m 374 -21 q 156 51 228 -21 q 85 258 85 124 l 85 678 q 94 710 85 701 q 126 719 103 719 l 203 719 q 236 710 226 719 q 246 678 246 701 l 246 264 q 397 126 246 126 q 524 143 469 126 q 539 167 539 149 l 539 678 q 549 710 539 701 q 582 719 558 719 l 657 719 q 690 710 681 719 q 700 678 700 701 l 700 106 q 690 57 700 72 q 647 28 679 42 q 374 -21 522 -21 z "},"ü":{"ha":789,"x_min":85,"x_max":700,"o":"m 249 833 q 190 849 206 833 q 175 906 175 864 l 175 918 q 190 976 175 960 q 249 992 206 992 l 257 992 q 315 976 299 992 q 331 918 331 960 l 331 906 q 315 849 331 865 q 257 833 299 833 l 249 833 m 526 833 q 469 849 485 833 q 453 906 453 865 l 453 918 q 469 976 453 960 q 526 992 485 992 l 535 992 q 593 976 578 992 q 608 918 608 960 l 608 906 q 593 849 608 864 q 535 833 578 833 l 526 833 m 374 -21 q 156 51 228 -21 q 85 258 85 124 l 85 678 q 94 710 85 701 q 126 719 103 719 l 203 719 q 236 710 226 719 q 246 678 246 701 l 246 264 q 397 126 246 126 q 524 143 469 126 q 539 167 539 149 l 539 678 q 549 710 539 701 q 582 719 558 719 l 657 719 q 690 710 681 719 q 700 678 700 701 l 700 106 q 690 57 700 72 q 647 28 679 42 q 374 -21 522 -21 z "},"ý":{"ha":792,"x_min":76,"x_max":700,"o":"m 306 822 q 251 825 265 807 l 232 850 q 219 878 218 868 q 235 896 219 888 l 439 1018 q 518 1015 490 1049 l 553 972 q 567 951 564 960 q 565 936 569 943 q 547 924 561 929 l 306 822 m 394 -328 q 107 -193 188 -328 q 124 -124 76 -149 l 176 -94 q 216 -85 201 -82 q 246 -111 231 -89 q 392 -183 292 -183 q 539 -32 539 -183 l 539 33 q 374 14 456 14 q 156 86 228 14 q 85 293 85 158 l 85 678 q 94 710 85 701 q 126 719 103 719 l 203 719 q 236 710 226 719 q 246 678 246 701 l 246 299 q 397 161 246 161 q 539 181 464 161 l 539 678 q 549 710 539 701 q 582 719 558 719 l 657 719 q 691 710 682 719 q 700 678 700 701 l 700 -24 q 626 -247 700 -167 q 394 -328 551 -328 z "},"þ":{"ha":776,"x_min":92,"x_max":707,"o":"m 133 -306 q 101 -296 110 -306 q 92 -262 92 -286 l 92 985 q 101 1018 92 1008 q 133 1028 110 1028 l 210 1028 q 243 1018 233 1028 q 253 985 253 1008 l 253 721 q 415 739 338 739 q 707 458 707 739 l 707 269 q 397 -21 707 -21 q 253 4 346 -21 l 253 -262 q 243 -296 253 -286 q 210 -306 233 -306 l 133 -306 m 386 126 q 546 274 546 126 l 546 453 q 506 556 546 521 q 392 592 467 592 q 253 571 336 592 l 253 147 q 386 126 333 126 z "},"ÿ":{"ha":792,"x_min":76,"x_max":700,"o":"m 249 833 q 190 849 206 833 q 175 906 175 864 l 175 918 q 190 976 175 960 q 249 992 206 992 l 257 992 q 315 976 299 992 q 331 918 331 960 l 331 906 q 315 849 331 865 q 257 833 299 833 l 249 833 m 526 833 q 469 849 485 833 q 453 906 453 865 l 453 918 q 469 976 453 960 q 526 992 485 992 l 535 992 q 593 976 578 992 q 608 918 608 960 l 608 906 q 593 849 608 864 q 535 833 578 833 l 526 833 m 394 -328 q 107 -193 188 -328 q 124 -124 76 -149 l 176 -94 q 216 -85 201 -82 q 246 -111 231 -89 q 392 -183 292 -183 q 539 -32 539 -183 l 539 33 q 374 14 456 14 q 156 86 228 14 q 85 293 85 158 l 85 678 q 94 710 85 701 q 126 719 103 719 l 203 719 q 236 710 226 719 q 246 678 246 701 l 246 299 q 397 161 246 161 q 539 181 464 161 l 539 678 q 549 710 539 701 q 582 719 558 719 l 657 719 q 691 710 682 719 q 700 678 700 701 l 700 -24 q 626 -247 700 -167 q 394 -328 551 -328 z "},"Ā":{"ha":935,"x_min":6,"x_max":925,"o":"m 306 1093 q 274 1101 282 1093 q 265 1133 265 1110 l 265 1168 q 274 1200 265 1192 q 306 1208 283 1208 l 626 1208 q 658 1200 650 1208 q 667 1168 667 1192 l 667 1133 q 658 1101 667 1110 q 626 1093 650 1093 l 306 1093 m 56 0 q 25 46 6 0 l 371 949 q 392 980 381 972 q 429 988 404 988 l 503 988 q 541 980 528 988 q 561 950 554 972 l 908 46 q 878 0 925 0 l 806 0 q 744 8 761 0 q 719 42 726 17 l 654 221 l 272 221 l 206 42 q 181 8 197 17 q 119 0 164 0 l 56 0 m 321 364 l 606 364 l 500 657 q 468 826 468 751 l 457 826 q 428 658 457 743 l 321 364 z "},"ā":{"ha":742,"x_min":54,"x_max":663,"o":"m 206 857 q 174 865 182 857 q 165 897 165 874 l 165 932 q 174 964 165 956 q 206 972 183 972 l 526 972 q 558 964 550 972 q 567 932 567 956 l 567 897 q 558 865 567 874 q 526 857 550 857 l 206 857 m 363 -21 q 121 34 188 -21 q 54 204 54 89 q 126 376 54 328 q 368 425 199 425 q 501 418 442 425 l 501 460 q 470 564 501 529 q 363 599 439 599 q 217 532 263 599 q 192 506 201 510 q 158 511 182 503 l 101 533 q 78 596 56 554 q 367 740 156 740 q 595 665 528 740 q 663 454 663 589 l 663 94 q 652 43 663 58 q 613 15 642 28 q 363 -21 529 -21 m 347 113 q 486 124 439 113 q 501 143 501 129 l 501 292 q 350 299 363 299 q 246 276 275 299 q 217 206 217 253 q 244 136 217 160 q 347 113 271 113 z "},"Ă":{"ha":935,"x_min":6,"x_max":925,"o":"m 467 1056 q 332 1093 389 1056 q 253 1199 275 1131 q 272 1238 243 1226 l 328 1258 q 371 1244 360 1269 q 467 1172 392 1172 q 565 1244 540 1172 q 601 1260 576 1269 l 664 1238 q 683 1199 692 1225 q 603 1093 660 1131 q 467 1056 546 1056 m 56 0 q 25 46 6 0 l 371 949 q 392 980 381 972 q 429 988 404 988 l 503 988 q 541 980 528 988 q 561 950 554 972 l 908 46 q 878 0 925 0 l 806 0 q 744 8 761 0 q 719 42 726 17 l 654 221 l 272 221 l 206 42 q 181 8 197 17 q 119 0 164 0 l 56 0 m 321 364 l 606 364 l 500 657 q 468 826 468 751 l 457 826 q 428 658 457 743 l 321 364 z "},"ă":{"ha":742,"x_min":54,"x_max":663,"o":"m 365 818 q 231 856 288 818 q 151 960 175 893 q 171 1000 142 989 l 226 1021 q 269 1006 258 1031 q 365 933 293 933 q 464 1006 436 933 q 500 1022 474 1029 l 563 1000 q 582 960 590 988 q 501 856 557 893 q 365 818 444 818 m 363 -21 q 121 34 188 -21 q 54 204 54 89 q 126 376 54 328 q 368 425 199 425 q 501 418 442 425 l 501 460 q 470 564 501 529 q 363 599 439 599 q 217 532 263 599 q 192 506 201 510 q 158 511 182 503 l 101 533 q 78 596 56 554 q 367 740 156 740 q 595 665 528 740 q 663 454 663 589 l 663 94 q 652 43 663 58 q 613 15 642 28 q 363 -21 529 -21 m 347 113 q 486 124 439 113 q 501 143 501 129 l 501 292 q 350 299 363 299 q 246 276 275 299 q 217 206 217 253 q 244 136 217 160 q 347 113 271 113 z "},"Ą":{"ha":933,"x_min":8,"x_max":933,"o":"m 792 -340 q 668 -257 683 -340 q 686 -133 656 -201 q 785 1 717 -64 q 739 12 751 3 q 719 43 726 21 l 656 221 l 272 221 l 207 42 q 181 8 199 17 q 121 0 164 0 l 57 0 q 26 46 8 0 l 372 949 q 394 980 382 972 q 431 988 406 988 l 504 988 q 542 980 529 988 q 563 950 556 972 l 910 43 q 907 3 919 17 q 825 -108 851 -51 q 806 -193 799 -165 q 842 -222 814 -222 q 879 -210 865 -222 q 906 -217 899 -196 l 925 -262 q 924 -292 933 -281 q 792 -340 871 -340 m 322 364 l 607 364 l 518 615 q 492 708 503 660 q 476 790 481 757 q 469 826 471 822 l 458 826 q 452 790 457 822 q 437 708 447 757 q 411 617 426 660 l 322 364 z "},"ą":{"ha":746,"x_min":54,"x_max":672,"o":"m 531 -340 q 407 -257 421 -340 q 424 -138 396 -204 q 511 -10 451 -72 q 363 -21 444 -21 q 121 34 188 -21 q 54 204 54 89 q 126 378 54 328 q 368 428 199 428 q 501 421 383 428 l 501 460 q 470 563 501 529 q 363 597 439 597 q 217 531 263 597 q 192 505 201 508 q 158 510 182 501 l 101 533 q 78 596 56 554 q 367 740 156 740 q 595 665 528 740 q 663 454 663 589 l 663 94 q 649 38 663 56 q 560 -104 585 -43 q 544 -193 536 -165 q 581 -222 550 -222 q 618 -208 603 -222 q 644 -217 638 -196 l 664 -261 q 663 -290 672 -281 q 531 -340 611 -340 m 347 113 q 486 124 439 113 q 501 143 501 129 l 501 289 q 350 296 432 296 q 246 274 275 296 q 217 206 217 251 q 244 135 217 158 q 347 113 271 113 z "},"Ć":{"ha":908,"x_min":78,"x_max":869,"o":"m 396 1060 q 342 1061 356 1044 l 322 1088 q 325 1132 297 1118 l 529 1256 q 608 1253 581 1283 l 643 1208 q 657 1188 654 1196 q 656 1173 660 1179 q 638 1161 651 1167 l 396 1060 m 475 -21 q 182 76 286 -21 q 78 342 78 172 l 78 646 q 181 910 78 814 q 475 1007 285 1007 q 853 775 774 1007 q 824 714 869 731 l 749 688 q 710 685 722 679 q 688 717 697 692 q 475 844 642 844 q 310 794 368 844 q 253 647 253 743 l 253 340 q 310 193 253 244 q 475 142 368 142 q 689 271 640 142 q 711 303 699 297 q 749 300 724 310 l 824 274 q 854 213 869 257 q 475 -21 772 -21 z "},"ć":{"ha":739,"x_min":67,"x_max":703,"o":"m 300 822 q 246 825 260 807 l 226 850 q 213 878 213 868 q 229 896 214 888 l 433 1018 q 513 1015 485 1049 l 547 972 q 561 951 558 960 q 560 936 564 943 q 542 924 556 929 l 300 822 m 375 -21 q 143 53 219 -21 q 67 264 67 128 l 67 456 q 147 666 67 592 q 386 740 226 740 q 579 691 504 740 q 682 558 654 642 q 653 496 699 511 l 592 476 q 553 474 565 468 q 531 506 540 481 q 381 599 494 599 q 228 463 228 599 l 228 257 q 267 156 228 192 q 381 121 306 121 q 531 217 494 121 q 553 247 540 242 q 593 244 567 253 l 654 226 q 685 164 703 207 q 375 -21 613 -21 z "},"Ĉ":{"ha":908,"x_min":78,"x_max":869,"o":"m 275 1054 q 245 1065 250 1054 q 254 1089 240 1075 l 396 1225 q 434 1256 421 1250 q 478 1263 447 1263 l 494 1263 q 533 1257 519 1263 q 571 1225 546 1251 l 713 1089 q 722 1065 726 1075 q 692 1054 717 1054 l 629 1054 q 561 1079 583 1054 l 482 1158 l 397 1079 q 371 1058 382 1063 q 332 1054 360 1054 l 275 1054 m 475 -21 q 182 76 286 -21 q 78 342 78 172 l 78 646 q 181 910 78 814 q 475 1007 285 1007 q 853 775 774 1007 q 824 714 869 731 l 749 688 q 710 685 722 679 q 688 717 697 692 q 475 844 642 844 q 310 794 368 844 q 253 647 253 743 l 253 340 q 310 193 253 244 q 475 142 368 142 q 689 271 640 142 q 711 303 699 297 q 749 300 724 310 l 824 274 q 854 213 869 257 q 475 -21 772 -21 z "},"ĉ":{"ha":739,"x_min":67,"x_max":703,"o":"m 179 817 q 149 827 154 817 q 158 851 144 838 l 300 988 q 337 1018 324 1013 q 382 1024 350 1024 l 399 1024 q 438 1018 425 1024 q 475 988 450 1013 l 617 851 q 626 827 631 838 q 596 817 621 817 l 533 817 q 465 840 488 817 l 386 919 l 301 840 q 275 820 286 824 q 236 817 264 817 l 179 817 m 375 -21 q 143 53 219 -21 q 67 264 67 128 l 67 456 q 147 666 67 592 q 386 740 226 740 q 579 691 504 740 q 682 558 654 642 q 653 496 699 511 l 592 476 q 553 474 565 468 q 531 506 540 481 q 381 599 494 599 q 228 463 228 599 l 228 257 q 267 156 228 192 q 381 121 306 121 q 531 217 494 121 q 553 247 540 242 q 593 244 567 253 l 654 226 q 685 164 703 207 q 375 -21 613 -21 z "},"Ċ":{"ha":908,"x_min":78,"x_max":869,"o":"m 478 1074 q 419 1089 435 1074 q 404 1147 404 1104 l 404 1158 q 419 1217 404 1201 q 478 1233 435 1233 l 486 1233 q 545 1217 529 1233 q 561 1158 561 1201 l 561 1147 q 545 1089 561 1104 q 486 1074 529 1074 l 478 1074 m 475 -21 q 182 76 286 -21 q 78 342 78 172 l 78 646 q 181 910 78 814 q 475 1007 285 1007 q 853 775 774 1007 q 824 714 869 731 l 749 688 q 710 685 722 679 q 688 717 697 692 q 475 844 642 844 q 310 794 368 844 q 253 647 253 743 l 253 340 q 310 193 253 244 q 475 142 368 142 q 689 271 640 142 q 711 303 699 297 q 749 300 724 310 l 824 274 q 854 213 869 257 q 475 -21 772 -21 z "},"ċ":{"ha":739,"x_min":67,"x_max":703,"o":"m 382 843 q 317 860 333 843 q 300 924 300 876 l 300 936 q 317 999 300 983 q 382 1015 333 1015 l 392 1015 q 457 999 440 1015 q 474 936 474 983 l 474 924 q 457 860 474 876 q 392 843 440 843 l 382 843 m 375 -21 q 143 53 219 -21 q 67 264 67 128 l 67 456 q 147 666 67 592 q 386 740 226 740 q 579 691 504 740 q 682 558 654 642 q 653 496 699 511 l 592 476 q 553 474 565 468 q 531 506 540 481 q 381 599 494 599 q 228 463 228 599 l 228 257 q 267 156 228 192 q 381 121 306 121 q 531 217 494 121 q 553 247 540 242 q 593 244 567 253 l 654 226 q 685 164 703 207 q 375 -21 613 -21 z "},"Č":{"ha":908,"x_min":78,"x_max":869,"o":"m 474 1053 q 428 1058 442 1053 q 392 1090 415 1064 l 250 1225 q 241 1249 236 1239 q 271 1260 246 1260 l 329 1260 q 367 1256 356 1260 q 394 1236 378 1253 l 478 1157 l 558 1236 q 585 1256 572 1251 q 626 1260 599 1260 l 689 1260 q 718 1249 714 1260 q 708 1225 722 1239 l 568 1090 q 530 1058 543 1064 q 490 1053 517 1053 l 474 1053 m 475 -21 q 182 76 286 -21 q 78 342 78 172 l 78 646 q 181 910 78 814 q 475 1007 285 1007 q 853 775 774 1007 q 824 714 869 731 l 749 688 q 710 685 722 679 q 688 717 697 692 q 475 844 642 844 q 310 794 368 844 q 253 647 253 743 l 253 340 q 310 193 253 244 q 475 142 368 142 q 689 271 640 142 q 711 303 699 297 q 749 300 724 310 l 824 274 q 854 213 869 257 q 475 -21 772 -21 z "},"č":{"ha":739,"x_min":67,"x_max":703,"o":"m 378 814 q 334 820 347 814 q 296 851 321 826 l 154 988 q 145 1012 140 1001 q 175 1022 150 1022 l 233 1022 q 272 1018 260 1022 q 299 997 283 1014 l 382 918 l 463 997 q 531 1022 485 1022 l 593 1022 q 622 1011 618 1022 q 613 988 626 1000 l 472 851 q 434 819 447 825 q 394 814 421 814 l 378 814 m 375 -21 q 143 53 219 -21 q 67 264 67 128 l 67 456 q 147 666 67 592 q 386 740 226 740 q 579 691 504 740 q 682 558 654 642 q 653 496 699 511 l 592 476 q 553 474 565 468 q 531 506 540 481 q 381 599 494 599 q 228 463 228 599 l 228 257 q 267 156 228 192 q 381 121 306 121 q 531 217 494 121 q 553 247 540 242 q 593 244 567 253 l 654 226 q 685 164 703 207 q 375 -21 613 -21 z "},"Ď":{"ha":946,"x_min":107,"x_max":868,"o":"m 438 1053 q 392 1058 406 1053 q 356 1090 379 1064 l 214 1225 q 205 1249 200 1239 q 235 1260 210 1260 l 293 1260 q 331 1256 319 1260 q 358 1236 342 1253 l 442 1157 l 522 1236 q 549 1256 536 1251 q 590 1260 563 1260 l 653 1260 q 682 1249 678 1260 q 672 1225 686 1239 l 532 1090 q 494 1058 507 1064 q 454 1053 481 1053 l 438 1053 m 154 0 q 117 10 128 0 q 107 47 107 21 l 107 939 q 117 976 107 965 q 154 986 128 986 l 465 986 q 763 888 657 986 q 868 619 868 790 l 868 367 q 763 98 868 196 q 465 0 657 0 l 154 0 m 281 163 l 467 163 q 635 215 576 163 q 694 365 694 267 l 694 621 q 636 772 694 719 q 467 824 578 824 l 281 824 l 281 163 z "},"ď":{"ha":869,"x_min":89,"x_max":964,"o":"m 390 -21 q 89 260 89 -21 l 89 450 q 162 666 89 592 q 379 740 235 740 q 543 722 446 740 l 543 985 q 553 1018 543 1008 q 586 1028 563 1028 l 663 1028 q 695 1018 686 1028 q 704 985 704 1008 l 704 100 q 694 51 704 65 q 650 24 683 38 q 390 -21 532 -21 m 793 707 q 770 713 775 707 q 767 736 765 718 l 801 983 q 815 1019 804 1010 q 851 1028 825 1028 l 913 1028 q 951 983 964 1028 l 879 746 q 865 715 872 724 q 836 707 857 707 l 793 707 m 290 162 q 309 144 290 162 q 404 126 329 126 q 533 142 479 126 q 543 157 543 146 l 543 575 q 410 593 460 593 q 250 446 250 593 l 250 265 q 290 162 250 197 z "},"Đ":{"ha":967,"x_min":18,"x_max":890,"o":"m 175 0 q 138 10 149 0 q 128 47 128 21 l 128 453 l 46 453 q 24 459 29 453 q 18 483 18 465 l 18 535 q 46 565 18 565 l 128 565 l 128 939 q 138 976 128 965 q 175 986 149 986 l 488 986 q 785 888 679 986 q 890 619 890 790 l 890 367 q 785 98 890 196 q 488 0 679 0 l 175 0 m 301 163 l 489 163 q 657 215 599 163 q 715 365 715 267 l 715 621 q 657 772 715 719 q 489 824 599 824 l 301 824 l 301 565 l 488 565 q 509 559 503 565 q 515 535 515 553 l 515 483 q 510 459 515 465 q 488 453 504 453 l 301 453 l 301 163 z "},"đ":{"ha":774,"x_min":69,"x_max":788,"o":"m 369 -21 q 69 260 69 -21 l 69 450 q 142 666 69 592 q 358 740 215 740 q 524 722 426 740 l 524 826 l 356 826 q 334 833 340 826 q 328 857 328 839 l 328 897 q 356 926 328 926 l 524 926 l 524 985 q 533 1018 524 1008 q 567 1028 543 1028 l 642 1028 q 676 1018 667 1028 q 685 985 685 1008 l 685 926 l 760 926 q 781 920 775 926 q 788 897 788 914 l 788 857 q 781 833 788 839 q 760 826 775 826 l 685 826 l 685 100 q 674 51 685 65 q 631 24 664 38 q 369 -21 513 -21 m 385 126 q 514 142 457 126 q 524 157 524 146 l 524 575 q 390 593 440 593 q 231 446 231 593 l 231 265 q 270 162 231 197 q 385 126 310 126 z "},"Ē":{"ha":825,"x_min":107,"x_max":769,"o":"m 271 1093 q 239 1101 247 1093 q 231 1133 231 1110 l 231 1168 q 240 1200 231 1192 q 271 1208 249 1208 l 592 1208 q 624 1200 615 1208 q 632 1168 632 1192 l 632 1133 q 624 1101 632 1110 q 592 1093 615 1093 l 271 1093 m 154 0 q 117 10 128 0 q 107 47 107 21 l 107 939 q 117 976 107 965 q 154 986 128 986 l 707 986 q 744 976 733 986 q 754 939 754 965 l 754 871 q 744 834 754 844 q 707 824 733 824 l 281 824 l 281 581 l 640 581 q 677 570 667 581 q 688 533 688 560 l 688 465 q 677 428 688 439 q 640 418 667 418 l 281 418 l 281 163 l 722 163 q 759 152 749 163 q 769 115 769 142 l 769 47 q 759 10 769 21 q 722 0 749 0 l 154 0 z "},"ē":{"ha":767,"x_min":65,"x_max":715,"o":"m 228 857 q 196 865 204 857 q 188 897 188 874 l 188 932 q 197 964 188 956 q 228 972 206 972 l 549 972 q 581 964 572 972 q 589 932 589 956 l 589 897 q 581 865 589 874 q 549 857 572 857 l 228 857 m 385 -21 q 144 60 222 -21 q 65 276 65 140 l 65 440 q 148 663 65 586 q 388 740 231 740 q 628 660 546 740 q 710 453 710 579 l 710 368 q 647 308 710 308 l 226 308 l 226 257 q 267 153 226 189 q 386 118 308 118 q 550 192 501 118 q 580 219 565 215 q 619 208 594 222 l 668 182 q 685 113 715 160 q 385 -21 603 -21 m 226 432 l 549 432 l 549 463 q 508 567 549 531 q 388 604 467 604 q 268 567 310 604 q 226 463 226 531 l 226 432 z "},"Ĕ":{"ha":825,"x_min":107,"x_max":769,"o":"m 431 1056 q 296 1093 353 1056 q 217 1199 239 1131 q 236 1238 207 1226 l 292 1258 q 335 1244 324 1269 q 431 1172 356 1172 q 529 1244 504 1172 q 565 1260 540 1269 l 628 1238 q 647 1199 656 1225 q 567 1093 624 1131 q 431 1056 510 1056 m 154 0 q 117 10 128 0 q 107 47 107 21 l 107 939 q 117 976 107 965 q 154 986 128 986 l 707 986 q 744 976 733 986 q 754 939 754 965 l 754 871 q 744 834 754 844 q 707 824 733 824 l 281 824 l 281 581 l 640 581 q 677 570 667 581 q 688 533 688 560 l 688 465 q 677 428 688 439 q 640 418 667 418 l 281 418 l 281 163 l 722 163 q 759 152 749 163 q 769 115 769 142 l 769 47 q 759 10 769 21 q 722 0 749 0 l 154 0 z "},"ĕ":{"ha":767,"x_min":65,"x_max":715,"o":"m 388 818 q 253 856 310 818 q 174 960 197 893 q 193 1000 164 989 l 249 1021 q 292 1006 281 1031 q 388 933 315 933 q 486 1006 458 933 q 522 1022 496 1029 l 585 1000 q 604 960 613 988 q 523 856 579 893 q 388 818 467 818 m 385 -21 q 144 60 222 -21 q 65 276 65 140 l 65 440 q 148 663 65 586 q 388 740 231 740 q 628 660 546 740 q 710 453 710 579 l 710 368 q 647 308 710 308 l 226 308 l 226 257 q 267 153 226 189 q 386 118 308 118 q 550 192 501 118 q 580 219 565 215 q 619 208 594 222 l 668 182 q 685 113 715 160 q 385 -21 603 -21 m 226 432 l 549 432 l 549 463 q 508 567 549 531 q 388 604 467 604 q 268 567 310 604 q 226 463 226 531 l 226 432 z "},"Ė":{"ha":825,"x_min":107,"x_max":769,"o":"m 426 1074 q 368 1089 383 1074 q 353 1147 353 1104 l 353 1158 q 368 1217 353 1201 q 426 1233 383 1233 l 435 1233 q 494 1217 478 1233 q 510 1158 510 1201 l 510 1147 q 494 1089 510 1104 q 435 1074 478 1074 l 426 1074 m 154 0 q 117 10 128 0 q 107 47 107 21 l 107 939 q 117 976 107 965 q 154 986 128 986 l 707 986 q 744 976 733 986 q 754 939 754 965 l 754 871 q 744 834 754 844 q 707 824 733 824 l 281 824 l 281 581 l 640 581 q 677 570 667 581 q 688 533 688 560 l 688 465 q 677 428 688 439 q 640 418 667 418 l 281 418 l 281 163 l 722 163 q 759 152 749 163 q 769 115 769 142 l 769 47 q 759 10 769 21 q 722 0 749 0 l 154 0 z "},"ė":{"ha":767,"x_min":65,"x_max":715,"o":"m 383 843 q 318 860 335 843 q 301 924 301 876 l 301 936 q 318 999 301 983 q 383 1015 335 1015 l 393 1015 q 458 999 442 1015 q 475 936 475 983 l 475 924 q 458 860 475 876 q 393 843 442 843 l 383 843 m 385 -21 q 144 60 222 -21 q 65 276 65 140 l 65 440 q 148 663 65 586 q 388 740 231 740 q 628 660 546 740 q 710 453 710 579 l 710 368 q 647 308 710 308 l 226 308 l 226 257 q 267 153 226 189 q 386 118 308 118 q 550 192 501 118 q 580 219 565 215 q 619 208 594 222 l 668 182 q 685 113 715 160 q 385 -21 603 -21 m 226 432 l 549 432 l 549 463 q 508 567 549 531 q 388 604 467 604 q 268 567 310 604 q 226 463 226 531 l 226 432 z "},"Ę":{"ha":825,"x_min":107,"x_max":774,"o":"m 632 -340 q 510 -254 529 -340 q 530 -129 496 -200 q 633 0 564 -58 l 154 0 q 117 10 128 0 q 107 47 107 21 l 107 939 q 117 976 107 965 q 154 986 128 986 l 707 986 q 744 976 733 986 q 754 939 754 965 l 754 871 q 744 834 754 844 q 707 824 733 824 l 281 824 l 281 581 l 640 581 q 677 570 667 581 q 688 533 688 560 l 688 465 q 677 428 688 439 q 640 418 667 418 l 281 418 l 281 163 l 722 163 q 759 152 749 163 q 769 115 769 142 l 769 47 q 753 6 769 22 q 670 -103 697 -47 q 650 -194 643 -158 q 686 -221 656 -221 q 719 -208 703 -221 q 746 -217 738 -197 l 765 -261 q 763 -290 774 -281 q 632 -340 713 -340 z "},"ę":{"ha":767,"x_min":65,"x_max":715,"o":"m 515 -340 q 392 -257 408 -340 q 500 -8 369 -147 q 385 -21 450 -21 q 144 60 222 -21 q 65 276 65 140 l 65 440 q 148 663 65 586 q 388 740 231 740 q 628 660 546 740 q 710 453 710 579 l 710 368 q 647 308 710 308 l 226 308 l 226 257 q 267 153 226 189 q 386 118 308 118 q 550 192 501 118 q 580 219 565 215 q 619 208 594 222 l 668 182 q 685 113 715 160 q 649 65 669 86 q 552 -88 583 -12 q 529 -193 521 -164 q 567 -222 538 -222 q 604 -208 586 -222 q 631 -217 621 -196 l 649 -261 q 647 -290 658 -281 q 515 -340 594 -340 m 226 432 l 549 432 l 549 463 q 508 567 549 531 q 388 604 467 604 q 268 567 310 604 q 226 463 226 531 l 226 432 z "},"Ě":{"ha":825,"x_min":107,"x_max":769,"o":"m 422 1053 q 377 1058 390 1053 q 340 1090 364 1064 l 199 1225 q 190 1249 185 1239 q 219 1260 194 1260 l 278 1260 q 315 1256 304 1260 q 343 1236 326 1253 l 426 1157 l 507 1236 q 534 1256 521 1251 q 575 1260 547 1260 l 638 1260 q 667 1249 663 1260 q 657 1225 671 1239 l 517 1090 q 478 1058 492 1064 q 439 1053 465 1053 l 422 1053 m 154 0 q 117 10 128 0 q 107 47 107 21 l 107 939 q 117 976 107 965 q 154 986 128 986 l 707 986 q 744 976 733 986 q 754 939 754 965 l 754 871 q 744 834 754 844 q 707 824 733 824 l 281 824 l 281 581 l 640 581 q 677 570 667 581 q 688 533 688 560 l 688 465 q 677 428 688 439 q 640 418 667 418 l 281 418 l 281 163 l 722 163 q 759 152 749 163 q 769 115 769 142 l 769 47 q 759 10 769 21 q 722 0 749 0 l 154 0 z "},"ě":{"ha":767,"x_min":65,"x_max":715,"o":"m 379 814 q 335 820 349 814 q 297 851 322 826 l 156 988 q 147 1012 142 1001 q 176 1022 151 1022 l 235 1022 q 273 1018 261 1022 q 300 997 285 1014 l 383 918 l 464 997 q 532 1022 486 1022 l 594 1022 q 624 1011 619 1022 q 614 988 628 1000 l 474 851 q 435 819 449 825 q 396 814 422 814 l 379 814 m 385 -21 q 144 60 222 -21 q 65 276 65 140 l 65 440 q 148 663 65 586 q 388 740 231 740 q 628 660 546 740 q 710 453 710 579 l 710 368 q 647 308 710 308 l 226 308 l 226 257 q 267 153 226 189 q 386 118 308 118 q 550 192 501 118 q 580 219 565 215 q 619 208 594 222 l 668 182 q 685 113 715 160 q 385 -21 603 -21 m 226 432 l 549 432 l 549 463 q 508 567 549 531 q 388 604 467 604 q 268 567 310 604 q 226 463 226 531 l 226 432 z "},"Ĝ":{"ha":940,"x_min":78,"x_max":872,"o":"m 268 1068 q 238 1078 243 1068 q 247 1103 233 1089 l 389 1239 q 427 1270 414 1264 q 471 1276 440 1276 l 488 1276 q 526 1271 513 1276 q 564 1239 539 1265 l 706 1103 q 715 1078 719 1089 q 685 1068 710 1068 l 622 1068 q 554 1093 576 1068 l 475 1172 l 390 1093 q 364 1072 375 1076 q 325 1068 353 1068 l 268 1068 m 475 -21 q 181 76 285 -21 q 78 342 78 172 l 78 646 q 181 910 78 814 q 475 1007 285 1007 q 853 775 774 1007 q 824 714 869 731 l 749 688 q 710 684 724 678 q 688 717 697 690 q 475 844 642 844 q 310 794 368 844 q 253 647 253 743 l 253 340 q 310 192 253 243 q 475 142 368 142 q 640 188 581 142 q 700 306 700 233 l 700 378 l 490 378 q 453 389 464 378 q 443 426 443 400 l 443 493 q 453 530 443 519 q 490 540 464 540 l 824 540 q 862 530 851 540 q 872 493 872 519 l 872 307 q 767 70 872 161 q 475 -21 663 -21 z "},"ĝ":{"ha":772,"x_min":60,"x_max":683,"o":"m 189 817 q 159 827 164 817 q 168 851 154 838 l 310 988 q 347 1018 333 1013 q 392 1024 360 1024 l 408 1024 q 447 1018 435 1024 q 485 988 460 1013 l 626 851 q 635 827 640 838 q 606 817 631 817 l 543 817 q 475 840 497 817 l 396 919 l 311 840 q 285 820 296 824 q 246 817 274 817 l 189 817 m 378 -326 q 90 -193 169 -326 q 107 -124 60 -149 l 160 -94 q 199 -85 185 -82 q 229 -111 214 -89 q 375 -182 274 -182 q 522 -32 522 -182 l 522 38 q 356 13 428 13 q 140 85 211 13 q 68 292 68 157 l 68 449 q 381 740 68 740 q 632 697 538 740 q 674 668 665 682 q 683 621 683 654 l 683 -24 q 609 -247 683 -167 q 378 -326 535 -326 m 379 160 q 522 179 442 160 l 522 561 q 511 578 522 574 q 393 593 453 593 q 269 557 308 593 q 229 443 229 521 l 229 296 q 379 160 229 160 z "},"Ğ":{"ha":940,"x_min":78,"x_max":872,"o":"m 475 1069 q 340 1107 397 1069 q 261 1213 283 1144 q 281 1251 251 1240 l 336 1272 q 379 1258 368 1283 q 475 1186 400 1186 q 574 1258 549 1186 q 610 1274 585 1283 l 672 1251 q 692 1213 700 1239 q 611 1107 668 1144 q 475 1069 554 1069 m 475 -21 q 181 76 285 -21 q 78 342 78 172 l 78 646 q 181 910 78 814 q 475 1007 285 1007 q 853 775 774 1007 q 824 714 869 731 l 749 688 q 710 684 724 678 q 688 717 697 690 q 475 844 642 844 q 310 794 368 844 q 253 647 253 743 l 253 340 q 310 192 253 243 q 475 142 368 142 q 640 188 581 142 q 700 306 700 233 l 700 378 l 490 378 q 453 389 464 378 q 443 426 443 400 l 443 493 q 453 530 443 519 q 490 540 464 540 l 824 540 q 862 530 851 540 q 872 493 872 519 l 872 307 q 767 70 872 161 q 475 -21 663 -21 z "},"ğ":{"ha":772,"x_min":60,"x_max":683,"o":"m 394 818 q 260 856 317 818 q 181 960 204 893 q 200 1000 172 989 l 256 1021 q 299 1006 288 1031 q 394 933 322 933 q 493 1006 465 933 q 529 1022 503 1029 l 592 1000 q 611 960 619 988 q 530 856 586 893 q 394 818 474 818 m 378 -326 q 90 -193 169 -326 q 107 -124 60 -149 l 160 -94 q 199 -85 185 -82 q 229 -111 214 -89 q 375 -182 274 -182 q 522 -32 522 -182 l 522 38 q 356 13 428 13 q 140 85 211 13 q 68 292 68 157 l 68 449 q 381 740 68 740 q 632 697 538 740 q 674 668 665 682 q 683 621 683 654 l 683 -24 q 609 -247 683 -167 q 378 -326 535 -326 m 379 160 q 522 179 442 160 l 522 561 q 511 578 522 574 q 393 593 453 593 q 269 557 308 593 q 229 443 229 521 l 229 296 q 379 160 229 160 z "},"Ġ":{"ha":940,"x_min":78,"x_max":872,"o":"m 471 1088 q 413 1103 428 1088 q 397 1161 397 1118 l 397 1172 q 413 1231 397 1215 q 471 1247 428 1247 l 479 1247 q 538 1231 522 1247 q 554 1172 554 1215 l 554 1161 q 538 1103 554 1118 q 479 1088 522 1088 l 471 1088 m 475 -21 q 181 76 285 -21 q 78 342 78 172 l 78 646 q 181 910 78 814 q 475 1007 285 1007 q 853 775 774 1007 q 824 714 869 731 l 749 688 q 710 684 724 678 q 688 717 697 690 q 475 844 642 844 q 310 794 368 844 q 253 647 253 743 l 253 340 q 310 192 253 243 q 475 142 368 142 q 640 188 581 142 q 700 306 700 233 l 700 378 l 490 378 q 453 389 464 378 q 443 426 443 400 l 443 493 q 453 530 443 519 q 490 540 464 540 l 824 540 q 862 530 851 540 q 872 493 872 519 l 872 307 q 767 70 872 161 q 475 -21 663 -21 z "},"ġ":{"ha":772,"x_min":60,"x_max":683,"o":"m 390 843 q 325 860 342 843 q 308 924 308 876 l 308 936 q 325 999 308 983 q 390 1015 342 1015 l 400 1015 q 465 999 449 1015 q 482 936 482 983 l 482 924 q 465 860 482 876 q 400 843 449 843 l 390 843 m 378 -326 q 90 -193 169 -326 q 107 -124 60 -149 l 160 -94 q 199 -85 185 -82 q 229 -111 214 -89 q 375 -182 274 -182 q 522 -32 522 -182 l 522 38 q 356 13 428 13 q 140 85 211 13 q 68 292 68 157 l 68 449 q 381 740 68 740 q 632 697 538 740 q 674 668 665 682 q 683 621 683 654 l 683 -24 q 609 -247 683 -167 q 378 -326 535 -326 m 379 160 q 522 179 442 160 l 522 561 q 511 578 522 574 q 393 593 453 593 q 269 557 308 593 q 229 443 229 521 l 229 296 q 379 160 229 160 z "},"Ģ":{"ha":940,"x_min":78,"x_max":872,"o":"m 475 -21 q 181 76 285 -21 q 78 342 78 172 l 78 646 q 181 910 78 814 q 475 1007 285 1007 q 853 775 774 1007 q 824 714 869 731 l 749 688 q 710 684 724 678 q 688 717 697 690 q 475 844 642 844 q 310 794 368 844 q 253 647 253 743 l 253 340 q 310 192 253 243 q 475 142 368 142 q 640 188 581 142 q 700 306 700 233 l 700 378 l 490 378 q 453 389 464 378 q 443 426 443 400 l 443 493 q 453 530 443 519 q 490 540 464 540 l 824 540 q 862 530 851 540 q 872 493 872 519 l 872 307 q 767 70 872 161 q 475 -21 663 -21 m 414 -357 q 390 -351 396 -357 q 388 -326 385 -344 l 415 -129 q 429 -94 418 -103 q 467 -85 440 -85 l 539 -85 q 581 -129 596 -85 l 515 -317 q 498 -348 508 -339 q 467 -357 488 -357 l 414 -357 z "},"ģ":{"ha":772,"x_min":60,"x_max":683,"o":"m 347 800 q 310 850 292 800 l 365 994 q 383 1026 372 1018 q 418 1033 394 1033 l 460 1033 q 487 1027 481 1033 q 490 1001 493 1021 l 463 850 q 447 810 460 821 q 407 800 435 800 l 347 800 m 378 -326 q 90 -193 169 -326 q 107 -124 60 -149 l 160 -94 q 199 -85 185 -82 q 229 -111 214 -89 q 375 -182 274 -182 q 522 -32 522 -182 l 522 38 q 356 13 428 13 q 140 85 211 13 q 68 292 68 157 l 68 449 q 381 740 68 740 q 632 697 538 740 q 674 668 665 682 q 683 621 683 654 l 683 -24 q 609 -247 683 -167 q 378 -326 535 -326 m 379 160 q 522 179 442 160 l 522 561 q 511 578 522 574 q 393 593 453 593 q 269 557 308 593 q 229 443 229 521 l 229 296 q 379 160 229 160 z "},"Ĥ":{"ha":974,"x_min":107,"x_max":867,"o":"m 281 1054 q 251 1065 256 1054 q 260 1089 246 1075 l 401 1225 q 440 1256 426 1250 q 483 1263 453 1263 l 500 1263 q 538 1257 525 1263 q 576 1225 551 1251 l 718 1089 q 727 1065 732 1075 q 697 1054 722 1054 l 635 1054 q 567 1079 589 1054 l 488 1158 l 403 1079 q 376 1058 388 1063 q 338 1054 365 1054 l 281 1054 m 154 0 q 117 10 128 0 q 107 47 107 21 l 107 939 q 117 976 107 965 q 154 986 128 986 l 233 986 q 270 976 260 986 q 281 939 281 965 l 281 581 l 693 581 l 693 939 q 703 976 693 965 q 740 986 714 986 l 819 986 q 856 976 846 986 q 867 939 867 965 l 867 47 q 856 10 867 21 q 819 0 846 0 l 740 0 q 703 10 714 0 q 693 47 693 21 l 693 418 l 281 418 l 281 47 q 270 10 281 21 q 233 0 260 0 l 154 0 z "},"ĥ":{"ha":792,"x_min":-69,"x_max":707,"o":"m -35 1076 q -65 1087 -60 1076 q -56 1111 -69 1097 l 86 1247 q 124 1278 111 1272 q 168 1285 138 1285 l 185 1285 q 223 1279 210 1285 q 261 1247 236 1274 l 403 1111 q 412 1087 417 1097 q 382 1076 407 1076 l 319 1076 q 251 1101 274 1076 l 172 1181 l 88 1101 q 61 1081 72 1085 q 22 1076 50 1076 l -35 1076 m 133 0 q 101 10 110 0 q 92 43 92 19 l 92 985 q 101 1018 92 1008 q 133 1028 110 1028 l 210 1028 q 243 1018 233 1028 q 253 985 253 1008 l 253 721 q 313 733 264 726 q 418 740 363 740 q 707 461 707 740 l 707 43 q 698 10 707 19 q 664 0 689 0 l 589 0 q 556 10 565 0 q 546 43 546 19 l 546 457 q 394 593 546 593 q 253 572 290 593 l 253 43 q 243 10 253 19 q 210 0 233 0 l 133 0 z "},"Ħ":{"ha":990,"x_min":24,"x_max":968,"o":"m 163 0 q 126 10 136 0 q 115 47 115 21 l 115 744 l 51 744 q 29 751 35 744 q 24 775 24 757 l 24 815 q 51 844 24 844 l 115 844 l 115 939 q 126 976 115 965 q 163 986 136 986 l 242 986 q 278 976 268 986 q 289 939 289 965 l 289 844 l 701 844 l 701 939 q 712 976 701 965 q 749 986 722 986 l 828 986 q 865 976 854 986 q 875 939 875 965 l 875 844 l 940 844 q 963 838 957 844 q 968 815 968 832 l 968 775 q 963 751 968 757 q 940 744 957 744 l 875 744 l 875 47 q 865 10 875 21 q 828 0 854 0 l 749 0 q 712 10 722 0 q 701 47 701 21 l 701 418 l 289 418 l 289 47 q 278 10 289 21 q 242 0 268 0 l 163 0 m 289 581 l 701 581 l 701 744 l 289 744 l 289 581 z "},"ħ":{"ha":792,"x_min":18,"x_max":707,"o":"m 133 0 q 101 10 110 0 q 92 43 92 19 l 92 831 l 46 831 q 24 837 29 831 q 18 861 18 843 l 18 896 q 46 926 18 926 l 92 926 l 92 985 q 101 1018 92 1008 q 133 1028 110 1028 l 210 1028 q 243 1018 233 1028 q 253 985 253 1008 l 253 926 l 440 926 q 462 920 456 926 q 468 896 468 914 l 468 861 q 463 837 468 843 q 440 831 457 831 l 253 831 l 253 721 q 312 733 263 726 q 418 740 361 740 q 707 461 707 740 l 707 43 q 697 10 707 19 q 664 0 688 0 l 589 0 q 556 10 565 0 q 546 43 546 19 l 546 457 q 394 593 546 593 q 253 572 290 593 l 253 43 q 243 10 253 19 q 210 0 233 0 l 133 0 z "},"Ĩ":{"ha":388,"x_min":-26,"x_max":400,"o":"m 0 1063 q -26 1089 -26 1063 q 2 1208 -26 1172 q 89 1243 31 1243 q 194 1203 142 1243 q 272 1164 247 1164 q 304 1217 304 1164 q 329 1243 304 1243 l 374 1243 q 400 1217 400 1243 q 372 1098 400 1133 q 283 1063 344 1063 q 182 1102 235 1063 q 104 1142 129 1142 q 71 1089 71 1142 q 46 1063 71 1063 l 0 1063 m 154 0 q 117 10 128 0 q 107 47 107 21 l 107 939 q 117 976 107 965 q 154 986 128 986 l 233 986 q 270 976 260 986 q 281 939 281 965 l 281 47 q 270 10 281 21 q 233 0 260 0 l 154 0 z "},"ĩ":{"ha":342,"x_min":-10,"x_max":339,"o":"m 13 832 q -10 860 -10 832 q 15 979 -10 944 q 89 1014 40 1014 q 147 994 122 1014 q 189 956 171 975 q 226 938 207 938 q 256 988 256 938 q 276 1014 256 1014 l 317 1014 q 339 988 339 1014 q 315 867 339 901 q 240 832 292 832 q 164 868 201 832 q 106 904 126 904 q 75 860 75 904 q 54 832 75 832 l 13 832 m 133 0 q 100 10 110 0 q 90 43 90 19 l 90 678 q 100 710 90 701 q 133 719 110 719 l 208 719 q 242 710 232 719 q 251 678 251 701 l 251 43 q 242 10 251 19 q 208 0 232 0 l 133 0 z "},"Ī":{"ha":388,"x_min":-7,"x_max":394,"o":"m 33 1093 q 1 1101 10 1093 q -7 1133 -7 1110 l -7 1168 q 2 1200 -7 1192 q 33 1208 11 1208 l 354 1208 q 386 1200 378 1208 q 394 1168 394 1192 l 394 1133 q 386 1101 394 1110 q 354 1093 378 1093 l 33 1093 m 154 0 q 117 10 128 0 q 107 47 107 21 l 107 939 q 117 976 107 965 q 154 986 128 986 l 233 986 q 270 976 260 986 q 281 939 281 965 l 281 47 q 270 10 281 21 q 233 0 260 0 l 154 0 z "},"ī":{"ha":342,"x_min":33,"x_max":306,"o":"m 74 850 q 42 858 50 850 q 33 890 33 867 l 33 925 q 42 957 33 949 q 74 965 51 965 l 265 965 q 297 957 289 965 q 306 925 306 949 l 306 890 q 297 858 306 867 q 265 850 289 850 l 74 850 m 133 0 q 100 10 110 0 q 90 43 90 19 l 90 678 q 100 710 90 701 q 133 719 110 719 l 208 719 q 242 710 232 719 q 251 678 251 701 l 251 43 q 242 10 251 19 q 208 0 232 0 l 133 0 z "},"Ĭ":{"ha":388,"x_min":-31,"x_max":418,"o":"m 193 1056 q 58 1093 115 1056 q -21 1199 1 1131 q -1 1238 -31 1226 l 54 1258 q 97 1244 86 1269 q 193 1172 118 1172 q 292 1244 267 1172 q 328 1260 303 1269 l 390 1238 q 410 1199 418 1225 q 329 1093 386 1131 q 193 1056 272 1056 m 154 0 q 117 10 128 0 q 107 47 107 21 l 107 939 q 117 976 107 965 q 154 986 128 986 l 233 986 q 270 976 260 986 q 281 939 281 965 l 281 47 q 270 10 281 21 q 233 0 260 0 l 154 0 z "},"ĭ":{"ha":342,"x_min":-35,"x_max":376,"o":"m 171 811 q -25 953 21 811 q -6 992 -35 982 l 50 1014 q 93 999 82 1024 q 171 931 111 931 q 250 999 229 931 q 286 1014 261 1024 l 349 992 q 368 953 376 981 q 171 811 322 811 m 133 0 q 100 10 110 0 q 90 43 90 19 l 90 678 q 100 710 90 701 q 133 719 110 719 l 208 719 q 242 710 232 719 q 251 678 251 701 l 251 43 q 242 10 251 19 q 208 0 232 0 l 133 0 z "},"Į":{"ha":388,"x_min":29,"x_max":321,"o":"m 178 -340 q 54 -257 71 -340 q 160 0 29 -142 q 117 11 128 0 q 107 47 107 22 l 107 939 q 117 976 107 965 q 154 986 128 986 l 233 986 q 270 976 260 986 q 281 939 281 965 l 281 47 q 269 6 281 21 q 203 -109 221 -54 q 192 -193 185 -164 q 229 -222 200 -222 q 267 -208 249 -222 q 293 -217 283 -196 l 311 -261 q 310 -290 321 -279 q 178 -340 258 -340 z "},"į":{"ha":342,"x_min":29,"x_max":301,"o":"m 165 836 q 99 854 117 836 q 81 919 81 872 l 81 932 q 99 999 81 981 q 165 1017 117 1017 l 176 1017 q 242 999 225 1017 q 260 932 260 981 l 260 919 q 242 854 260 872 q 176 836 225 836 l 165 836 m 171 -340 q 49 -253 61 -340 q 129 0 29 -136 q 99 10 107 0 q 90 43 90 19 l 90 678 q 100 710 90 701 q 133 719 110 719 l 208 719 q 242 710 232 719 q 251 678 251 701 l 251 43 q 243 10 251 19 q 186 -192 172 -107 q 221 -222 193 -222 q 250 -210 239 -222 q 276 -217 269 -197 l 293 -261 q 292 -290 301 -279 q 171 -340 243 -340 z "},"İ":{"ha":388,"x_min":107,"x_max":281,"o":"m 189 1074 q 131 1089 146 1074 q 115 1147 115 1104 l 115 1158 q 131 1217 115 1201 q 189 1233 146 1233 l 197 1233 q 256 1217 240 1233 q 272 1158 272 1201 l 272 1147 q 256 1089 272 1104 q 197 1074 240 1074 l 189 1074 m 154 0 q 117 10 128 0 q 107 47 107 21 l 107 939 q 117 976 107 965 q 154 986 128 986 l 233 986 q 270 976 260 986 q 281 939 281 965 l 281 47 q 270 10 281 21 q 233 0 260 0 l 154 0 z "},"ı":{"ha":342,"x_min":90,"x_max":251,"o":"m 133 0 q 100 10 110 0 q 90 43 90 19 l 90 678 q 100 710 90 701 q 133 719 110 719 l 208 719 q 242 710 232 719 q 251 678 251 701 l 251 43 q 242 10 251 19 q 208 0 232 0 l 133 0 z "},"Ĳ":{"ha":1210,"x_min":107,"x_max":1110,"o":"m 154 0 q 117 10 128 0 q 107 47 107 21 l 107 939 q 117 976 107 965 q 154 986 128 986 l 233 986 q 270 976 260 986 q 281 939 281 965 l 281 47 q 270 10 281 21 q 233 0 260 0 l 154 0 m 756 -21 q 419 211 494 -21 q 417 249 411 236 q 449 272 424 263 l 525 299 q 562 302 550 308 q 585 269 574 296 q 647 173 607 204 q 756 142 686 142 q 936 324 936 142 l 936 940 q 946 976 936 965 q 982 986 956 986 l 1064 986 q 1100 976 1090 986 q 1110 940 1110 965 l 1110 325 q 1019 71 1110 163 q 756 -21 928 -21 z "},"ĳ":{"ha":685,"x_min":83,"x_max":601,"o":"m 165 843 q 100 860 117 843 q 83 924 83 876 l 83 936 q 100 999 83 983 q 165 1015 117 1015 l 176 1015 q 242 999 225 1015 q 258 936 258 983 l 258 924 q 242 860 258 876 q 176 843 225 843 l 165 843 m 508 843 q 443 860 460 843 q 426 924 426 876 l 426 936 q 443 999 426 983 q 508 1015 460 1015 l 519 1015 q 585 999 568 1015 q 601 936 601 983 l 601 924 q 585 860 601 876 q 519 843 568 843 l 508 843 m 133 0 q 100 10 110 0 q 90 43 90 19 l 90 678 q 100 710 90 701 q 133 719 110 719 l 208 719 q 242 710 232 719 q 251 678 251 701 l 251 43 q 242 10 251 19 q 208 0 232 0 l 133 0 m 276 -319 q 242 -310 251 -319 q 233 -275 233 -300 l 233 -214 q 242 -179 233 -189 q 276 -169 251 -169 q 397 -128 361 -169 q 433 -6 433 -86 l 433 678 q 442 710 433 701 q 476 719 451 719 l 550 719 q 585 710 575 719 q 594 678 594 701 l 594 -10 q 276 -319 594 -319 z "},"Ĵ":{"ha":822,"x_min":24,"x_max":881,"o":"m 429 1054 q 399 1065 404 1054 q 408 1089 394 1075 l 550 1225 q 588 1256 575 1250 q 632 1263 601 1263 l 649 1263 q 687 1257 674 1263 q 725 1225 700 1251 l 867 1089 q 876 1065 881 1075 q 846 1054 871 1054 l 783 1054 q 715 1079 738 1054 l 636 1158 l 551 1079 q 525 1058 536 1063 q 486 1054 514 1054 l 429 1054 m 368 -21 q 32 211 107 -21 q 30 249 24 236 q 61 272 36 263 l 138 299 q 174 302 163 308 q 197 269 186 296 q 259 173 219 204 q 368 142 299 142 q 549 324 549 142 l 549 940 q 558 976 549 965 q 594 986 568 986 l 676 986 q 713 976 703 986 q 722 940 722 965 l 722 325 q 631 71 722 163 q 368 -21 540 -21 z "},"ĵ":{"ha":343,"x_min":-108,"x_max":421,"o":"m -25 808 q -44 842 -72 808 l 86 975 q 124 1006 111 1000 q 168 1011 138 1011 l 183 1011 q 222 1006 208 1011 q 260 975 235 1000 l 390 842 q 369 808 421 808 l 310 808 q 269 812 282 808 q 243 831 256 815 l 172 908 l 97 831 q 69 812 81 815 q 32 808 58 808 l -25 808 m -65 -319 q -99 -310 -90 -319 q -108 -275 -108 -300 l -108 -214 q -99 -179 -108 -189 q -65 -169 -90 -169 q 56 -128 19 -169 q 92 -6 92 -86 l 92 678 q 101 710 92 701 q 135 719 110 719 l 208 719 q 243 710 233 719 q 253 678 253 701 l 253 -10 q -65 -319 253 -319 z "},"Ķ":{"ha":892,"x_min":107,"x_max":881,"o":"m 154 0 q 117 10 128 0 q 107 47 107 21 l 107 939 q 117 976 107 965 q 154 986 128 986 l 233 986 q 270 976 260 986 q 281 939 281 965 l 281 579 l 336 579 l 354 579 l 633 947 q 669 979 653 972 q 728 986 686 986 l 817 986 q 847 972 840 986 q 839 940 853 958 l 529 544 q 679 386 618 506 l 856 47 q 832 0 881 0 l 751 0 q 688 8 707 0 q 657 42 669 17 l 518 324 q 456 401 489 381 q 351 421 422 421 l 281 421 l 281 47 q 270 10 281 21 q 233 0 260 0 l 154 0 m 382 -357 q 358 -351 364 -357 q 356 -326 353 -344 l 383 -129 q 397 -94 386 -103 q 435 -85 408 -85 l 507 -85 q 549 -129 564 -85 l 483 -317 q 466 -348 476 -339 q 435 -357 456 -357 l 382 -357 z "},"ķ":{"ha":746,"x_min":92,"x_max":731,"o":"m 136 0 q 101 10 110 0 q 92 44 92 19 l 92 983 q 101 1018 92 1008 q 136 1028 110 1028 l 207 1028 q 243 1018 233 1028 q 253 983 253 1008 l 253 442 l 314 442 l 325 442 l 513 688 q 542 715 528 710 q 596 719 557 719 l 664 719 q 692 669 731 719 l 482 410 q 582 294 539 382 l 704 51 q 713 12 718 24 q 676 0 707 0 l 607 0 q 558 7 571 0 q 532 39 544 14 l 446 224 q 404 276 429 261 q 336 292 379 292 l 253 292 l 253 44 q 243 10 253 19 q 207 0 233 0 l 136 0 m 285 -357 q 261 -351 267 -357 q 258 -326 256 -344 l 286 -129 q 300 -94 289 -103 q 338 -85 311 -85 l 410 -85 q 451 -129 467 -85 l 386 -317 q 369 -348 379 -339 q 338 -357 358 -357 l 285 -357 z "},"ĸ":{"ha":719,"x_min":90,"x_max":717,"o":"m 135 0 q 100 10 110 0 q 90 44 90 19 l 90 676 q 100 710 90 701 q 135 719 110 719 l 206 719 q 242 710 232 719 q 251 676 251 701 l 251 407 l 489 688 q 521 715 507 710 q 572 719 535 719 l 642 719 q 668 669 711 719 l 431 392 l 679 51 q 651 0 717 0 l 582 0 q 525 6 543 0 q 492 35 507 13 l 326 269 l 251 182 l 251 44 q 242 10 251 19 q 206 0 232 0 l 135 0 z "},"Ĺ":{"ha":754,"x_min":10,"x_max":726,"o":"m 108 1060 q 54 1061 68 1044 l 35 1088 q 38 1132 10 1118 l 242 1256 q 321 1253 293 1283 l 356 1208 q 369 1188 367 1196 q 368 1173 372 1179 q 350 1161 364 1167 l 108 1060 m 154 0 q 117 10 128 0 q 107 47 107 21 l 107 939 q 117 976 107 965 q 154 986 128 986 l 233 986 q 270 976 260 986 q 281 939 281 965 l 281 163 l 679 163 q 716 152 706 163 q 726 115 726 142 l 726 47 q 716 10 726 21 q 679 0 706 0 l 154 0 z "},"ĺ":{"ha":350,"x_min":-10,"x_max":353,"o":"m 89 1065 q 35 1067 49 1050 l 15 1093 q 18 1138 -10 1124 l 222 1260 q 301 1258 274 1290 l 336 1214 q 350 1193 347 1201 q 349 1178 353 1185 q 331 1167 344 1171 l 89 1065 m 138 0 q 104 10 114 0 q 94 43 94 19 l 94 985 q 104 1018 94 1008 q 138 1028 114 1028 l 213 1028 q 246 1018 236 1028 q 256 985 256 1008 l 256 43 q 246 10 256 19 q 213 0 236 0 l 138 0 z "},"Ļ":{"ha":754,"x_min":107,"x_max":726,"o":"m 154 0 q 117 10 128 0 q 107 47 107 21 l 107 939 q 117 976 107 965 q 154 986 128 986 l 233 986 q 270 976 260 986 q 281 939 281 965 l 281 163 l 679 163 q 716 152 706 163 q 726 115 726 142 l 726 47 q 716 10 726 21 q 679 0 706 0 l 154 0 m 329 -357 q 306 -351 311 -357 q 303 -326 300 -344 l 331 -129 q 344 -94 333 -103 q 382 -85 356 -85 l 454 -85 q 496 -129 511 -85 l 431 -317 q 413 -348 424 -339 q 382 -357 403 -357 l 329 -357 z "},"ļ":{"ha":350,"x_min":57,"x_max":268,"o":"m 138 0 q 104 10 114 0 q 94 43 94 19 l 94 985 q 104 1018 94 1008 q 138 1028 114 1028 l 213 1028 q 246 1018 236 1028 q 256 985 256 1008 l 256 43 q 246 10 256 19 q 213 0 236 0 l 138 0 m 86 -357 q 63 -351 68 -357 q 60 -326 57 -344 l 88 -129 q 101 -94 90 -103 q 139 -85 113 -85 l 211 -85 q 253 -129 268 -85 l 188 -317 q 170 -348 181 -339 q 139 -357 160 -357 l 86 -357 z "},"Ľ":{"ha":756,"x_min":126,"x_max":747,"o":"m 174 0 q 137 10 147 0 q 126 47 126 21 l 126 939 q 137 976 126 965 q 174 986 147 986 l 254 986 q 291 976 281 986 q 301 939 301 965 l 301 163 l 700 163 q 737 152 726 163 q 747 115 747 142 l 747 47 q 737 10 747 21 q 700 0 726 0 l 174 0 m 472 668 q 449 674 454 668 q 446 697 444 679 l 479 942 q 492 977 482 968 q 529 986 503 986 l 596 986 q 633 942 650 986 l 558 707 q 511 668 547 668 l 472 668 z "},"ľ":{"ha":361,"x_min":94,"x_max":539,"o":"m 138 0 q 104 10 114 0 q 94 43 94 19 l 94 985 q 104 1018 94 1008 q 138 1028 114 1028 l 213 1028 q 246 1018 236 1028 q 256 985 256 1008 l 256 43 q 246 10 256 19 q 213 0 236 0 l 138 0 m 367 744 q 344 750 349 744 q 340 774 339 756 l 368 983 q 381 1019 371 1010 q 418 1028 392 1028 l 483 1028 q 522 983 539 1028 l 453 782 q 435 752 444 760 q 404 744 425 744 l 367 744 z "},"Ŀ":{"ha":756,"x_min":107,"x_max":726,"o":"m 154 0 q 117 10 128 0 q 107 47 107 21 l 107 939 q 117 976 107 965 q 154 986 128 986 l 233 986 q 270 976 260 986 q 281 939 281 965 l 281 163 l 679 163 q 716 152 706 163 q 726 115 726 142 l 726 47 q 716 10 726 21 q 679 0 706 0 l 154 0 m 538 435 q 467 454 486 435 q 449 525 449 474 l 449 538 q 467 607 449 588 q 538 626 486 626 l 547 626 q 618 607 599 626 q 638 538 638 588 l 638 525 q 618 454 638 474 q 547 435 599 435 l 538 435 z "},"ŀ":{"ha":556,"x_min":94,"x_max":560,"o":"m 138 0 q 104 10 114 0 q 94 43 94 19 l 94 985 q 104 1018 94 1008 q 138 1028 114 1028 l 213 1028 q 246 1018 236 1028 q 256 985 256 1008 l 256 43 q 246 10 256 19 q 213 0 236 0 l 138 0 m 461 428 q 390 447 410 428 q 371 517 371 465 l 371 529 q 390 599 371 581 q 461 618 410 618 l 471 618 q 541 599 522 618 q 560 529 560 581 l 560 517 q 541 447 560 465 q 471 428 522 428 l 461 428 z "},"Ł":{"ha":801,"x_min":-10,"x_max":771,"o":"m 199 0 q 162 10 172 0 q 151 47 151 21 l 151 360 l 75 325 q 31 340 44 310 l 6 390 q 18 431 -10 419 l 151 492 l 151 939 q 162 976 151 965 q 199 986 172 986 l 278 986 q 315 976 304 986 q 325 939 325 965 l 325 571 l 539 669 q 586 654 568 683 l 610 603 q 594 563 625 575 l 325 439 l 325 163 l 724 163 q 760 152 750 163 q 771 115 771 142 l 771 47 q 760 10 771 21 q 724 0 750 0 l 199 0 z "},"ł":{"ha":483,"x_min":10,"x_max":476,"o":"m 201 0 q 168 10 178 0 q 158 43 158 19 l 158 408 l 99 375 q 51 386 67 360 l 24 433 q 36 475 10 461 l 158 543 l 158 985 q 168 1018 158 1008 q 201 1028 178 1028 l 276 1028 q 310 1018 300 1028 q 319 985 319 1008 l 319 629 l 386 667 q 433 656 417 682 l 460 608 q 449 567 476 582 l 319 496 l 319 43 q 310 10 319 19 q 276 0 300 0 l 201 0 z "},"Ń":{"ha":986,"x_min":107,"x_max":881,"o":"m 408 1060 q 354 1061 368 1044 l 335 1088 q 338 1132 310 1118 l 542 1256 q 621 1253 593 1283 l 656 1208 q 669 1188 667 1196 q 668 1173 672 1179 q 650 1161 664 1167 l 408 1060 m 154 0 q 117 10 128 0 q 107 47 107 21 l 107 939 q 117 976 107 965 q 154 986 128 986 l 233 986 q 279 964 264 986 l 617 464 q 676 361 649 417 q 717 267 703 306 q 733 228 732 229 l 742 228 q 735 272 742 231 q 720 380 728 314 q 713 508 713 446 l 713 939 q 723 976 713 965 q 760 986 733 986 l 833 986 q 870 976 860 986 q 881 939 881 965 l 881 47 q 870 10 881 21 q 833 0 860 0 l 754 0 q 707 24 721 0 l 367 526 q 311 626 338 569 q 269 720 285 682 q 253 760 254 758 l 244 760 q 252 716 244 758 q 267 608 260 674 q 275 483 275 542 l 275 47 q 265 10 275 21 q 228 0 254 0 l 154 0 z "},"ń":{"ha":789,"x_min":89,"x_max":704,"o":"m 310 822 q 256 825 269 807 l 236 850 q 223 878 222 868 q 239 896 224 888 l 443 1018 q 522 1015 494 1049 l 557 972 q 571 951 568 960 q 569 936 574 943 q 551 924 565 929 l 310 822 m 131 0 q 98 10 107 0 q 89 43 89 19 l 89 614 q 99 663 89 647 q 142 693 110 679 q 415 740 263 740 q 704 461 704 740 l 704 43 q 694 10 704 19 q 661 0 685 0 l 586 0 q 553 10 563 0 q 543 43 543 19 l 543 457 q 392 593 543 593 q 258 575 325 593 q 250 561 250 571 l 250 43 q 240 10 250 19 q 207 0 231 0 l 131 0 z "},"Ņ":{"ha":986,"x_min":107,"x_max":881,"o":"m 154 0 q 117 10 128 0 q 107 47 107 21 l 107 939 q 117 976 107 965 q 154 986 128 986 l 233 986 q 279 964 264 986 l 617 464 q 676 361 649 417 q 717 267 703 306 q 733 228 732 229 l 742 228 q 735 272 742 231 q 720 380 728 314 q 713 508 713 446 l 713 939 q 723 976 713 965 q 760 986 733 986 l 833 986 q 870 976 860 986 q 881 939 881 965 l 881 47 q 870 10 881 21 q 833 0 860 0 l 754 0 q 707 24 721 0 l 367 526 q 311 626 338 569 q 269 720 285 682 q 253 760 254 758 l 244 760 q 252 716 244 758 q 267 608 260 674 q 275 483 275 542 l 275 47 q 265 10 275 21 q 228 0 254 0 l 154 0 m 424 -357 q 400 -351 406 -357 q 397 -326 394 -344 l 425 -129 q 439 -94 428 -103 q 476 -85 450 -85 l 549 -85 q 590 -129 606 -85 l 525 -317 q 508 -348 518 -339 q 476 -357 497 -357 l 424 -357 z "},"ņ":{"ha":789,"x_min":89,"x_max":704,"o":"m 131 0 q 98 10 107 0 q 89 43 89 19 l 89 614 q 99 663 89 647 q 142 693 110 679 q 415 740 263 740 q 704 461 704 740 l 704 43 q 694 10 704 19 q 661 0 685 0 l 586 0 q 553 10 563 0 q 543 43 543 19 l 543 457 q 392 593 543 593 q 258 575 325 593 q 250 561 250 571 l 250 43 q 240 10 250 19 q 207 0 231 0 l 131 0 m 306 -357 q 282 -351 288 -357 q 279 -326 276 -344 l 307 -129 q 321 -94 310 -103 q 358 -85 332 -85 l 431 -85 q 472 -129 488 -85 l 407 -317 q 390 -348 400 -339 q 358 -357 379 -357 l 306 -357 z "},"Ň":{"ha":986,"x_min":107,"x_max":881,"o":"m 486 1053 q 441 1058 454 1053 q 404 1090 428 1064 l 263 1225 q 253 1249 249 1239 q 283 1260 258 1260 l 342 1260 q 380 1256 368 1260 q 407 1236 392 1253 l 490 1157 l 571 1236 q 598 1256 585 1251 q 639 1260 611 1260 l 701 1260 q 731 1249 726 1260 q 721 1225 735 1239 l 581 1090 q 542 1058 556 1064 q 503 1053 529 1053 l 486 1053 m 154 0 q 117 10 128 0 q 107 47 107 21 l 107 939 q 117 976 107 965 q 154 986 128 986 l 233 986 q 279 964 264 986 l 617 464 q 676 361 649 417 q 717 267 703 306 q 733 228 732 229 l 742 228 q 735 272 742 231 q 720 380 728 314 q 713 508 713 446 l 713 939 q 723 976 713 965 q 760 986 733 986 l 833 986 q 870 976 860 986 q 881 939 881 965 l 881 47 q 870 10 881 21 q 833 0 860 0 l 754 0 q 707 24 721 0 l 367 526 q 311 626 338 569 q 269 720 285 682 q 253 760 254 758 l 244 760 q 252 716 244 758 q 267 608 260 674 q 275 483 275 542 l 275 47 q 265 10 275 21 q 228 0 254 0 l 154 0 z "},"ň":{"ha":789,"x_min":89,"x_max":704,"o":"m 388 814 q 344 820 357 814 q 306 851 331 826 l 164 988 q 155 1012 150 1001 q 185 1022 160 1022 l 243 1022 q 281 1018 269 1022 q 308 997 293 1014 l 392 918 l 472 997 q 540 1022 494 1022 l 603 1022 q 632 1011 628 1022 q 622 988 636 1000 l 482 851 q 444 819 457 825 q 404 814 431 814 l 388 814 m 131 0 q 98 10 107 0 q 89 43 89 19 l 89 614 q 99 663 89 647 q 142 693 110 679 q 415 740 263 740 q 704 461 704 740 l 704 43 q 694 10 704 19 q 661 0 685 0 l 586 0 q 553 10 563 0 q 543 43 543 19 l 543 457 q 392 593 543 593 q 258 575 325 593 q 250 561 250 571 l 250 43 q 240 10 250 19 q 207 0 231 0 l 131 0 z "},"ŉ":{"ha":789,"x_min":54,"x_max":704,"o":"m 81 749 q 58 755 63 749 q 60 778 54 761 l 136 990 q 153 1020 144 1013 q 186 1028 163 1028 l 264 1028 q 292 983 319 1028 l 169 778 q 149 754 157 760 q 119 749 140 749 l 81 749 m 131 0 q 98 10 107 0 q 89 43 89 19 l 89 614 q 99 663 89 647 q 142 693 110 679 q 415 740 263 740 q 704 461 704 740 l 704 43 q 694 10 704 19 q 661 0 685 0 l 586 0 q 553 10 563 0 q 543 43 543 19 l 543 457 q 392 593 543 593 q 258 575 325 593 q 250 561 250 571 l 250 43 q 240 10 250 19 q 207 0 231 0 l 131 0 z "},"Ŋ":{"ha":986,"x_min":107,"x_max":881,"o":"m 556 -319 q 521 -310 531 -319 q 511 -275 511 -300 l 511 -214 q 521 -179 511 -189 q 556 -169 531 -169 q 713 -7 713 -169 l 713 15 l 367 526 q 311 626 338 569 q 269 720 285 682 q 253 760 254 758 l 244 760 q 252 717 244 758 q 267 612 260 676 q 275 489 275 547 l 275 47 q 265 10 275 21 q 228 0 254 0 l 154 0 q 117 10 128 0 q 107 47 107 21 l 107 939 q 117 976 107 965 q 154 986 128 986 l 233 986 q 279 964 264 986 l 617 464 q 676 361 649 417 q 717 267 703 306 q 733 228 732 229 l 742 228 q 735 272 742 231 q 720 380 728 314 q 713 508 713 446 l 713 939 q 723 976 713 965 q 760 986 733 986 l 833 986 q 870 976 860 986 q 881 939 881 965 l 881 -11 q 799 -239 881 -158 q 556 -319 717 -319 z "},"ŋ":{"ha":789,"x_min":89,"x_max":704,"o":"m 392 -319 q 359 -310 368 -319 q 350 -278 350 -301 l 350 -218 q 359 -185 350 -194 q 392 -176 368 -176 q 543 -18 543 -176 l 543 457 q 392 593 543 593 q 258 575 325 593 q 250 561 250 571 l 250 43 q 240 10 250 19 q 207 0 231 0 l 131 0 q 98 10 107 0 q 89 43 89 19 l 89 614 q 99 663 89 647 q 142 693 110 679 q 415 740 263 740 q 704 461 704 740 l 704 -24 q 626 -242 704 -165 q 392 -319 547 -319 z "},"Ō":{"ha":950,"x_min":78,"x_max":872,"o":"m 315 1107 q 283 1115 292 1107 q 275 1147 275 1124 l 275 1182 q 284 1214 275 1206 q 315 1222 293 1222 l 636 1222 q 668 1214 660 1222 q 676 1182 676 1206 l 676 1147 q 668 1115 676 1124 q 636 1107 660 1107 l 315 1107 m 769 76 q 717 27 769 76 q 475 -21 665 -21 q 181 76 285 -21 q 78 342 78 172 l 78 644 q 181 910 78 814 q 475 1007 285 1007 q 769 910 665 1007 q 872 644 872 814 l 872 342 q 769 76 872 172 m 310 192 q 339 167 310 192 q 475 142 368 142 q 640 192 582 142 q 697 340 697 243 l 697 646 q 640 794 697 743 q 475 844 582 844 q 310 794 368 844 q 253 646 253 743 l 253 340 q 310 192 253 243 z "},"ō":{"ha":775,"x_min":68,"x_max":707,"o":"m 226 857 q 194 865 203 857 q 186 897 186 874 l 186 932 q 195 964 186 956 q 226 972 204 972 l 547 972 q 579 964 571 972 q 588 932 588 956 l 588 897 q 579 865 588 874 q 547 857 571 857 l 226 857 m 386 -21 q 151 53 233 -21 q 68 257 68 126 l 68 463 q 151 667 68 593 q 386 740 233 740 q 624 667 542 740 q 707 463 707 593 l 707 257 q 624 53 707 126 q 386 -21 542 -21 m 386 125 q 505 160 464 125 q 546 257 546 194 l 546 463 q 505 560 546 526 q 386 594 464 594 q 269 560 310 594 q 229 463 229 526 l 229 257 q 270 160 229 194 q 386 125 311 125 z "},"Ŏ":{"ha":950,"x_min":78,"x_max":872,"o":"m 475 1069 q 340 1107 397 1069 q 261 1213 283 1144 q 281 1251 251 1240 l 336 1272 q 379 1258 368 1283 q 475 1186 400 1186 q 574 1258 549 1186 q 610 1274 585 1283 l 672 1251 q 692 1213 700 1239 q 611 1107 668 1144 q 475 1069 554 1069 m 769 76 q 717 27 769 76 q 475 -21 665 -21 q 181 76 285 -21 q 78 342 78 172 l 78 644 q 181 910 78 814 q 475 1007 285 1007 q 769 910 665 1007 q 872 644 872 814 l 872 342 q 769 76 872 172 m 310 192 q 339 167 310 192 q 475 142 368 142 q 640 192 582 142 q 697 340 697 243 l 697 646 q 640 794 697 743 q 475 844 582 844 q 310 794 368 844 q 253 646 253 743 l 253 340 q 310 192 253 243 z "},"ŏ":{"ha":775,"x_min":68,"x_max":707,"o":"m 386 818 q 252 856 308 818 q 172 960 196 893 q 192 1000 163 989 l 247 1021 q 290 1006 279 1031 q 386 933 314 933 q 485 1006 457 933 q 521 1022 494 1029 l 583 1000 q 603 960 611 988 q 522 856 578 893 q 386 818 465 818 m 386 -21 q 151 53 233 -21 q 68 257 68 126 l 68 463 q 151 667 68 593 q 386 740 233 740 q 624 667 542 740 q 707 463 707 593 l 707 257 q 624 53 707 126 q 386 -21 542 -21 m 386 125 q 505 160 464 125 q 546 257 546 194 l 546 463 q 505 560 546 526 q 386 594 464 594 q 269 560 310 594 q 229 463 229 526 l 229 257 q 270 160 229 194 q 386 125 311 125 z "},"Ő":{"ha":950,"x_min":78,"x_max":872,"o":"m 310 1072 l 286 1081 q 272 1122 250 1090 l 367 1254 q 440 1282 396 1294 l 488 1265 q 501 1218 532 1251 l 360 1090 q 310 1072 331 1064 m 535 1067 l 513 1074 q 497 1117 472 1085 l 603 1254 q 675 1282 633 1294 l 726 1265 q 740 1218 776 1250 l 586 1085 q 535 1067 556 1060 m 769 76 q 717 27 769 76 q 475 -21 665 -21 q 181 76 285 -21 q 78 342 78 172 l 78 644 q 181 910 78 814 q 475 1007 285 1007 q 769 910 665 1007 q 872 644 872 814 l 872 342 q 769 76 872 172 m 310 192 q 339 167 310 192 q 475 142 368 142 q 640 192 582 142 q 697 340 697 243 l 697 646 q 640 794 697 743 q 475 844 582 844 q 310 794 368 844 q 253 646 253 743 l 253 340 q 310 192 253 243 z "},"ő":{"ha":775,"x_min":68,"x_max":707,"o":"m 221 811 l 197 819 q 183 863 163 831 l 278 993 q 351 1021 306 1035 l 399 1004 q 413 957 442 990 l 271 829 q 221 811 242 803 m 446 807 l 422 814 q 408 857 386 825 l 514 992 q 586 1021 544 1033 l 639 1004 q 651 957 685 986 l 496 824 q 471 806 479 808 q 446 807 463 803 m 386 -21 q 151 53 233 -21 q 68 257 68 126 l 68 463 q 151 667 68 593 q 386 740 233 740 q 624 667 542 740 q 707 463 707 593 l 707 257 q 624 53 707 126 q 386 -21 542 -21 m 386 125 q 505 160 464 125 q 546 257 546 194 l 546 463 q 505 560 546 526 q 386 594 464 594 q 269 560 310 594 q 229 463 229 526 l 229 257 q 270 160 229 194 q 386 125 311 125 z "},"Œ":{"ha":1214,"x_min":78,"x_max":1157,"o":"m 475 -21 q 181 76 285 -21 q 78 342 78 172 l 78 644 q 181 910 78 814 q 475 1007 285 1007 q 631 986 564 1007 l 1096 986 q 1133 976 1122 986 q 1143 939 1143 965 l 1143 871 q 1133 834 1143 844 q 1096 824 1122 824 l 758 824 l 758 581 l 1029 581 q 1066 570 1056 581 q 1076 533 1076 560 l 1076 465 q 1066 428 1076 439 q 1029 418 1056 418 l 758 418 l 758 163 l 1110 163 q 1147 152 1136 163 q 1157 115 1157 142 l 1157 47 q 1147 10 1157 21 q 1110 0 1136 0 l 632 0 q 475 -21 561 -21 m 475 142 q 583 158 538 142 l 583 828 q 475 844 538 844 q 310 794 368 844 q 253 646 253 743 l 253 340 q 310 192 253 243 q 475 142 368 142 z "},"œ":{"ha":1172,"x_min":68,"x_max":1119,"o":"m 592 60 q 369 -21 515 -21 q 146 53 224 -21 q 68 256 68 126 l 68 463 q 146 667 68 593 q 369 740 224 740 q 592 660 518 740 q 811 740 665 740 q 1039 661 964 740 q 1114 454 1114 582 l 1114 368 q 1051 308 1114 308 l 671 308 l 671 257 q 811 119 671 119 q 954 192 908 119 q 985 217 971 214 q 1025 208 1000 221 l 1074 182 q 1090 113 1119 158 q 810 -21 1008 -21 q 592 60 664 -21 m 671 432 l 953 432 l 953 463 q 811 603 953 603 q 671 463 671 603 l 671 432 m 265 157 q 283 139 265 157 q 369 121 301 121 q 474 157 438 121 q 510 257 510 193 l 510 463 q 474 562 510 526 q 369 597 438 597 q 265 562 301 597 q 229 463 229 526 l 229 257 q 265 157 229 193 z "},"Ŕ":{"ha":925,"x_min":107,"x_max":876,"o":"m 375 1060 q 321 1061 335 1044 l 301 1088 q 304 1132 276 1118 l 508 1256 q 588 1253 560 1283 l 622 1208 q 636 1188 633 1196 q 635 1173 639 1179 q 617 1161 631 1167 l 375 1060 m 154 0 q 117 10 128 0 q 107 47 107 21 l 107 939 q 117 976 107 965 q 154 986 128 986 l 539 986 q 767 905 683 986 q 850 681 850 824 q 802 501 850 574 q 668 400 754 429 q 711 340 693 378 l 864 47 q 871 14 876 28 q 840 0 865 0 l 760 0 q 697 8 715 0 q 665 42 678 17 l 550 278 q 488 356 522 336 q 383 375 454 375 l 281 375 l 281 47 q 270 10 281 21 q 233 0 260 0 l 154 0 m 281 538 l 522 538 q 630 574 592 538 q 668 681 668 611 q 630 786 668 749 q 522 824 592 824 l 281 824 l 281 538 z "},"ŕ":{"ha":508,"x_min":89,"x_max":488,"o":"m 213 822 q 158 825 172 807 l 139 850 q 126 878 125 868 q 142 896 126 888 l 346 1018 q 425 1015 397 1049 l 460 972 q 474 951 471 960 q 472 936 476 943 q 454 924 468 929 l 213 822 m 131 0 q 98 10 107 0 q 89 43 89 19 l 89 600 q 99 649 89 633 q 142 678 110 665 q 400 719 251 719 l 446 719 q 478 710 469 719 q 488 678 488 701 l 488 615 q 478 583 488 592 q 446 574 469 574 l 396 574 q 263 557 325 574 q 250 539 250 553 l 250 43 q 240 10 250 19 q 207 0 231 0 l 131 0 z "},"Ŗ":{"ha":925,"x_min":107,"x_max":876,"o":"m 154 0 q 117 10 128 0 q 107 47 107 21 l 107 939 q 117 976 107 965 q 154 986 128 986 l 539 986 q 767 905 683 986 q 850 681 850 824 q 802 501 850 574 q 668 400 754 429 q 711 340 693 378 l 864 47 q 871 14 876 28 q 840 0 865 0 l 760 0 q 697 8 715 0 q 665 42 678 17 l 550 278 q 488 356 522 336 q 383 375 454 375 l 281 375 l 281 47 q 270 10 281 21 q 233 0 260 0 l 154 0 m 281 538 l 522 538 q 630 574 592 538 q 668 681 668 611 q 630 786 668 749 q 522 824 592 824 l 281 824 l 281 538 m 401 -357 q 378 -351 383 -357 q 375 -326 372 -344 l 403 -129 q 417 -94 406 -103 q 454 -85 428 -85 l 526 -85 q 568 -129 583 -85 l 503 -317 q 485 -348 496 -339 q 454 -357 475 -357 l 401 -357 z "},"ŗ":{"ha":508,"x_min":61,"x_max":488,"o":"m 131 0 q 98 10 107 0 q 89 43 89 19 l 89 600 q 99 649 89 633 q 142 678 110 665 q 400 719 251 719 l 446 719 q 478 710 469 719 q 488 678 488 701 l 488 615 q 478 583 488 592 q 446 574 469 574 l 396 574 q 263 557 325 574 q 250 539 250 553 l 250 43 q 240 10 250 19 q 207 0 231 0 l 131 0 m 90 -357 q 67 -351 72 -357 q 64 -326 61 -344 l 92 -129 q 106 -94 94 -103 q 143 -85 117 -85 l 215 -85 q 257 -129 272 -85 l 192 -317 q 174 -348 185 -339 q 143 -357 164 -357 l 90 -357 z "},"Ř":{"ha":925,"x_min":107,"x_max":876,"o":"m 451 1053 q 406 1058 419 1053 q 369 1090 393 1064 l 228 1225 q 219 1249 214 1239 q 249 1260 224 1260 l 307 1260 q 344 1256 333 1260 q 372 1236 356 1253 l 456 1157 l 536 1236 q 563 1256 550 1251 q 604 1260 576 1260 l 667 1260 q 696 1249 692 1260 q 686 1225 700 1239 l 546 1090 q 508 1058 521 1064 q 468 1053 494 1053 l 451 1053 m 154 0 q 117 10 128 0 q 107 47 107 21 l 107 939 q 117 976 107 965 q 154 986 128 986 l 539 986 q 767 905 683 986 q 850 681 850 824 q 802 501 850 574 q 668 400 754 429 q 711 340 693 378 l 864 47 q 871 14 876 28 q 840 0 865 0 l 760 0 q 697 8 715 0 q 665 42 678 17 l 550 278 q 488 356 522 336 q 383 375 454 375 l 281 375 l 281 47 q 270 10 281 21 q 233 0 260 0 l 154 0 m 281 538 l 522 538 q 630 574 592 538 q 668 681 668 611 q 630 786 668 749 q 522 824 592 824 l 281 824 l 281 538 z "},"ř":{"ha":508,"x_min":53,"x_max":539,"o":"m 290 814 q 247 820 260 814 q 208 851 233 826 l 67 988 q 58 1012 53 1001 q 88 1022 63 1022 l 146 1022 q 184 1018 172 1022 q 211 997 196 1014 l 294 918 l 375 997 q 443 1022 397 1022 l 506 1022 q 535 1011 531 1022 q 525 988 539 1000 l 385 851 q 347 819 360 825 q 307 814 333 814 l 290 814 m 131 0 q 98 10 107 0 q 89 43 89 19 l 89 600 q 99 649 89 633 q 142 678 110 665 q 400 719 251 719 l 446 719 q 478 710 469 719 q 488 678 488 701 l 488 615 q 478 583 488 592 q 446 574 469 574 l 396 574 q 263 557 325 574 q 250 539 250 553 l 250 43 q 240 10 250 19 q 207 0 231 0 l 131 0 z "},"Ś":{"ha":900,"x_min":56,"x_max":842,"o":"m 367 1074 q 313 1075 326 1058 l 293 1101 q 296 1146 268 1132 l 500 1269 q 579 1267 551 1297 l 614 1222 q 628 1201 625 1210 q 626 1187 631 1193 q 608 1175 622 1181 l 367 1074 m 446 -21 q 199 37 289 -21 q 64 211 108 94 q 62 251 56 238 q 94 272 68 264 l 169 300 q 206 302 194 308 q 229 271 218 296 q 446 142 286 142 q 667 286 667 142 q 634 360 667 332 q 559 398 601 388 q 447 415 517 408 q 372 424 400 421 q 300 438 344 428 q 228 460 256 447 q 167 494 200 472 q 115 543 133 515 q 83 612 96 571 q 71 703 71 653 q 169 924 71 840 q 451 1007 268 1007 q 679 956 594 1007 q 815 797 764 904 q 790 733 838 756 l 713 700 q 677 695 689 690 q 653 724 665 700 q 577 811 624 782 q 451 840 531 840 q 249 713 249 840 q 267 652 249 676 q 323 614 285 628 q 396 594 361 600 q 489 581 431 588 q 590 565 547 574 q 683 537 632 557 q 765 488 733 517 q 819 408 797 458 q 842 290 842 357 q 738 64 842 149 q 446 -21 633 -21 z "},"ś":{"ha":719,"x_min":42,"x_max":669,"o":"m 275 822 q 221 825 235 807 l 201 850 q 188 878 188 868 q 204 896 189 888 l 408 1018 q 488 1015 460 1049 l 522 972 q 536 951 533 960 q 535 936 539 943 q 517 924 531 929 l 275 822 m 367 -21 q 58 147 125 -21 q 86 206 42 190 l 149 225 q 206 199 189 239 q 363 122 238 122 q 511 204 511 122 q 474 267 511 250 q 344 293 436 283 q 262 305 296 299 q 187 326 228 311 q 121 364 146 342 q 79 425 96 386 q 63 517 63 464 q 136 680 63 619 q 350 740 210 740 q 647 592 572 740 q 624 529 669 550 l 563 504 q 528 498 539 494 q 503 524 517 501 q 353 597 461 597 q 222 521 222 597 q 258 459 222 475 q 385 435 294 443 q 501 416 454 428 q 588 381 547 404 q 649 315 629 357 q 668 211 668 272 q 590 42 668 106 q 367 -21 511 -21 z "},"Ŝ":{"ha":900,"x_min":56,"x_max":842,"o":"m 246 1068 q 216 1078 221 1068 q 225 1103 211 1089 l 367 1239 q 405 1270 392 1264 q 449 1276 418 1276 l 465 1276 q 503 1271 490 1276 q 542 1239 517 1265 l 683 1103 q 692 1078 697 1089 q 663 1068 688 1068 l 600 1068 q 532 1093 554 1068 l 453 1172 l 368 1093 q 342 1072 353 1076 q 303 1068 331 1068 l 246 1068 m 446 -21 q 199 37 289 -21 q 64 211 108 94 q 62 251 56 238 q 94 272 68 264 l 169 300 q 206 302 194 308 q 229 271 218 296 q 446 142 286 142 q 667 286 667 142 q 634 360 667 332 q 559 398 601 388 q 447 415 517 408 q 372 424 400 421 q 300 438 344 428 q 228 460 256 447 q 167 494 200 472 q 115 543 133 515 q 83 612 96 571 q 71 703 71 653 q 169 924 71 840 q 451 1007 268 1007 q 679 956 594 1007 q 815 797 764 904 q 790 733 838 756 l 713 700 q 677 695 689 690 q 653 724 665 700 q 577 811 624 782 q 451 840 531 840 q 249 713 249 840 q 267 652 249 676 q 323 614 285 628 q 396 594 361 600 q 489 581 431 588 q 590 565 547 574 q 683 537 632 557 q 765 488 733 517 q 819 408 797 458 q 842 290 842 357 q 738 64 842 149 q 446 -21 633 -21 z "},"ŝ":{"ha":719,"x_min":42,"x_max":669,"o":"m 154 817 q 124 827 129 817 q 133 851 119 838 l 275 988 q 312 1018 299 1013 q 357 1024 325 1024 l 374 1024 q 413 1018 400 1024 q 450 988 425 1013 l 592 851 q 601 827 606 838 q 571 817 596 817 l 508 817 q 440 840 463 817 l 361 919 l 276 840 q 250 820 261 824 q 211 817 239 817 l 154 817 m 367 -21 q 58 147 125 -21 q 86 206 42 190 l 149 225 q 206 199 189 239 q 363 122 238 122 q 511 204 511 122 q 474 267 511 250 q 344 293 436 283 q 262 305 296 299 q 187 326 228 311 q 121 364 146 342 q 79 425 96 386 q 63 517 63 464 q 136 680 63 619 q 350 740 210 740 q 647 592 572 740 q 624 529 669 550 l 563 504 q 528 498 539 494 q 503 524 517 501 q 353 597 461 597 q 222 521 222 597 q 258 459 222 475 q 385 435 294 443 q 501 416 454 428 q 588 381 547 404 q 649 315 629 357 q 668 211 668 272 q 590 42 668 106 q 367 -21 511 -21 z "},"Ş":{"ha":899,"x_min":54,"x_max":840,"o":"m 438 -342 q 336 -322 374 -342 q 313 -285 313 -312 l 311 -242 q 333 -225 311 -214 q 417 -247 371 -247 q 485 -197 485 -247 q 425 -158 485 -158 q 390 -160 401 -158 q 372 -126 357 -160 l 417 -21 q 190 42 274 -15 q 63 211 106 99 q 61 251 54 238 q 93 272 68 264 l 168 300 q 206 302 193 308 q 229 271 218 296 q 444 142 283 142 q 665 286 665 142 q 633 360 665 332 q 558 398 600 388 q 446 415 515 408 q 371 424 399 421 q 299 438 343 428 q 226 460 254 447 q 165 494 199 472 q 113 543 132 515 q 82 612 94 571 q 69 703 69 653 q 169 923 69 839 q 450 1007 268 1007 q 678 956 593 1007 q 815 797 764 904 q 789 733 836 754 l 713 700 q 676 695 689 690 q 651 724 664 700 q 576 811 622 782 q 450 840 529 840 q 249 713 249 840 q 267 652 249 676 q 323 614 285 628 q 396 594 361 600 q 489 581 431 588 q 590 565 547 574 q 683 537 632 557 q 765 488 733 517 q 819 408 797 458 q 840 290 840 357 q 755 81 840 163 q 513 -17 669 -1 l 489 -81 q 497 -80 492 -81 q 507 -79 503 -79 q 595 -115 561 -79 q 624 -206 629 -151 q 564 -310 615 -278 q 438 -342 513 -342 z "},"ş":{"ha":719,"x_min":42,"x_max":669,"o":"m 342 -339 q 242 -321 282 -339 q 219 -283 219 -310 l 218 -243 q 239 -228 218 -217 q 321 -249 278 -249 q 388 -200 388 -249 q 329 -162 388 -162 q 296 -164 306 -162 q 275 -157 279 -164 q 278 -131 271 -150 l 326 -19 q 58 147 118 -6 q 86 206 42 190 l 149 225 q 206 199 189 239 q 363 122 238 122 q 511 204 511 122 q 474 267 511 250 q 344 293 436 283 q 262 305 296 299 q 187 326 228 311 q 121 364 146 342 q 79 425 96 386 q 63 517 63 464 q 136 680 63 619 q 350 740 210 740 q 647 592 572 740 q 624 529 669 550 l 563 504 q 528 498 539 494 q 503 524 517 501 q 353 596 463 596 q 222 521 222 596 q 258 459 222 475 q 385 435 294 443 q 501 416 454 428 q 588 381 547 404 q 649 315 629 357 q 668 211 668 272 q 604 56 668 117 q 419 -18 540 -6 l 392 -89 q 410 -87 397 -87 q 495 -122 463 -87 q 522 -208 528 -157 q 466 -308 517 -278 q 342 -339 415 -339 z "},"Š":{"ha":900,"x_min":56,"x_max":842,"o":"m 444 1067 q 399 1072 413 1067 q 363 1104 386 1078 l 221 1239 q 212 1263 207 1253 q 242 1274 217 1274 l 300 1274 q 338 1270 326 1274 q 365 1250 350 1267 l 449 1171 l 529 1250 q 556 1269 543 1265 q 597 1274 569 1274 l 660 1274 q 689 1263 685 1274 q 679 1239 693 1253 l 539 1104 q 501 1072 514 1078 q 461 1067 488 1067 l 444 1067 m 446 -21 q 199 37 289 -21 q 64 211 108 94 q 62 251 56 238 q 94 272 68 264 l 169 300 q 206 302 194 308 q 229 271 218 296 q 446 142 286 142 q 667 286 667 142 q 634 360 667 332 q 559 398 601 388 q 447 415 517 408 q 372 424 400 421 q 300 438 344 428 q 228 460 256 447 q 167 494 200 472 q 115 543 133 515 q 83 612 96 571 q 71 703 71 653 q 169 924 71 840 q 451 1007 268 1007 q 679 956 594 1007 q 815 797 764 904 q 790 733 838 756 l 713 700 q 677 695 689 690 q 653 724 665 700 q 577 811 624 782 q 451 840 531 840 q 249 713 249 840 q 267 652 249 676 q 323 614 285 628 q 396 594 361 600 q 489 581 431 588 q 590 565 547 574 q 683 537 632 557 q 765 488 733 517 q 819 408 797 458 q 842 290 842 357 q 738 64 842 149 q 446 -21 633 -21 z "},"š":{"ha":719,"x_min":42,"x_max":669,"o":"m 351 814 q 308 820 321 814 q 269 851 294 826 l 128 988 q 119 1012 114 1001 q 149 1022 124 1022 l 207 1022 q 245 1018 233 1022 q 272 997 257 1014 l 356 918 l 436 997 q 504 1022 458 1022 l 567 1022 q 596 1011 592 1022 q 586 988 600 1000 l 446 851 q 408 819 421 825 q 368 814 394 814 l 351 814 m 367 -21 q 58 147 125 -21 q 86 206 42 190 l 149 225 q 206 199 189 239 q 363 122 238 122 q 511 204 511 122 q 474 267 511 250 q 344 293 436 283 q 262 305 296 299 q 187 326 228 311 q 121 364 146 342 q 79 425 96 386 q 63 517 63 464 q 136 680 63 619 q 350 740 210 740 q 647 592 572 740 q 624 529 669 550 l 563 504 q 528 498 539 494 q 503 524 517 501 q 353 597 461 597 q 222 521 222 597 q 258 459 222 475 q 385 435 294 443 q 501 416 454 428 q 588 381 547 404 q 649 315 629 357 q 668 211 668 272 q 590 42 668 106 q 367 -21 511 -21 z "},"Ţ":{"ha":810,"x_min":29,"x_max":781,"o":"m 365 0 q 328 10 339 0 q 318 47 318 21 l 318 824 l 76 824 q 40 834 50 824 q 29 871 29 844 l 29 939 q 40 976 29 965 q 76 986 50 986 l 733 986 q 770 976 760 986 q 781 939 781 965 l 781 871 q 770 834 781 844 q 733 824 760 824 l 492 824 l 492 47 q 481 10 492 21 q 444 0 471 0 l 365 0 m 317 -357 q 293 -351 299 -357 q 290 -326 288 -344 l 318 -129 q 332 -94 321 -103 q 369 -85 343 -85 l 442 -85 q 483 -129 499 -85 l 418 -317 q 401 -348 411 -339 q 369 -357 390 -357 l 317 -357 z "},"ţ":{"ha":560,"x_min":22,"x_max":528,"o":"m 406 -79 q 494 -115 461 -79 q 522 -204 528 -151 q 336 -340 508 -340 q 235 -322 269 -340 q 211 -283 211 -311 l 210 -242 q 232 -225 210 -214 q 315 -247 274 -247 q 383 -197 383 -247 q 324 -157 383 -158 q 289 -158 300 -157 q 267 -151 271 -160 q 271 -125 264 -143 l 328 15 q 199 105 238 38 q 160 307 160 172 l 160 571 l 65 571 q 32 581 42 571 q 22 614 22 590 l 22 678 q 32 710 22 701 q 65 719 42 719 l 160 719 l 160 844 q 169 877 160 868 q 203 886 179 886 l 279 886 q 312 877 303 886 q 321 844 321 868 l 321 719 l 481 719 q 513 710 504 719 q 522 678 522 701 l 522 614 q 513 581 522 590 q 481 571 504 571 l 321 571 l 321 313 q 354 183 321 214 q 479 153 388 153 q 513 143 503 153 q 522 110 522 133 l 522 44 q 513 10 522 21 q 479 0 503 0 q 419 1 439 0 l 388 -81 q 406 -79 394 -79 z "},"Ť":{"ha":810,"x_min":29,"x_max":781,"o":"m 397 1053 q 352 1058 365 1053 q 315 1090 339 1064 l 174 1225 q 165 1249 160 1239 q 194 1260 169 1260 l 253 1260 q 290 1256 279 1260 q 318 1236 301 1253 l 401 1157 l 482 1236 q 509 1256 496 1251 q 550 1260 522 1260 l 613 1260 q 642 1249 638 1260 q 632 1225 646 1239 l 492 1090 q 453 1058 467 1064 q 414 1053 440 1053 l 397 1053 m 365 0 q 328 10 339 0 q 318 47 318 21 l 318 824 l 76 824 q 40 834 50 824 q 29 871 29 844 l 29 939 q 40 976 29 965 q 76 986 50 986 l 733 986 q 770 976 760 986 q 781 939 781 965 l 781 871 q 770 834 781 844 q 733 824 760 824 l 492 824 l 492 47 q 481 10 492 21 q 444 0 471 0 l 365 0 z "},"ť":{"ha":560,"x_min":43,"x_max":588,"o":"m 424 771 q 401 776 406 771 q 397 800 396 782 l 417 983 q 429 1019 418 1010 q 467 1028 440 1028 l 533 1028 q 571 983 588 1028 l 510 810 q 492 779 501 788 q 463 771 482 771 l 424 771 m 499 0 q 250 65 319 0 q 181 307 181 129 l 181 571 l 85 571 q 52 581 61 571 q 43 614 43 590 l 43 678 q 52 710 43 701 q 85 719 61 719 l 181 719 l 181 844 q 190 877 181 868 q 224 886 200 886 l 299 886 q 332 877 322 886 q 342 844 342 868 l 342 719 l 500 719 q 533 710 524 719 q 543 678 543 701 l 543 614 q 533 581 543 590 q 500 571 524 571 l 342 571 l 342 313 q 374 183 342 214 q 499 153 407 153 q 533 143 524 153 q 543 110 543 133 l 543 44 q 533 10 543 21 q 499 0 524 0 z "},"Ŧ":{"ha":829,"x_min":39,"x_max":790,"o":"m 375 0 q 338 10 349 0 q 328 47 328 21 l 328 392 l 163 392 q 140 398 146 392 q 135 422 135 404 l 135 486 q 163 517 135 517 l 328 517 l 328 824 l 86 824 q 49 834 60 824 q 39 871 39 844 l 39 939 q 49 976 39 965 q 86 986 60 986 l 743 986 q 780 976 769 986 q 790 939 790 965 l 790 871 q 780 834 790 844 q 743 824 769 824 l 501 824 l 501 517 l 667 517 q 689 510 683 517 q 694 486 694 503 l 694 422 q 689 398 694 404 q 667 392 683 392 l 501 392 l 501 47 q 491 10 501 21 q 454 0 481 0 l 375 0 z "},"ŧ":{"ha":564,"x_min":26,"x_max":526,"o":"m 482 0 q 236 60 308 -6 q 164 299 164 126 l 164 324 l 78 324 q 56 330 63 324 q 50 354 50 336 l 50 406 q 78 436 50 436 l 164 436 l 164 572 l 68 572 q 35 581 44 572 q 26 614 26 590 l 26 678 q 35 712 26 703 q 68 721 44 721 l 164 721 l 164 844 q 174 878 164 869 q 207 888 183 888 l 282 888 q 315 878 306 888 q 325 844 325 869 l 325 721 l 483 721 q 517 712 507 721 q 526 678 526 703 l 526 614 q 517 581 526 590 q 483 572 507 572 l 325 572 l 325 436 l 449 436 q 471 430 465 436 q 476 406 476 424 l 476 354 q 471 330 476 336 q 449 324 465 324 l 325 324 l 325 299 q 358 181 325 208 q 482 153 390 153 q 517 143 507 153 q 526 110 526 133 l 526 44 q 517 11 526 21 q 482 0 507 1 z "},"Ũ":{"ha":975,"x_min":100,"x_max":876,"o":"m 294 1063 q 268 1089 268 1063 q 297 1208 268 1172 q 383 1243 325 1243 q 489 1203 436 1243 q 567 1164 542 1164 q 599 1217 599 1164 q 624 1243 599 1243 l 668 1243 q 694 1217 694 1243 q 667 1098 694 1133 q 578 1063 639 1063 q 476 1102 529 1063 q 399 1142 424 1142 q 365 1089 365 1142 q 340 1063 365 1063 l 294 1063 m 776 76 q 725 27 776 76 q 488 -21 675 -21 q 200 76 300 -21 q 100 339 100 172 l 100 939 q 110 976 100 965 q 147 986 121 986 l 226 986 q 263 976 253 986 q 274 939 274 965 l 274 338 q 328 192 274 243 q 488 142 382 142 q 647 192 593 142 q 701 338 701 243 l 701 939 q 712 976 701 965 q 749 986 722 986 l 829 986 q 866 976 856 986 q 876 939 876 965 l 876 339 q 776 76 876 172 z "},"ũ":{"ha":789,"x_min":85,"x_max":700,"o":"m 199 831 q 172 857 172 831 q 201 976 172 940 q 288 1013 229 1013 q 393 972 340 1013 q 471 932 446 932 q 503 985 503 932 q 528 1013 503 1013 l 572 1013 q 599 985 599 1013 q 571 866 599 901 q 482 831 543 831 q 381 870 433 831 q 303 910 328 910 q 269 857 269 910 q 244 831 269 831 l 199 831 m 374 -21 q 156 51 228 -21 q 85 258 85 124 l 85 678 q 94 710 85 701 q 126 719 103 719 l 203 719 q 236 710 226 719 q 246 678 246 701 l 246 264 q 397 126 246 126 q 524 143 469 126 q 539 167 539 149 l 539 678 q 549 710 539 701 q 582 719 558 719 l 657 719 q 690 710 681 719 q 700 678 700 701 l 700 106 q 690 57 700 72 q 647 28 679 42 q 374 -21 522 -21 z "},"Ū":{"ha":975,"x_min":100,"x_max":876,"o":"m 328 1093 q 296 1101 304 1093 q 288 1133 288 1110 l 288 1168 q 297 1200 288 1192 q 328 1208 306 1208 l 649 1208 q 681 1200 672 1208 q 689 1168 689 1192 l 689 1133 q 681 1101 689 1110 q 649 1093 672 1093 l 328 1093 m 776 76 q 725 27 776 76 q 488 -21 675 -21 q 200 76 300 -21 q 100 339 100 172 l 100 939 q 110 976 100 965 q 147 986 121 986 l 226 986 q 263 976 253 986 q 274 939 274 965 l 274 338 q 328 192 274 243 q 488 142 382 142 q 647 192 593 142 q 701 338 701 243 l 701 939 q 712 976 701 965 q 749 986 722 986 l 829 986 q 866 976 856 986 q 876 939 876 965 l 876 339 q 776 76 876 172 z "},"ū":{"ha":789,"x_min":85,"x_max":700,"o":"m 232 857 q 200 865 208 857 q 192 897 192 874 l 192 932 q 201 964 192 956 q 232 972 210 972 l 553 972 q 585 964 576 972 q 593 932 593 956 l 593 897 q 585 865 593 874 q 553 857 576 857 l 232 857 m 374 -21 q 156 51 228 -21 q 85 258 85 124 l 85 678 q 94 710 85 701 q 126 719 103 719 l 203 719 q 236 710 226 719 q 246 678 246 701 l 246 264 q 397 126 246 126 q 524 143 469 126 q 539 167 539 149 l 539 678 q 549 710 539 701 q 582 719 558 719 l 657 719 q 690 710 681 719 q 700 678 700 701 l 700 106 q 690 57 700 72 q 647 28 679 42 q 374 -21 522 -21 z "},"Ŭ":{"ha":975,"x_min":100,"x_max":876,"o":"m 488 1056 q 353 1093 410 1056 q 274 1199 296 1131 q 293 1238 264 1226 l 349 1258 q 392 1244 381 1269 q 488 1172 413 1172 q 586 1244 561 1172 q 622 1260 597 1269 l 685 1238 q 704 1199 713 1225 q 624 1093 681 1131 q 488 1056 567 1056 m 776 76 q 725 27 776 76 q 488 -21 675 -21 q 200 76 300 -21 q 100 339 100 172 l 100 939 q 110 976 100 965 q 147 986 121 986 l 226 986 q 263 976 253 986 q 274 939 274 965 l 274 338 q 328 192 274 243 q 488 142 382 142 q 647 192 593 142 q 701 338 701 243 l 701 939 q 712 976 701 965 q 749 986 722 986 l 829 986 q 866 976 856 986 q 876 939 876 965 l 876 339 q 776 76 876 172 z "},"ŭ":{"ha":789,"x_min":85,"x_max":700,"o":"m 392 818 q 258 856 314 818 q 178 960 201 893 q 197 1000 168 989 l 253 1021 q 296 1006 285 1031 q 392 933 319 933 q 490 1006 463 933 q 526 1022 500 1029 l 589 1000 q 608 960 617 988 q 527 856 583 893 q 392 818 471 818 m 374 -21 q 156 51 228 -21 q 85 258 85 124 l 85 678 q 94 710 85 701 q 126 719 103 719 l 203 719 q 236 710 226 719 q 246 678 246 701 l 246 264 q 397 126 246 126 q 524 143 469 126 q 539 167 539 149 l 539 678 q 549 710 539 701 q 582 719 558 719 l 657 719 q 690 710 681 719 q 700 678 700 701 l 700 106 q 690 57 700 72 q 647 28 679 42 q 374 -21 522 -21 z "},"Ů":{"ha":975,"x_min":100,"x_max":876,"o":"m 489 1040 q 379 1081 422 1040 q 336 1186 336 1122 q 379 1293 336 1251 q 489 1335 422 1335 q 596 1293 554 1335 q 638 1186 638 1251 q 596 1081 638 1122 q 489 1040 554 1040 m 489 1118 q 538 1137 519 1118 q 557 1186 557 1156 q 538 1236 557 1217 q 489 1256 519 1256 q 437 1236 457 1256 q 417 1186 417 1217 q 437 1137 417 1156 q 489 1118 457 1118 m 776 76 q 725 27 776 76 q 488 -21 675 -21 q 200 76 300 -21 q 100 339 100 172 l 100 939 q 110 976 100 965 q 147 986 121 986 l 226 986 q 263 976 253 986 q 274 939 274 965 l 274 338 q 328 192 274 243 q 488 142 382 142 q 647 192 593 142 q 701 338 701 243 l 701 939 q 712 976 701 965 q 749 986 722 986 l 829 986 q 866 976 856 986 q 876 939 876 965 l 876 339 q 776 76 876 172 z "},"ů":{"ha":789,"x_min":85,"x_max":700,"o":"m 393 782 q 283 823 326 782 q 240 928 240 864 q 283 1035 240 993 q 393 1076 326 1076 q 500 1035 458 1076 q 542 928 542 993 q 500 823 542 864 q 393 782 458 782 m 393 861 q 442 880 424 861 q 461 928 461 899 q 442 978 461 958 q 393 997 424 997 q 341 978 361 997 q 321 928 321 958 q 341 880 321 899 q 393 861 361 861 m 374 -21 q 156 51 228 -21 q 85 258 85 124 l 85 678 q 94 710 85 701 q 126 719 103 719 l 203 719 q 236 710 226 719 q 246 678 246 701 l 246 264 q 397 126 246 126 q 524 143 469 126 q 539 167 539 149 l 539 678 q 549 710 539 701 q 582 719 558 719 l 657 719 q 690 710 681 719 q 700 678 700 701 l 700 106 q 690 57 700 72 q 647 28 679 42 q 374 -21 522 -21 z "},"Ű":{"ha":975,"x_min":100,"x_max":876,"o":"m 322 1058 l 299 1067 q 285 1108 263 1076 l 379 1240 q 453 1268 408 1281 l 500 1251 q 514 1204 544 1238 l 372 1076 q 322 1058 343 1050 m 547 1053 l 525 1060 q 510 1103 485 1071 l 615 1240 q 688 1268 646 1281 l 739 1251 q 753 1204 789 1236 l 599 1071 q 547 1053 568 1046 m 776 76 q 725 27 776 76 q 488 -21 675 -21 q 200 76 300 -21 q 100 339 100 172 l 100 939 q 110 976 100 965 q 147 986 121 986 l 226 986 q 263 976 253 986 q 274 939 274 965 l 274 338 q 328 192 274 243 q 488 142 382 142 q 647 192 593 142 q 701 338 701 243 l 701 939 q 712 976 701 965 q 749 986 722 986 l 829 986 q 866 976 856 986 q 876 939 876 965 l 876 339 q 776 76 876 172 z "},"ű":{"ha":789,"x_min":85,"x_max":700,"o":"m 226 811 l 203 819 q 189 863 168 831 l 283 993 q 357 1021 311 1035 l 404 1004 q 418 957 447 990 l 276 829 q 226 811 247 803 m 451 807 l 428 814 q 414 857 392 825 l 519 992 q 592 1021 550 1033 l 644 1004 q 657 957 690 986 l 501 824 q 476 806 485 808 q 451 807 468 803 m 374 -21 q 156 51 228 -21 q 85 258 85 124 l 85 678 q 94 710 85 701 q 126 719 103 719 l 203 719 q 236 710 226 719 q 246 678 246 701 l 246 264 q 397 126 246 126 q 524 143 469 126 q 539 167 539 149 l 539 678 q 549 710 539 701 q 582 719 558 719 l 657 719 q 690 710 681 719 q 700 678 700 701 l 700 106 q 690 57 700 72 q 647 28 679 42 q 374 -21 522 -21 z "},"Ų":{"ha":975,"x_min":100,"x_max":876,"o":"m 589 -340 q 465 -257 479 -340 q 574 -12 444 -151 q 488 -21 536 -21 q 200 76 300 -21 q 100 339 100 172 l 100 939 q 110 976 100 965 q 147 986 121 986 l 226 986 q 263 976 253 986 q 274 939 274 965 l 274 338 q 328 192 274 243 q 488 142 382 142 q 647 192 593 142 q 701 338 701 243 l 701 939 q 712 976 701 965 q 749 986 722 986 l 829 986 q 866 976 856 986 q 876 939 876 965 l 876 339 q 760 63 876 156 q 631 -88 668 -15 q 603 -193 594 -161 q 639 -222 611 -222 q 676 -208 661 -222 q 703 -217 696 -196 l 722 -261 q 721 -290 731 -281 q 589 -340 669 -340 z "},"ų":{"ha":789,"x_min":85,"x_max":707,"o":"m 564 -340 q 440 -257 457 -340 q 458 -135 429 -206 q 544 -3 486 -65 q 374 -21 472 -21 q 156 51 228 -21 q 85 258 85 124 l 85 678 q 94 710 85 701 q 126 719 103 719 l 203 719 q 236 710 226 719 q 246 678 246 701 l 246 264 q 397 126 246 126 q 524 143 469 126 q 539 167 539 149 l 539 678 q 549 710 539 701 q 582 719 558 719 l 657 719 q 690 710 681 719 q 700 678 700 701 l 700 106 q 685 51 700 67 q 598 -94 625 -24 q 579 -193 571 -165 q 615 -222 588 -222 q 653 -208 635 -222 q 679 -217 669 -196 l 697 -261 q 696 -290 707 -281 q 564 -340 644 -340 z "},"Ŵ":{"ha":1272,"x_min":33,"x_max":1239,"o":"m 438 1054 q 408 1065 413 1054 q 417 1089 403 1075 l 558 1225 q 597 1256 583 1250 q 640 1263 610 1263 l 657 1263 q 695 1257 682 1263 q 733 1225 708 1251 l 875 1089 q 884 1065 889 1075 q 854 1054 879 1054 l 792 1054 q 724 1079 746 1054 l 644 1158 l 560 1079 q 533 1058 544 1063 q 494 1054 522 1054 l 438 1054 m 328 0 q 288 8 301 0 q 269 38 275 15 l 40 940 q 40 975 33 964 q 71 986 46 986 l 168 986 q 212 978 199 986 q 231 944 225 969 l 344 426 q 367 240 361 346 l 375 240 q 403 426 379 336 l 543 940 q 564 974 550 965 q 607 982 578 982 l 681 982 q 724 974 710 982 q 744 940 739 965 l 881 426 q 911 240 899 364 l 919 240 q 943 425 926 340 l 1054 944 q 1073 978 1060 969 q 1117 986 1086 986 l 1201 986 q 1233 975 1226 986 q 1232 940 1239 964 l 1003 39 q 984 8 997 15 q 944 0 971 0 l 868 0 q 810 38 818 0 l 665 589 q 642 746 646 667 l 633 746 q 608 590 629 669 l 461 39 q 442 8 456 15 q 403 0 429 0 l 328 0 z "},"ŵ":{"ha":1040,"x_min":32,"x_max":1010,"o":"m 317 817 q 287 827 292 817 q 296 851 282 838 l 438 988 q 474 1018 461 1013 q 519 1024 488 1024 l 536 1024 q 575 1018 563 1024 q 613 988 588 1013 l 754 851 q 763 827 768 838 q 733 817 758 817 l 671 817 q 603 840 625 817 l 524 919 l 439 840 q 413 820 424 824 q 374 817 401 817 l 317 817 m 283 -1 q 225 38 236 -1 l 40 669 q 39 710 32 700 q 76 719 46 719 l 129 719 q 185 711 169 719 q 207 676 201 703 l 285 365 q 296 297 290 339 q 304 226 301 256 q 308 196 307 197 l 315 196 q 320 226 317 197 q 330 296 324 254 q 344 367 336 338 l 436 671 q 457 708 444 700 q 508 715 469 715 l 539 715 q 590 708 576 715 q 610 672 603 700 l 703 367 q 719 294 713 336 q 729 225 726 253 q 733 196 732 197 l 740 196 l 742 222 q 750 291 744 250 q 764 367 756 332 l 842 676 q 863 711 847 703 q 918 719 878 719 l 964 719 q 1002 710 994 719 q 1000 669 1010 700 l 814 38 q 795 7 808 15 q 756 -1 782 -1 l 708 -1 q 649 38 661 -1 l 547 393 q 533 456 539 422 q 525 514 528 490 l 522 536 l 515 536 l 513 514 q 503 456 510 490 q 489 393 497 422 l 388 38 q 369 7 382 15 q 329 -1 356 -1 l 283 -1 z "},"Ŷ":{"ha":914,"x_min":18,"x_max":894,"o":"m 254 1054 q 224 1065 229 1054 q 233 1089 219 1075 l 375 1225 q 413 1256 400 1250 q 457 1263 426 1263 l 474 1263 q 512 1257 499 1263 q 550 1225 525 1251 l 692 1089 q 701 1065 706 1075 q 671 1054 696 1054 l 608 1054 q 540 1079 563 1054 l 461 1158 l 376 1079 q 350 1058 361 1063 q 311 1054 339 1054 l 254 1054 m 417 0 q 380 10 390 0 q 369 47 369 21 l 369 392 l 31 939 q 24 972 18 958 q 54 986 29 986 l 151 986 q 212 980 196 986 q 243 944 228 974 l 458 569 l 676 944 q 708 980 692 974 q 768 986 724 986 l 858 986 q 889 972 883 986 q 882 939 894 958 l 543 389 l 543 47 q 533 10 543 21 q 496 0 522 0 l 417 0 z "},"ŷ":{"ha":792,"x_min":76,"x_max":700,"o":"m 186 817 q 156 827 161 817 q 165 851 151 838 l 307 988 q 344 1018 331 1013 q 389 1024 357 1024 l 406 1024 q 444 1018 432 1024 q 482 988 457 1013 l 624 851 q 633 827 638 838 q 603 817 628 817 l 540 817 q 472 840 494 817 l 393 919 l 308 840 q 282 820 293 824 q 243 817 271 817 l 186 817 m 394 -328 q 107 -193 188 -328 q 124 -124 76 -149 l 176 -94 q 216 -85 201 -82 q 246 -111 231 -89 q 392 -183 292 -183 q 539 -32 539 -183 l 539 33 q 374 14 456 14 q 156 86 228 14 q 85 293 85 158 l 85 678 q 94 710 85 701 q 126 719 103 719 l 203 719 q 236 710 226 719 q 246 678 246 701 l 246 299 q 397 161 246 161 q 539 181 464 161 l 539 678 q 549 710 539 701 q 582 719 558 719 l 657 719 q 691 710 682 719 q 700 678 700 701 l 700 -24 q 626 -247 700 -167 q 394 -328 551 -328 z "},"Ÿ":{"ha":914,"x_min":18,"x_max":894,"o":"m 315 1075 q 259 1091 275 1075 q 243 1147 243 1107 l 243 1161 q 259 1217 243 1201 q 315 1232 275 1232 l 325 1232 q 383 1217 367 1232 q 399 1161 399 1201 l 399 1147 q 383 1091 399 1107 q 325 1075 367 1075 l 315 1075 m 594 1075 q 537 1091 553 1075 q 521 1147 521 1107 l 521 1161 q 537 1217 521 1201 q 594 1232 553 1232 l 604 1232 q 660 1217 644 1232 q 676 1161 676 1201 l 676 1147 q 660 1091 676 1107 q 604 1075 644 1075 l 594 1075 m 417 0 q 380 10 390 0 q 369 47 369 21 l 369 392 l 31 939 q 24 972 18 958 q 54 986 29 986 l 151 986 q 212 980 196 986 q 243 944 228 974 l 458 569 l 676 944 q 708 980 692 974 q 768 986 724 986 l 858 986 q 889 972 883 986 q 882 939 894 958 l 543 389 l 543 47 q 533 10 543 21 q 496 0 522 0 l 417 0 z "},"Ź":{"ha":838,"x_min":58,"x_max":781,"o":"m 340 1060 q 286 1061 300 1044 l 267 1088 q 269 1132 242 1118 l 474 1256 q 553 1253 525 1283 l 588 1208 q 601 1188 599 1196 q 600 1173 604 1179 q 582 1161 596 1167 l 340 1060 m 106 0 q 69 10 79 0 q 58 47 58 21 l 58 115 q 74 164 58 143 l 553 824 l 113 824 q 75 834 86 824 q 64 871 64 844 l 64 939 q 75 976 64 965 q 113 986 86 986 l 724 986 q 760 976 750 986 q 771 939 771 965 l 771 872 q 756 822 771 843 l 275 163 l 733 163 q 770 152 760 163 q 781 115 781 142 l 781 47 q 770 10 781 21 q 733 0 760 0 l 106 0 z "},"ź":{"ha":675,"x_min":51,"x_max":624,"o":"m 251 822 q 197 825 211 807 l 178 850 q 165 878 164 868 q 181 896 165 888 l 385 1018 q 464 1015 436 1049 l 499 972 q 513 951 510 960 q 511 936 515 943 q 493 924 507 929 l 251 822 m 94 0 q 61 10 71 0 q 51 43 51 19 l 51 103 q 67 146 51 129 l 407 574 l 101 574 q 68 583 78 574 q 58 617 58 593 l 58 678 q 68 710 58 701 q 101 719 78 719 l 574 719 q 607 710 597 719 q 617 678 617 701 l 617 617 q 600 571 617 592 l 257 146 l 581 146 q 614 136 604 146 q 624 103 624 126 l 624 43 q 614 10 624 19 q 581 0 604 0 l 94 0 z "},"Ż":{"ha":838,"x_min":58,"x_max":781,"o":"m 422 1074 q 364 1089 379 1074 q 349 1147 349 1104 l 349 1158 q 364 1217 349 1201 q 422 1233 379 1233 l 431 1233 q 490 1217 474 1233 q 506 1158 506 1201 l 506 1147 q 490 1089 506 1104 q 431 1074 474 1074 l 422 1074 m 106 0 q 69 10 79 0 q 58 47 58 21 l 58 115 q 74 164 58 143 l 553 824 l 113 824 q 75 834 86 824 q 64 871 64 844 l 64 939 q 75 976 64 965 q 113 986 86 986 l 724 986 q 760 976 750 986 q 771 939 771 965 l 771 872 q 756 822 771 843 l 275 163 l 733 163 q 770 152 760 163 q 781 115 781 142 l 781 47 q 770 10 781 21 q 733 0 760 0 l 106 0 z "},"ż":{"ha":675,"x_min":51,"x_max":624,"o":"m 333 843 q 268 860 285 843 q 251 924 251 876 l 251 936 q 268 999 251 983 q 333 1015 285 1015 l 343 1015 q 408 999 392 1015 q 425 936 425 983 l 425 924 q 408 860 425 876 q 343 843 392 843 l 333 843 m 94 0 q 61 10 71 0 q 51 43 51 19 l 51 103 q 67 146 51 129 l 407 574 l 101 574 q 68 583 78 574 q 58 617 58 593 l 58 678 q 68 710 58 701 q 101 719 78 719 l 574 719 q 607 710 597 719 q 617 678 617 701 l 617 617 q 600 571 617 592 l 257 146 l 581 146 q 614 136 604 146 q 624 103 624 126 l 624 43 q 614 10 624 19 q 581 0 604 0 l 94 0 z "},"Ž":{"ha":838,"x_min":58,"x_max":781,"o":"m 418 1053 q 373 1058 386 1053 q 336 1090 360 1064 l 194 1225 q 185 1249 181 1239 q 215 1260 190 1260 l 274 1260 q 311 1256 300 1260 q 339 1236 322 1253 l 422 1157 l 503 1236 q 530 1256 517 1251 q 571 1260 543 1260 l 633 1260 q 663 1249 658 1260 q 653 1225 667 1239 l 513 1090 q 474 1058 488 1064 q 435 1053 461 1053 l 418 1053 m 106 0 q 69 10 79 0 q 58 47 58 21 l 58 115 q 74 164 58 143 l 553 824 l 113 824 q 75 834 86 824 q 64 871 64 844 l 64 939 q 75 976 64 965 q 113 986 86 986 l 724 986 q 760 976 750 986 q 771 939 771 965 l 771 872 q 756 822 771 843 l 275 163 l 733 163 q 770 152 760 163 q 781 115 781 142 l 781 47 q 770 10 781 21 q 733 0 760 0 l 106 0 z "},"ž":{"ha":675,"x_min":51,"x_max":624,"o":"m 329 814 q 285 820 299 814 q 247 851 272 826 l 106 988 q 97 1012 92 1001 q 126 1022 101 1022 l 185 1022 q 223 1018 211 1022 q 250 997 235 1014 l 333 918 l 414 997 q 482 1022 436 1022 l 544 1022 q 574 1011 569 1022 q 564 988 578 1000 l 424 851 q 385 819 399 825 q 346 814 372 814 l 329 814 m 94 0 q 61 10 71 0 q 51 43 51 19 l 51 103 q 67 146 51 129 l 407 574 l 101 574 q 68 583 78 574 q 58 617 58 593 l 58 678 q 68 710 58 701 q 101 719 78 719 l 574 719 q 607 710 597 719 q 617 678 617 701 l 617 617 q 600 571 617 592 l 257 146 l 581 146 q 614 136 604 146 q 624 103 624 126 l 624 43 q 614 10 624 19 q 581 0 604 0 l 94 0 z "},"ſ":{"ha":429,"x_min":26,"x_max":511,"o":"m 193 0 q 158 10 168 0 q 149 43 149 19 l 149 571 l 69 571 q 36 581 46 571 q 26 614 26 590 l 26 678 q 36 710 26 701 q 69 719 46 719 l 149 719 l 149 735 q 467 1028 149 1028 q 501 1018 492 1028 q 511 983 511 1008 l 511 922 q 501 888 511 897 q 467 878 492 878 q 346 840 382 878 q 310 721 310 803 l 310 43 q 300 10 310 19 q 265 0 290 0 l 193 0 z "},"ƒ":{"ha":660,"x_min":-15,"x_max":629,"o":"m 29 -306 q -6 -296 4 -306 q -15 -261 -15 -286 l -15 -200 q -6 -165 -15 -175 q 29 -156 4 -156 q 145 -116 110 -156 q 189 3 181 -76 l 233 421 l 97 421 q 64 431 74 421 q 54 464 54 440 l 54 528 q 64 561 54 551 q 97 571 74 571 l 249 571 l 264 725 q 354 951 279 874 q 585 1028 429 1028 q 619 1018 610 1028 q 629 983 629 1008 l 629 922 q 619 888 629 897 q 585 878 610 878 q 469 838 504 878 q 426 721 433 799 l 410 571 l 553 571 q 587 561 578 571 q 596 528 596 551 l 596 464 q 587 431 596 440 q 553 421 578 421 l 394 421 l 350 -3 q 260 -228 335 -151 q 29 -306 185 -306 z "},"Ǻ":{"ha":933,"x_min":6,"x_max":925,"o":"m 394 1199 q 344 1201 356 1186 l 325 1219 q 338 1258 303 1242 l 519 1343 q 594 1342 571 1364 l 626 1308 q 621 1274 654 1283 l 394 1199 m 54 0 q 24 46 6 0 l 365 919 q 308 1022 308 954 q 353 1132 308 1089 q 468 1175 399 1175 q 578 1132 535 1175 q 622 1022 622 1089 q 568 919 622 953 l 907 46 q 876 0 925 0 l 804 0 q 742 8 760 0 q 718 42 725 17 l 653 221 l 271 221 l 204 42 q 179 8 196 17 q 118 0 163 0 l 54 0 m 468 964 q 516 982 497 964 q 535 1028 535 1000 q 516 1076 535 1058 q 468 1094 497 1094 q 417 1076 436 1094 q 397 1028 397 1058 q 417 982 397 1000 q 468 964 438 964 m 319 364 l 604 364 l 510 631 q 485 718 496 672 q 471 794 475 764 q 467 825 467 824 l 456 825 q 452 794 456 824 q 440 719 449 765 q 415 632 431 674 l 319 364 z "},"ǻ":{"ha":742,"x_min":54,"x_max":663,"o":"m 261 1094 q 207 1100 221 1082 l 189 1125 q 177 1153 176 1143 q 194 1171 178 1163 l 403 1282 q 481 1275 456 1307 l 514 1231 q 528 1200 529 1211 q 506 1183 526 1189 l 261 1094 m 367 786 q 256 826 299 786 q 214 932 214 867 q 256 1038 214 997 q 367 1079 299 1079 q 474 1038 432 1079 q 515 932 515 997 q 474 827 515 868 q 367 786 432 786 m 367 864 q 416 883 397 864 q 435 932 435 901 q 416 981 435 963 q 367 1000 397 1000 q 315 981 335 1000 q 294 932 294 963 q 315 883 294 901 q 367 864 335 864 m 363 -21 q 121 34 188 -21 q 54 204 54 89 q 126 376 54 328 q 368 425 199 425 q 501 418 442 425 l 501 460 q 470 564 501 529 q 363 599 439 599 q 217 532 263 599 q 192 506 201 510 q 158 511 182 503 l 101 533 q 78 596 56 554 q 367 740 156 740 q 595 665 528 740 q 663 454 663 589 l 663 94 q 652 43 663 58 q 613 15 642 28 q 363 -21 529 -21 m 347 113 q 486 124 439 113 q 501 143 501 129 l 501 292 q 350 299 363 299 q 246 276 275 299 q 217 206 217 253 q 244 136 217 160 q 347 113 271 113 z "},"Ǽ":{"ha":1211,"x_min":-8,"x_max":1157,"o":"m 778 1060 q 724 1061 738 1044 l 704 1088 q 707 1132 679 1118 l 911 1256 q 990 1253 963 1283 l 1025 1208 q 1039 1188 1036 1196 q 1038 1173 1042 1179 q 1019 1161 1033 1167 l 778 1060 m 40 0 q 10 46 -8 0 l 575 947 q 601 978 590 971 q 635 986 611 986 l 1094 986 q 1131 976 1121 986 q 1142 939 1142 965 l 1142 871 q 1131 834 1142 844 q 1094 824 1121 824 l 761 824 l 761 581 l 1028 581 q 1065 570 1054 581 q 1075 533 1075 560 l 1075 465 q 1065 428 1075 439 q 1028 418 1054 418 l 761 418 l 761 163 l 1110 163 q 1147 152 1136 163 q 1157 115 1157 142 l 1157 47 q 1147 10 1157 21 q 1110 0 1136 0 l 640 0 q 603 10 614 0 q 593 47 593 21 l 593 207 l 301 207 l 203 42 q 172 9 188 18 q 115 0 156 0 l 40 0 m 388 350 l 593 350 l 593 693 l 388 350 z "},"ǽ":{"ha":1131,"x_min":54,"x_max":1078,"o":"m 465 822 q 411 825 425 807 l 392 850 q 378 878 378 868 q 394 896 379 888 l 599 1018 q 678 1015 650 1049 l 713 972 q 726 951 724 960 q 725 936 729 943 q 707 924 721 929 l 465 822 m 346 -21 q 117 33 179 -21 q 54 203 54 88 q 122 378 54 328 q 351 428 190 428 q 394 426 371 428 q 438 423 417 425 q 467 421 460 421 l 467 478 q 440 567 467 536 q 346 597 414 597 q 218 531 261 597 q 192 505 201 508 q 158 511 182 501 l 103 535 q 79 596 57 553 q 349 740 154 740 q 554 664 489 740 q 771 740 631 740 q 998 661 922 740 q 1074 454 1074 582 l 1074 368 q 1011 308 1074 308 l 629 308 l 629 257 q 769 118 629 118 q 914 192 865 118 q 944 217 929 214 q 983 208 958 221 l 1032 182 q 1049 113 1078 158 q 768 -21 967 -21 q 581 32 651 -21 q 346 -21 483 -21 m 629 432 l 913 432 l 913 463 q 771 604 913 604 q 629 463 629 604 l 629 432 m 331 113 q 410 119 376 113 q 456 133 444 126 q 469 143 468 139 q 467 211 467 188 l 467 289 q 333 296 335 296 q 242 274 265 296 q 218 204 218 251 q 240 135 218 157 q 331 113 263 113 z "},"Ǿ":{"ha":950,"x_min":63,"x_max":894,"o":"m 390 1074 q 336 1075 350 1058 l 317 1101 q 319 1146 292 1132 l 524 1269 q 603 1267 575 1297 l 638 1222 q 651 1201 649 1210 q 650 1187 654 1193 q 632 1175 646 1181 l 390 1074 m 82 -54 q 75 -39 63 -54 l 160 96 q 78 342 78 189 l 78 644 q 181 910 78 814 q 475 1007 285 1007 q 707 953 611 1007 l 758 1032 q 786 1046 768 1046 l 881 1046 q 888 1031 894 1046 l 793 885 q 872 644 872 790 l 872 342 q 769 78 872 174 q 475 -21 665 -18 q 247 28 342 -22 l 204 -40 q 174 -54 194 -54 l 82 -54 m 269 267 l 617 810 q 475 844 558 844 q 310 794 368 844 q 253 646 253 743 l 253 340 q 269 267 253 297 m 475 142 q 640 192 582 142 q 697 340 697 243 l 697 646 q 683 711 697 685 l 340 172 q 475 142 392 142 z "},"ǿ":{"ha":775,"x_min":68,"x_max":707,"o":"m 300 822 q 246 825 260 807 l 226 850 q 213 878 213 868 q 229 896 214 888 l 433 1018 q 513 1015 485 1049 l 547 972 q 561 951 558 960 q 560 936 564 943 q 542 924 556 929 l 300 822 m 96 -49 q 89 -33 76 -49 l 146 58 q 68 257 68 129 l 68 463 q 151 667 68 593 q 386 740 233 740 q 558 708 486 740 l 588 753 q 615 767 597 767 l 679 767 q 686 751 693 767 l 629 663 q 707 463 707 592 l 707 257 q 624 53 707 126 q 386 -21 542 -21 q 217 13 288 -21 l 188 -35 q 157 -49 178 -49 l 96 -49 m 243 211 l 475 578 q 386 594 440 594 q 269 560 310 594 q 229 463 229 526 l 229 257 q 243 211 229 232 m 386 125 q 505 160 464 125 q 546 257 546 194 l 546 463 q 532 511 546 488 l 299 143 q 386 125 338 125 z "},"Ș":{"ha":900,"x_min":56,"x_max":842,"o":"m 446 -21 q 199 37 289 -21 q 64 211 108 94 q 62 251 56 238 q 94 272 68 264 l 169 300 q 206 302 194 308 q 229 271 218 296 q 446 142 286 142 q 667 286 667 142 q 634 360 667 332 q 559 398 601 388 q 447 415 517 408 q 372 424 400 421 q 300 438 344 428 q 228 460 256 447 q 167 494 200 472 q 115 543 133 515 q 83 612 96 571 q 71 703 71 653 q 169 924 71 840 q 451 1007 268 1007 q 679 956 594 1007 q 815 797 764 904 q 790 733 838 756 l 713 700 q 677 695 689 690 q 653 724 665 700 q 577 811 624 782 q 451 840 531 840 q 249 713 249 840 q 267 652 249 676 q 323 614 285 628 q 396 594 361 600 q 489 581 431 588 q 590 565 547 574 q 683 537 632 557 q 765 488 733 517 q 819 408 797 458 q 842 290 842 357 q 738 64 842 149 q 446 -21 633 -21 m 381 -358 q 357 -352 363 -358 q 354 -328 351 -346 l 382 -131 q 396 -95 385 -104 q 433 -86 407 -86 l 506 -86 q 547 -131 563 -86 l 482 -318 q 465 -349 475 -340 q 433 -358 454 -358 l 381 -358 z "},"ș":{"ha":719,"x_min":42,"x_max":669,"o":"m 367 -21 q 58 147 125 -21 q 86 206 42 190 l 149 225 q 206 199 189 239 q 363 122 238 122 q 511 204 511 122 q 474 267 511 250 q 344 293 436 283 q 262 305 296 299 q 187 326 228 311 q 121 364 146 342 q 79 425 96 386 q 63 517 63 464 q 136 680 63 619 q 350 740 210 740 q 647 592 572 740 q 624 529 669 550 l 563 504 q 528 498 539 494 q 503 524 517 501 q 353 597 461 597 q 222 521 222 597 q 258 459 222 475 q 385 435 294 443 q 501 416 454 428 q 588 381 547 404 q 649 315 629 357 q 668 211 668 272 q 590 42 668 106 q 367 -21 511 -21 m 272 -357 q 249 -351 254 -357 q 246 -326 243 -344 l 274 -129 q 288 -94 276 -103 q 325 -85 299 -85 l 397 -85 q 439 -129 454 -85 l 374 -317 q 356 -348 367 -339 q 325 -357 346 -357 l 272 -357 z "},"ț":{"ha":560,"x_min":22,"x_max":522,"o":"m 479 0 q 230 65 300 0 q 160 307 160 129 l 160 571 l 65 571 q 32 581 42 571 q 22 614 22 590 l 22 678 q 32 710 22 701 q 65 719 42 719 l 160 719 l 160 844 q 169 877 160 868 q 203 886 179 886 l 279 886 q 312 877 303 886 q 321 844 321 868 l 321 719 l 481 719 q 513 710 504 719 q 522 678 522 701 l 522 614 q 513 581 522 590 q 481 571 504 571 l 321 571 l 321 313 q 354 183 321 214 q 479 153 388 153 q 513 143 503 153 q 522 110 522 133 l 522 44 q 513 10 522 21 q 479 0 503 0 m 278 -357 q 254 -351 260 -357 q 251 -326 249 -344 l 279 -129 q 293 -94 282 -103 q 331 -85 304 -85 l 403 -85 q 444 -129 460 -85 l 379 -317 q 362 -348 372 -339 q 331 -357 351 -357 l 278 -357 z "},"ȷ":{"ha":343,"x_min":-108,"x_max":253,"o":"m -65 -319 q -99 -310 -90 -319 q -108 -275 -108 -300 l -108 -214 q -99 -179 -108 -189 q -65 -169 -90 -169 q 56 -128 19 -169 q 92 -6 92 -86 l 92 678 q 101 710 92 701 q 135 719 110 719 l 208 719 q 243 710 233 719 q 253 678 253 701 l 253 -10 q -65 -319 253 -319 z "},"ˆ":{"ha":568,"x_min":38,"x_max":524,"o":"m 72 811 q 42 822 47 811 q 51 846 38 833 l 193 982 q 231 1013 218 1007 q 275 1019 244 1019 l 292 1019 q 330 1014 317 1019 q 368 982 343 1008 l 510 846 q 519 822 524 833 q 489 811 514 811 l 426 811 q 358 836 381 811 l 279 915 l 194 836 q 168 815 179 819 q 129 811 157 811 l 72 811 z "},"ˇ":{"ha":482,"x_min":-6,"x_max":481,"o":"m 232 810 q 187 815 200 810 q 150 847 174 821 l 8 982 q -1 1006 -6 996 q 29 1017 4 1017 l 88 1017 q 125 1013 114 1017 q 153 993 136 1008 l 236 914 l 317 993 q 344 1013 331 1008 q 385 1017 357 1017 l 447 1017 q 476 1006 472 1017 q 467 982 481 996 l 326 847 q 288 815 301 821 q 249 810 275 810 l 232 810 z "},"˘":{"ha":419,"x_min":-22,"x_max":426,"o":"m 201 813 q 67 850 124 813 q -12 956 10 888 q 7 994 -22 983 l 63 1017 q 106 1001 94 1026 q 201 929 126 929 q 300 1001 275 929 q 336 1018 310 1025 l 399 994 q 418 956 426 982 q 338 850 394 888 q 201 813 281 813 z "},"˙":{"ha":321,"x_min":82,"x_max":239,"o":"m 156 829 q 97 845 113 829 q 82 904 82 861 l 82 915 q 97 974 82 958 q 156 989 113 989 l 164 989 q 223 974 207 989 q 239 915 239 958 l 239 904 q 223 845 239 861 q 164 829 207 829 l 156 829 z "},"˚":{"ha":354,"x_min":26,"x_max":328,"o":"m 179 774 q 69 815 113 774 q 26 919 26 856 q 69 1025 26 983 q 179 1067 113 1067 q 286 1026 244 1067 q 328 919 328 985 q 286 815 328 856 q 179 774 244 774 m 179 851 q 228 870 210 851 q 247 919 247 889 q 228 969 247 950 q 179 988 210 988 q 127 969 147 988 q 107 919 107 950 q 127 870 107 889 q 179 851 147 851 z "},"˛":{"ha":371,"x_min":42,"x_max":319,"o":"m 176 -340 q 53 -257 69 -340 q 74 -135 42 -203 q 176 0 107 -67 l 281 0 q 192 -193 174 -132 q 228 -222 200 -222 q 265 -208 247 -222 q 292 -217 283 -197 l 310 -261 q 308 -290 319 -281 q 176 -340 256 -340 z "},"˜":{"ha":444,"x_min":8,"x_max":435,"o":"m 35 826 q 8 853 8 826 q 37 972 8 936 q 124 1007 65 1007 q 229 967 176 1007 q 307 928 282 928 q 339 981 339 928 q 364 1007 339 1007 l 408 1007 q 435 981 435 1007 q 407 862 435 897 q 318 826 379 826 q 217 866 269 826 q 139 906 164 906 q 106 853 106 906 q 81 826 106 826 l 35 826 z "},"˝":{"ha":569,"x_min":63,"x_max":589,"o":"m 122 807 l 99 814 q 85 857 63 826 l 179 988 q 253 1017 208 1029 l 300 1000 q 314 953 343 985 l 172 825 q 122 807 143 799 m 347 801 l 324 810 q 310 853 288 821 l 415 988 q 488 1017 446 1029 l 540 1000 q 553 953 589 982 l 397 819 q 347 801 368 794 z "},"̀":{"ha":0,"x_min":-356,"x_max":6,"o":"m -92 822 l -333 924 q -355 943 -354 932 q -340 972 -356 954 l -304 1015 q -226 1018 -276 1050 l -21 896 q -19 850 6 882 l -39 825 q -92 822 -51 807 z "},"́":{"ha":0,"x_min":-354,"x_max":-3,"o":"m -267 822 q -321 825 -307 807 l -340 850 q -353 878 -354 868 q -337 896 -353 888 l -133 1018 q -54 1015 -82 1049 l -19 972 q -6 951 -8 960 q -7 936 -3 943 q -25 924 -11 929 l -267 822 z "},"̂":{"ha":0,"x_min":-531,"x_max":-44,"o":"m -496 817 q -526 827 -521 817 q -517 851 -531 838 l -375 988 q -338 1018 -351 1013 q -293 1024 -325 1024 l -276 1024 q -237 1018 -250 1024 q -200 988 -225 1013 l -58 851 q -49 827 -44 838 q -79 817 -54 817 l -142 817 q -210 840 -187 817 l -289 919 l -374 840 q -400 820 -389 824 q -439 817 -411 817 l -496 817 z "},"̃":{"ha":0,"x_min":-436,"x_max":-10,"o":"m -410 831 q -436 857 -436 831 q -408 976 -436 940 q -321 1013 -379 1013 q -215 972 -268 1013 q -137 932 -162 932 q -106 985 -106 932 q -81 1013 -106 1013 l -36 1013 q -10 985 -10 1013 q -37 866 -10 901 q -126 831 -65 831 q -228 870 -175 831 q -306 910 -281 910 q -339 857 -339 910 q -364 831 -339 831 l -410 831 z "},"̄":{"ha":0,"x_min":-454,"x_max":-53,"o":"m -414 857 q -446 865 -437 857 q -454 897 -454 874 l -454 932 q -445 964 -454 956 q -414 972 -436 972 l -93 972 q -61 964 -69 972 q -53 932 -53 956 l -53 897 q -61 865 -53 874 q -93 857 -69 857 l -414 857 z "},"̆":{"ha":0,"x_min":-442,"x_max":7,"o":"m -218 818 q -352 856 -296 818 q -432 960 -408 893 q -412 1000 -442 989 l -357 1021 q -314 1006 -325 1031 q -218 933 -290 933 q -119 1006 -147 933 q -83 1022 -110 1029 l -21 1000 q -1 960 7 988 q -83 856 -26 893 q -218 818 -139 818 z "},"̇":{"ha":0,"x_min":-247,"x_max":-74,"o":"m -165 843 q -231 860 -214 843 q -247 924 -247 876 l -247 936 q -231 999 -247 983 q -165 1015 -214 1015 l -156 1015 q -90 999 -107 1015 q -74 936 -74 983 l -74 924 q -90 860 -74 876 q -156 843 -107 843 l -165 843 z "},"̈":{"ha":0,"x_min":-536,"x_max":-103,"o":"m -462 833 q -521 849 -506 833 q -536 906 -536 864 l -536 918 q -521 976 -536 960 q -462 992 -506 992 l -454 992 q -397 976 -412 992 q -381 918 -381 960 l -381 906 q -397 849 -381 865 q -454 833 -412 833 l -462 833 m -185 833 q -242 849 -226 833 q -258 906 -258 865 l -258 918 q -242 976 -258 960 q -185 992 -226 992 l -176 992 q -118 976 -133 992 q -103 918 -103 960 l -103 906 q -118 849 -103 864 q -176 833 -133 833 l -185 833 z "},"̊":{"ha":0,"x_min":-328,"x_max":-26,"o":"m -175 782 q -285 823 -242 782 q -328 928 -328 864 q -285 1035 -328 993 q -175 1076 -242 1076 q -68 1035 -110 1076 q -26 928 -26 993 q -68 823 -26 864 q -175 782 -110 782 m -175 861 q -126 880 -144 861 q -107 928 -107 899 q -126 978 -107 958 q -175 997 -144 997 q -227 978 -207 997 q -247 928 -247 958 q -227 880 -247 899 q -175 861 -207 861 z "},"̋":{"ha":0,"x_min":-506,"x_max":17,"o":"m -447 811 l -471 819 q -485 863 -506 831 l -390 993 q -317 1021 -362 1035 l -269 1004 q -256 957 -226 990 l -397 829 q -447 811 -426 803 m -222 807 l -246 814 q -260 857 -282 825 l -154 992 q -82 1021 -124 1033 l -29 1004 q -17 957 17 986 l -172 824 q -197 806 -189 808 q -222 807 -206 803 z "},"̌":{"ha":0,"x_min":-487,"x_max":-1,"o":"m -250 814 q -294 820 -281 814 q -332 851 -307 826 l -474 988 q -483 1012 -487 1001 q -453 1022 -478 1022 l -394 1022 q -356 1018 -368 1022 q -329 997 -344 1014 l -246 918 l -165 997 q -97 1022 -143 1022 l -35 1022 q -6 1011 -10 1022 q -15 988 -1 1000 l -156 851 q -194 819 -181 825 q -233 814 -207 814 l -250 814 z "},"̧":{"ha":0,"x_min":-335,"x_max":-18,"o":"m -210 -340 q -311 -322 -275 -340 q -333 -283 -333 -312 l -335 -242 q -314 -225 -335 -214 q -231 -247 -272 -247 q -162 -197 -162 -247 q -222 -157 -162 -158 q -256 -158 -244 -157 q -278 -151 -274 -160 q -275 -125 -282 -143 l -222 0 l -126 0 l -157 -81 q -139 -79 -150 -79 q -51 -115 -85 -79 q -24 -204 -18 -151 q -210 -340 -36 -340 z "},"̨":{"ha":0,"x_min":-329,"x_max":-51,"o":"m -194 -340 q -318 -257 -301 -340 q -297 -135 -329 -203 q -194 0 -264 -67 l -90 0 q -179 -193 -197 -132 q -143 -222 -171 -222 q -106 -208 -124 -222 q -79 -217 -87 -197 l -61 -261 q -62 -290 -51 -281 q -194 -340 -114 -340 z "},"π":{"ha":913,"x_min":11,"x_max":867,"o":"m 721 1 q 683 -5 697 -10 q 660 24 669 0 q 621 215 621 103 l 621 572 l 350 572 l 350 43 q 340 10 350 19 q 307 0 331 0 l 232 0 q 199 10 208 0 q 189 43 189 19 l 189 572 q 101 547 151 571 q 46 565 61 529 l 21 626 q 15 660 11 647 q 42 682 19 672 q 242 719 124 719 l 824 719 q 857 710 847 719 q 867 678 867 701 l 867 615 q 857 582 867 592 q 824 572 847 572 l 782 572 l 782 208 q 807 89 782 142 q 783 26 826 43 l 721 1 z "},"Ё":{"ha":825,"x_min":107,"x_max":769,"o":"m 286 1075 q 230 1091 246 1075 q 214 1147 214 1107 l 214 1161 q 230 1217 214 1201 q 286 1232 246 1232 l 296 1232 q 353 1217 338 1232 q 369 1161 369 1201 l 369 1147 q 353 1091 369 1107 q 296 1075 338 1075 l 286 1075 m 565 1075 q 508 1091 524 1075 q 492 1147 492 1107 l 492 1161 q 508 1217 492 1201 q 565 1232 524 1232 l 575 1232 q 631 1217 615 1232 q 647 1161 647 1201 l 647 1147 q 631 1091 647 1107 q 575 1075 615 1075 l 565 1075 m 154 0 q 117 10 128 0 q 107 47 107 21 l 107 939 q 117 976 107 965 q 154 986 128 986 l 707 986 q 744 976 733 986 q 754 939 754 965 l 754 871 q 744 834 754 844 q 707 824 733 824 l 281 824 l 281 581 l 640 581 q 677 570 667 581 q 688 533 688 560 l 688 465 q 677 428 688 439 q 640 418 667 418 l 281 418 l 281 163 l 722 163 q 759 152 749 163 q 769 115 769 142 l 769 47 q 759 10 769 21 q 722 0 749 0 l 154 0 z "},"А":{"ha":935,"x_min":6,"x_max":925,"o":"m 56 0 q 25 46 6 0 l 371 949 q 392 980 381 972 q 429 988 404 988 l 503 988 q 541 980 528 988 q 561 950 554 972 l 908 46 q 878 0 925 0 l 806 0 q 744 8 761 0 q 719 42 726 17 l 654 221 l 272 221 l 206 42 q 181 8 197 17 q 119 0 164 0 l 56 0 m 321 364 l 606 364 l 500 657 q 468 826 468 751 l 457 826 q 428 658 457 743 l 321 364 z "},"Б":{"ha":901,"x_min":107,"x_max":851,"o":"m 153 0 q 117 10 128 0 q 107 44 107 19 l 107 939 q 117 976 107 965 q 154 986 128 986 l 735 986 q 772 976 761 986 q 782 939 782 965 l 782 871 q 772 834 782 844 q 735 824 761 824 l 281 824 l 281 603 l 544 603 q 768 522 685 603 q 851 301 851 442 q 768 81 851 161 q 544 0 685 0 l 153 0 m 281 163 l 526 163 q 631 200 593 163 q 669 301 669 238 q 631 403 669 365 q 526 440 593 440 l 281 440 l 281 163 z "}}}
